<?xml version="1.0" standalone="no"?>
<!DOCTYPE svg PUBLIC "-//W3C//DTD SVG 20010904//EN"
 "http://www.w3.org/TR/2001/REC-SVG-20010904/DTD/svg10.dtd">
<svg version="1.0" xmlns="http://www.w3.org/2000/svg"
 width="512.000000pt" height="512.000000pt" viewBox="0 0 512.000000 512.000000"
 preserveAspectRatio="xMidYMid meet">

<g transform="translate(0.000000,512.000000) scale(0.100000,-0.100000)"
fill="#000000" stroke="none">
<path d="M2394 5075 c-149 -32 -267 -99 -384 -215 -158 -159 -230 -329 -230
-550 0 -205 67 -376 204 -527 263 -288 706 -337 1023 -114 338 239 434 689
222 1048 -44 74 -188 219 -261 262 -77 45 -165 79 -246 96 -83 18 -247 18
-328 0z m327 -201 c254 -75 423 -301 423 -564 0 -161 -56 -294 -170 -411 -116
-117 -246 -171 -414 -171 -79 0 -121 5 -170 21 -185 59 -335 211 -392 396 -28
90 -30 233 -4 320 68 228 257 393 491 429 51 7 179 -3 236 -20z"/>
<path d="M2447 4774 c-108 -26 -137 -51 -137 -119 0 -27 8 -44 29 -66 34 -33
69 -37 124 -14 52 22 152 19 207 -6 55 -25 114 -80 143 -134 17 -32 22 -57 22
-125 0 -96 -13 -129 -74 -193 -60 -64 -103 -82 -201 -82 -98 0 -141 18 -201
82 -59 61 -72 96 -78 211 -6 98 -8 105 -34 128 -40 34 -90 32 -127 -4 -36 -37
-48 -118 -31 -216 44 -259 290 -439 543 -397 209 34 367 195 400 404 51 329
-259 610 -585 531z"/>
<path d="M3529 3943 c-29 -25 -133 -176 -202 -294 -35 -59 -36 -122 -4 -166
12 -18 49 -52 82 -76 33 -24 84 -66 114 -93 58 -52 194 -212 224 -262 l17 -30
-55 -26 c-66 -30 -95 -71 -95 -136 0 -45 17 -81 50 -107 46 -38 600 -389 629
-399 59 -20 137 10 165 64 19 38 168 697 169 748 0 49 -30 97 -75 120 -37 19
-104 15 -172 -12 -43 -16 -50 -17 -54 -4 -3 8 -20 30 -38 48 -40 40 -80 42
-122 7 -47 -40 -49 -73 -10 -150 57 -114 115 -147 206 -120 25 8 47 13 48 12
2 -3 -107 -481 -111 -486 -3 -3 -317 193 -408 254 -16 11 -15 14 17 33 46 27
76 77 76 126 0 96 -205 365 -400 526 -36 29 -64 57 -63 61 7 23 107 169 115
169 18 0 96 -67 224 -192 111 -107 125 -118 158 -118 21 0 46 5 58 11 27 14
47 67 41 104 -10 55 -318 342 -431 401 -46 24 -116 18 -153 -13z"/>
<path d="M1230 3851 c-190 -42 -354 -82 -365 -88 -30 -16 -51 -44 -64 -82 -17
-53 2 -107 60 -165 27 -27 49 -51 49 -54 0 -3 -26 -46 -59 -96 -142 -219 -248
-493 -292 -748 -10 -62 -9 -71 10 -111 11 -23 33 -50 49 -59 18 -11 100 -27
225 -44 193 -26 197 -26 233 -8 55 27 70 56 98 180 29 130 89 291 147 389 22
38 42 71 44 73 2 2 24 -13 50 -32 26 -20 57 -39 71 -42 60 -15 139 25 163 83
13 34 101 675 101 740 0 82 -62 144 -142 142 -18 -1 -188 -36 -378 -78z m316
-158 c-3 -16 -17 -116 -31 -223 -14 -107 -28 -207 -31 -222 l-6 -28 -42 25
c-77 45 -146 26 -206 -57 -94 -130 -195 -349 -234 -509 -24 -102 -14 -97 -153
-77 -47 6 -83 16 -83 22 0 6 11 55 25 109 50 196 142 397 269 585 96 143 100
187 26 259 l-33 32 24 6 c46 11 464 103 472 104 5 1 6 -11 3 -26z"/>
<path d="M2405 3201 c-34 -15 -64 -50 -95 -110 -38 -77 -64 -87 -150 -60 -118
36 -137 29 -269 -105 -92 -93 -94 -96 -98 -148 -3 -35 2 -71 14 -108 27 -79
17 -102 -69 -147 -91 -48 -109 -78 -116 -192 -6 -115 4 -192 31 -232 12 -18
50 -48 85 -67 37 -20 68 -45 77 -62 13 -25 13 -34 -5 -86 -23 -67 -26 -124 -6
-162 8 -15 54 -66 103 -113 111 -109 136 -118 241 -87 96 28 116 21 160 -57
62 -112 89 -125 252 -125 163 0 190 13 252 125 44 78 64 85 158 57 39 -12 76
-19 83 -17 7 2 25 6 41 10 33 7 198 162 222 207 20 38 17 95 -6 162 -18 52
-18 61 -5 86 9 17 40 42 77 62 35 19 73 49 85 67 27 40 37 117 31 232 -7 114
-25 144 -116 192 -86 45 -96 68 -69 147 12 37 17 73 14 108 -4 52 -6 55 -98
148 -132 134 -151 141 -269 105 -87 -27 -110 -18 -155 67 -55 103 -63 107
-235 109 -80 1 -154 -1 -165 -6z m241 -223 c31 -69 68 -104 149 -137 87 -37
103 -37 181 -11 l58 20 49 -49 49 -49 -22 -66 c-25 -75 -22 -97 20 -191 30
-66 63 -100 128 -129 l42 -19 0 -68 0 -69 -59 -30 c-69 -34 -87 -58 -126 -158
l-29 -73 22 -72 21 -72 -48 -49 -49 -49 -48 17 c-76 26 -129 20 -214 -22 -70
-35 -77 -41 -108 -99 l-33 -63 -69 0 -69 0 -33 63 c-31 58 -38 64 -108 99 -85
42 -138 48 -214 22 l-48 -17 -49 49 -48 49 21 72 22 72 -29 73 c-38 99 -54
120 -124 157 l-61 32 0 68 0 68 42 19 c65 29 98 63 128 129 42 94 45 116 20
191 l-22 66 49 49 49 49 58 -20 c78 -26 94 -26 181 11 81 33 118 68 149 137
l19 42 67 0 67 0 19 -42z"/>
<path d="M2467 2670 c-20 -5 -60 -21 -87 -35 -297 -150 -291 -577 10 -719 60
-29 73 -31 170 -31 97 0 110 2 170 31 134 63 220 189 228 334 13 228 -151 415
-376 426 -42 2 -94 -1 -115 -6z m167 -200 c14 -5 43 -26 66 -46 91 -82 85
-233 -13 -308 -158 -120 -378 27 -323 216 16 56 69 118 116 137 33 13 122 14
154 1z"/>
<path d="M771 2257 c-19 -6 -51 -27 -71 -46 -22 -22 -156 -244 -351 -581
l-314 -545 0 -76 c0 -66 4 -81 28 -117 15 -23 46 -54 69 -69 l42 -28 655 -3
c586 -2 661 -1 699 14 61 23 96 56 122 116 35 82 26 133 -46 262 -85 155 -105
176 -160 176 -34 0 -51 -6 -69 -25 -42 -41 -34 -84 35 -205 33 -58 59 -114 58
-125 -3 -20 -11 -20 -614 -23 -524 -2 -613 0 -623 12 -10 12 43 112 292 543
219 379 310 529 324 531 16 2 50 -51 186 -285 91 -158 175 -294 186 -300 25
-16 75 -17 102 -3 27 15 52 68 46 99 -5 24 -304 550 -348 612 -45 63 -161 94
-248 66z"/>
<path d="M3822 2189 c-46 -14 -115 -85 -130 -135 -15 -52 -17 -1060 -2 -1114
13 -49 66 -109 114 -131 38 -17 77 -19 581 -19 505 0 543 2 580 19 49 23 89
64 109 113 24 56 24 1090 0 1146 -20 49 -60 90 -109 113 -37 17 -74 19 -575
18 -309 -1 -549 -5 -568 -10z m1066 -191 c9 -9 12 -136 12 -510 l0 -498 -22
-5 c-13 -3 -241 -4 -508 -3 l-485 3 -3 500 c-1 275 0 506 3 513 6 17 985 18
1003 0z"/>
<path d="M4073 1889 c-47 -14 -80 -60 -88 -121 -4 -29 -5 -173 -3 -320 4 -379
-19 -358 403 -358 319 0 335 3 379 63 20 27 21 41 21 342 0 433 27 405 -395
404 -157 0 -299 -5 -317 -10z m517 -394 l0 -205 -205 0 -205 0 0 205 0 205
205 0 205 0 0 -205z"/>
<path d="M805 1729 c-46 -13 -74 -48 -172 -219 -118 -203 -133 -233 -133 -270
0 -44 33 -102 72 -125 31 -19 51 -20 280 -20 233 0 248 1 274 21 49 36 69 72
69 122 0 42 -13 69 -109 235 -60 104 -119 201 -132 216 -12 15 -40 33 -62 39
-44 14 -46 14 -87 1z m99 -333 c31 -52 56 -97 56 -100 0 -3 -49 -6 -110 -6
-60 0 -110 3 -110 6 0 6 103 193 107 194 1 0 27 -42 57 -94z"/>
<path d="M2055 934 c-181 -85 -338 -163 -348 -172 -46 -41 -60 -117 -33 -170
22 -41 527 -539 559 -551 69 -27 151 -1 181 56 11 22 36 126 36 150 0 2 58 3
129 3 223 0 464 43 671 119 144 53 172 71 199 125 30 60 28 68 -78 290 -74
153 -82 166 -120 185 -54 28 -77 26 -166 -9 -149 -59 -338 -100 -464 -100
l-63 0 6 54 c9 66 -8 110 -53 149 -63 52 -86 46 -456 -129z m295 -128 c0 -53
32 -104 80 -128 87 -44 403 -10 643 69 44 14 83 21 87 17 5 -5 27 -48 49 -97
l40 -87 -35 -15 c-193 -80 -519 -134 -727 -121 -126 9 -173 -9 -206 -76 -11
-24 -21 -55 -21 -69 0 -19 -32 8 -180 156 -99 99 -180 182 -180 185 0 3 75 41
168 84 92 42 187 88 212 101 64 34 70 32 70 -19z"/>
</g>
</svg>
