<?xml version="1.0" encoding="UTF-8"?>
<svg version="1.1" xmlns="http://www.w3.org/2000/svg" width="512" height="512">
<path d="M0 0 C1.19818359 -0.03673828 2.39636719 -0.07347656 3.63085938 -0.11132812 C10.45684125 -0.14517597 14.89263969 0.35178102 20.13793945 4.89135742 C24.04301709 9.1028363 26.54977807 12.7213752 26.984375 18.53125 C27.37869896 20.69618503 27.37869896 20.69618503 28.6875 22.5625 C32.9269042 24.86722728 37.40894047 25.98580921 42.0625 27.1875 C43.30773437 27.54972656 44.55296875 27.91195313 45.8359375 28.28515625 C51.87956586 30.33192062 51.87956586 30.33192062 57.95825195 29.7434082 C59.98720738 28.35782901 61.71614406 26.81439514 63.5 25.125 C68.67135591 20.54302657 73.30942678 18.71990577 80.125 17.875 C85.69411156 16.97210589 87.99180864 14.80632525 91.64453125 10.6640625 C95.10023624 7.10924551 99.34397408 4.88200194 103.6875 2.5625 C104.48667847 2.04320923 104.48667847 2.04320923 105.30200195 1.51342773 C108.8445847 0.10125295 112.38963052 0.17640348 116.15234375 0.12109375 C117.39607506 0.10043602 117.39607506 0.10043602 118.66493225 0.07936096 C120.42246868 0.05610465 122.180093 0.03883121 123.93774414 0.02709961 C126.58586823 0.00039462 129.2298502 -0.07446232 131.87695312 -0.15039062 C144.50471593 -0.34613587 153.13420401 1.74984531 163.00390625 10.22265625 C163.74511719 11.01542969 164.48632812 11.80820313 165.25 12.625 C166.43916016 13.89150391 166.43916016 13.89150391 167.65234375 15.18359375 C169.95212434 17.87182096 171.91660721 20.50368518 173.6875 23.5625 C174.44675781 23.40265625 175.20601563 23.2428125 175.98828125 23.078125 C180.96206884 22.38484099 185.8587447 22.33844056 190.875 22.3125 C192.34163086 22.2815625 192.34163086 22.2815625 193.83789062 22.25 C201.35172653 22.21027053 209.92069113 22.44463459 215.94213867 27.42871094 C218.47267062 30.52240924 218.88170977 33.67830454 218.6875 37.5625 C217.5538562 40.784435 216.6531134 42.7757039 214 44.9375 C210.10380686 45.99052517 205.84821426 46.17020088 201.9375 45.0703125 C192.48341519 42.93657808 182.14997007 43.9992708 173.30078125 47.6875 C169.15924919 49.07420132 166.07726375 49.12531368 162.015625 47.48046875 C158.96883479 44.97044528 157.98589217 42.49182515 156.4375 38.875 C152.42546686 30.24002059 147.26470831 24.76070571 138.3125 21.0625 C128.58876466 18.02891126 119.78413519 18.96808459 110.6875 23.5625 C108.91870267 25.0942537 108.91870267 25.0942537 107.6875 26.5625 C108.08582031 26.98660156 108.48414063 27.41070313 108.89453125 27.84765625 C115.82926345 35.52479287 118.09970302 43.2795654 117.9609375 53.58984375 C116.9902033 64.14311129 111.70164311 71.13139678 104 77.9375 C100.71997111 80.24238517 98.74262449 81.5625 94.6875 81.5625 C94.6875 86.8425 94.6875 92.1225 94.6875 97.5625 C98.92079954 97.51106258 103.15066284 97.44760649 107.3828125 97.35498047 C108.81791729 97.32701136 110.25316924 97.30567897 111.68847656 97.29150391 C125.66355099 97.20022151 125.66355099 97.20022151 137.72290039 90.77490234 C141.93564997 86.41398971 144.60835376 81.30839914 147.23046875 75.8828125 C148.85616656 73.29389963 149.82640916 72.53625558 152.6875 71.5625 C160.29619565 71.01902174 160.29619565 71.01902174 163.6875 73.5625 C166.26942212 76.50054931 166.94353974 78.80950235 166.75 82.625 C164.79458554 94.88707815 157.07173809 103.58757972 147.72265625 111.15234375 C136.58872421 118.89666434 123.85143386 119.10382733 110.875 118.8125 C109.29624695 118.79237816 107.71746875 118.77413756 106.13867188 118.7578125 C102.32097832 118.71432584 98.50452769 118.64562482 94.6875 118.5625 C94.6875 120.8725 94.6875 123.1825 94.6875 125.5625 C95.533125 125.748125 96.37875 125.93375 97.25 126.125 C103.99316083 128.94486726 107.91738708 134.17065024 110.9609375 140.66796875 C113.76238115 147.97280838 113.59428614 156.01299716 110.8671875 163.32421875 C107.64551513 169.43686201 102.79040796 174.35998394 96.6875 177.5625 C96.0275 177.5625 95.3675 177.5625 94.6875 177.5625 C95.0175 191.7525 95.3475 205.9425 95.6875 220.5625 C97.0075 220.8925 98.3275 221.2225 99.6875 221.5625 C102.14661321 219.43935203 102.14661321 219.43935203 104.6875 216.5625 C116.57991578 204.67008422 133.10500968 199.83437485 149.42578125 198.3828125 C153.22735871 198.59224072 155.45864129 199.58593381 158.6875 201.5625 C160.8854747 204.27333547 161.61147877 206.05207172 162.125 209.5 C161.53852907 213.60529654 160.52502271 215.51735368 157.6875 218.5625 C154.75983337 219.72870746 151.79930832 220.13772862 148.6875 220.5625 C136.75442074 222.29529744 126.24262549 225.55537274 117.359375 234.11328125 C115.49476711 236.40318534 115.49476711 236.40318534 115.515625 238.98046875 C116.02939776 241.46982198 116.02939776 241.46982198 116.87890625 243.9609375 C119.27173883 251.65961625 117.97959904 260.32222523 114.6875 267.5625 C110.52807802 274.5286864 104.41684442 280.9058221 96.41796875 283.21875 C95.84691406 283.3321875 95.27585937 283.445625 94.6875 283.5625 C94.6875 286.2025 94.6875 288.8425 94.6875 291.5625 C103.60732599 291.50096319 112.52684096 291.42362726 121.44635391 291.32678509 C125.58921569 291.28228688 129.73198377 291.24298717 133.875 291.21606445 C137.88227514 291.18982426 141.88918561 291.14928035 145.8962326 291.09931374 C147.4157834 291.08278366 148.93539707 291.07118396 150.45502472 291.06488609 C165.6748807 290.99550199 178.73139657 288.93969345 190.4375 278.4375 C197.57072323 270.69862574 200.34824896 261.65265876 201.57519531 251.43798828 C202.20151471 246.70075625 203.31502379 243.96727963 206.6875 240.5625 C209.93180347 238.94034826 213.18128642 239.00957207 216.6875 239.5625 C219.96785508 241.41142741 222.06325581 242.785805 223.34765625 246.44140625 C225.4566703 259.60456292 220.57470747 274.24911854 213.1875 285 C212.03388557 286.53075761 210.86867845 288.05290979 209.6875 289.5625 C208.57375 291.109375 208.57375 291.109375 207.4375 292.6875 C200.98967382 299.42840919 192.94302282 304.32262655 184.6875 308.5625 C185.41453125 309.25859375 185.41453125 309.25859375 186.15625 309.96875 C193.24559684 317.27623059 200.94128358 328.1699571 201.4375 338.75 C200.6313746 342.84780413 199.70929964 344.71845328 196.6875 347.5625 C193.19468568 349.30890716 189.49892745 349.11833317 185.6875 348.5625 C180.94075954 345.39800636 179.73911097 341.3032303 177.8359375 336.1875 C173.35523323 325.94589024 164.77517637 319.59088004 154.765625 315.32421875 C150.8695274 313.89613786 147.43068739 313.42512222 143.27636719 313.35717773 C142.19554871 313.33723251 141.11473022 313.31728729 140.00115967 313.29673767 C138.84062073 313.28002518 137.68008179 313.26331268 136.484375 313.24609375 C134.69498505 313.2149221 134.69498505 313.2149221 132.8694458 313.18312073 C129.05885577 313.11773761 125.24819686 313.05879224 121.4375 313 C118.85415954 312.95680411 116.27082605 312.91318948 113.6875 312.86914062 C107.35423948 312.76206766 101.02091044 312.66028028 94.6875 312.5625 C94.74249785 314.82754794 94.8276641 317.09187869 94.92578125 319.35546875 C94.97001221 320.61641357 95.01424316 321.8773584 95.05981445 323.17651367 C95.37190952 326.61801814 95.37190952 326.61801814 97.67553711 328.58984375 C99.20315326 329.48243687 100.75679992 330.3313455 102.328125 331.14453125 C107.26865893 334.11375943 109.68429169 339.41928224 112.0625 344.5 C113.64689958 352.26355793 113.00186221 359.33927114 109.6875 366.5625 C109.11 367.305 108.5325 368.0475 107.9375 368.8125 C106.43359569 370.52907855 106.43359569 370.52907855 106.8359375 372.94921875 C108.46282874 377.94183452 113.30946862 380.07846872 117.6875 382.5625 C125.08669119 385.88316128 132.01999952 387.55932578 140.12890625 387.703125 C141.12470703 387.72246094 142.12050781 387.74179687 143.14648438 387.76171875 C145.21920375 387.7956336 147.29223919 387.81380688 149.36523438 387.81640625 C156.95982133 388.0034408 156.95982133 388.0034408 160.83984375 390.984375 C163.83767474 395.16739498 163.87768215 397.35798295 163.265625 402.3671875 C162.6875 404.5625 162.6875 404.5625 160.3125 407.0625 C149.99549712 412.95793021 131.71541859 410.11661384 120.6875 407.5625 C111.91781345 404.97902502 104.91141037 401.09897185 97.6875 395.5625 C96.6975 394.9025 95.7075 394.2425 94.6875 393.5625 C94.6875 403.1325 94.6875 412.7025 94.6875 422.5625 C96.9975 423.2225 99.3075 423.8825 101.6875 424.5625 C109.52617781 429.83372681 115.04598112 436.80455862 117.2890625 446.0390625 C118.67391028 454.80976513 117.82993274 462.63576992 113.6875 470.5625 C111.55247442 473.45187081 109.25148804 476.04892746 106.6875 478.5625 C109.32052688 484.9831431 115.67811193 488.2738357 121.81640625 490.90234375 C134.09329637 495.05373499 144.71442369 494.50254819 156.6875 489.5625 C167.25487583 484.21378208 173.9728709 475.9461014 177.77734375 464.81640625 C180.27964569 455.87040833 179.68654291 448.90406614 177.37890625 439.921875 C176.41250223 435.22635266 175.96603082 431.18580566 177.9375 426.75 C179.8457165 424.36472938 180.78098031 423.45060324 183.6875 422.5625 C187.26097518 422.23763862 189.9587456 422.32523112 193.375 423.4375 C200.48796521 429.9737383 201.12555184 441.47920678 201.6875 450.5625 C201.56790127 454.93006846 201.22842478 459.22779197 200.6875 463.5625 C211.25903073 461.09707916 211.25903073 461.09707916 221.1875 456.8125 C225.23213022 454.65625674 228.0311623 453.66705044 232.6875 454.5625 C235.89363573 456.46243229 238.08652918 457.89724007 239.38671875 461.5 C239.97604682 464.8458626 239.87919686 467.04731468 238.6875 470.25 C229.4081229 480.97927977 214.14086923 483.77439396 200.6875 485.5625 C197.62859439 485.7447664 194.75102243 485.72661727 191.6875 485.5625 C191.42066406 486.14515625 191.15382813 486.7278125 190.87890625 487.328125 C188.77985402 491.26470821 185.73685321 494.3368836 182.6875 497.5625 C182.04941406 498.23925781 181.41132813 498.91601562 180.75390625 499.61328125 C169.85884826 510.22000122 157.98427267 513.57310479 143.22070312 513.56835938 C142.319729 513.55571045 141.41875488 513.54306152 140.49047852 513.5300293 C137.75399549 513.50004378 135.02690906 513.55028616 132.29101562 513.60742188 C115.17755678 513.70358768 103.40153057 507.9521213 91.140625 496.2734375 C88.6875 493.5625 88.6875 493.5625 86.68359375 490.29296875 C84.96309462 487.39209886 84.96309462 487.39209886 82.20703125 486.71484375 C81.31371094 486.64394531 80.42039062 486.57304687 79.5 486.5 C71.669502 485.46499426 65.52351733 481.8513907 59.6875 476.5625 C59.3575 475.9025 59.0275 475.2425 58.6875 474.5625 C49.64143349 476.95560605 40.6344892 479.48684326 31.6965332 482.2565918 C30.05841868 482.75435237 28.41461537 483.23374349 26.76586914 483.69506836 C16.97245981 486.07718933 16.97245981 486.07718933 9.82568359 492.48852539 C8.74785083 495.62527504 8.74785083 495.62527504 8.28686523 498.72265625 C7.13947212 504.15910295 2.93647325 507.52023737 -1.03637695 511.12792969 C-5.69167922 514.06202344 -11.6539134 513.2035598 -17 513.25 C-18.24201172 513.30349609 -19.48402344 513.35699219 -20.76367188 513.41210938 C-27.29162615 513.47783864 -31.5021687 513.1507272 -36.55078125 508.78515625 C-40.1086516 505.17564281 -42.62519755 501.34319029 -44.3125 496.5625 C-44.52261719 495.97082031 -44.73273438 495.37914062 -44.94921875 494.76953125 C-45.3125 492.5625 -45.3125 492.5625 -44.98828125 489.27734375 C-44.22050956 481.37677024 -44.22050956 481.37677024 -47.69921875 474.37890625 C-50.69234401 471.49705322 -53.98102023 469.03848867 -57.3125 466.5625 C-58.70059134 465.3692285 -60.07774237 464.16296058 -61.4375 462.9375 C-62.06269531 462.39609375 -62.68789062 461.8546875 -63.33203125 461.296875 C-65.62383155 459.28985462 -67.87246752 457.23847149 -70.125 455.1875 C-78.88875152 446.53912326 -78.88875152 446.53912326 -89.3125 440.5625 C-91.2194862 441.1073749 -91.2194862 441.1073749 -93.25 442 C-101.89621509 445.02687595 -110.34852298 444.32516814 -118.76953125 440.8984375 C-122.90304962 438.72691172 -126.08921493 435.90828521 -129.3125 432.5625 C-130.42625 431.44875 -130.42625 431.44875 -131.5625 430.3125 C-136.65224893 422.31432311 -138.50518205 413.95640807 -137.3125 404.5625 C-135.54637398 396.74556352 -132.15336735 391.01478573 -126.3125 385.5625 C-125.38953125 385.05074219 -124.4665625 384.53898437 -123.515625 384.01171875 C-121.08566537 381.82732548 -121.08566537 381.82732548 -121.19506836 379.27758789 C-121.49738461 376.41812613 -121.96035527 373.63670342 -122.5 370.8125 C-122.66564453 369.82894531 -122.83128906 368.84539062 -123.00195312 367.83203125 C-123.41456204 365.40353308 -123.85205263 362.98230463 -124.3125 360.5625 C-125.2096875 360.44777344 -126.106875 360.33304687 -127.03125 360.21484375 C-132.99128602 359.02993183 -137.55682476 355.91803094 -141.1875 351.046875 C-146.15564781 342.87809351 -147.36598169 336.14229141 -146.3125 326.5625 C-142.65838902 315.8382199 -142.65838902 315.8382199 -138.20605469 313.41699219 C-137.58118164 313.13500977 -136.95630859 312.85302734 -136.3125 312.5625 C-136.49425781 311.97235107 -136.67601562 311.38220215 -136.86328125 310.77416992 C-137.68400996 308.10075138 -138.49832139 305.42542026 -139.3125 302.75 C-139.59867188 301.82123047 -139.88484375 300.89246094 -140.1796875 299.93554688 C-140.45039063 299.04287109 -140.72109375 298.15019531 -141 297.23046875 C-141.25136719 296.40828857 -141.50273437 295.5861084 -141.76171875 294.73901367 C-142.3125 292.5625 -142.3125 292.5625 -142.3125 289.5625 C-143.59125 289.500625 -144.87 289.43875 -146.1875 289.375 C-154.89291313 288.36369612 -161.69535859 284.07078417 -167.62109375 277.75 C-173.86307765 269.67722637 -175.15357692 260.49922304 -174.3125 250.5625 C-172.57809127 242.67407477 -169.08208321 237.12083988 -163.3125 231.5625 C-162.57 230.82 -161.8275 230.0775 -161.0625 229.3125 C-155.22532623 225.59793487 -148.31537465 222.80543247 -141.3125 223.5625 C-141.13074219 222.87285156 -140.94898438 222.18320313 -140.76171875 221.47265625 C-139.31371522 216.05935076 -137.76290887 210.7731311 -135.765625 205.53515625 C-134.99282892 202.17082849 -135.92269883 200.20146386 -137.6875 197.30859375 C-138.22375 196.54675781 -138.76 195.78492188 -139.3125 195 C-144.29471926 187.89794225 -144.26298521 179.98735023 -143.3125 171.5625 C-141.35341604 164.66617307 -137.42440247 159.3191414 -131.3125 155.5625 C-127.28932214 153.60442752 -123.28334967 151.76935191 -118.80493164 151.29931641 C-116.17342486 150.80893323 -116.17342486 150.80893323 -114.97875977 148.5847168 C-114.49620728 147.31108276 -114.49620728 147.31108276 -114.00390625 146.01171875 C-113.65005859 145.08552734 -113.29621094 144.15933594 -112.93164062 143.20507812 C-112.58294922 142.22990234 -112.23425781 141.25472656 -111.875 140.25 C-111.49923828 139.28642578 -111.12347656 138.32285156 -110.73632812 137.33007812 C-108.5853411 132.42074459 -108.5853411 132.42074459 -109.13867188 127.37866211 C-110.44953912 125.3504713 -111.83237226 123.39259984 -113.25 121.4375 C-118.4547263 113.68767527 -120.63771356 105.35421952 -118.84375 96.16015625 C-116.42712404 86.8245 -111.34592498 79.00562673 -103.3125 73.5625 C-96.08667906 69.61692326 -88.41433123 68.82596989 -80.3125 69.5625 C-78.44709475 70.21889434 -76.59232244 70.90636359 -74.75 71.625 C-72.0556774 72.57917293 -72.0556774 72.57917293 -69.3125 72.5625 C-65.31108394 70.19370919 -62.43910982 66.96668155 -59.3125 63.5625 C-57.99748233 62.3752269 -56.66529303 61.20654541 -55.3125 60.0625 C-49.6729132 55.14767938 -44.13173179 50.12249209 -38.59375 45.09375 C-37.27890625 43.90265625 -37.27890625 43.90265625 -35.9375 42.6875 C-35.14601562 41.96820313 -34.35453125 41.24890625 -33.5390625 40.5078125 C-31.3125 38.5625 -31.3125 38.5625 -29.02734375 37.31640625 C-26.90772985 35.52427328 -26.90772985 35.52427328 -27.02734375 31.83203125 C-27.08714428 30.34570399 -27.16209113 28.85992991 -27.25 27.375 C-27.50862553 18.08976024 -26.28366758 12.3244168 -20.0078125 5.10546875 C-13.88589659 -0.46632108 -7.89356654 0.01261625 0 0 Z M-4.75 20.125 C-6.75793026 23.25737121 -6.92225382 24.90397708 -6.3125 28.5625 C-4.89583333 31.14583333 -4.89583333 31.14583333 -2.3125 32.5625 C1.28780189 32.8934316 1.28780189 32.8934316 4.6875 31.5625 C7.02083333 28.97916667 7.02083333 28.97916667 7.6875 25.5625 C7.02083333 22.14583333 7.02083333 22.14583333 4.6875 19.5625 C0.73555601 18.26913651 -1.18960326 17.84269439 -4.75 20.125 Z M73.8125 44.875 C72.2997357 48.48882583 72.08354874 50.67036969 72.6875 54.5625 C74.80766933 57.83028393 77.16903395 60.80326697 80.6875 62.5625 C85.61306974 63.14688963 88.58294452 63.14819025 92.625 60.125 C95.85569864 56.99062953 96.80292941 54.20299662 96.953125 49.7421875 C96.51274201 46.12845647 95.13375806 44.19693175 92.6875 41.5625 C85.12934942 36.73814857 79.53608387 37.81591322 73.8125 44.875 Z M17.625 46.4375 C15.3418726 48.25173176 13.11959428 49.94110382 10.6875 51.5625 C10.00644753 54.83115592 10.17820128 58.16873291 10.1875 61.5 C10.15914062 62.41974609 10.13078125 63.33949219 10.1015625 64.28710938 C10.09419618 66.8119167 10.16672627 69.09170517 10.6875 71.5625 C12.75061743 73.94802841 12.75061743 73.94802841 15.6875 74.5625 C20.18300702 74.10637003 23.79730754 72.12754993 27.703125 70 C28.35955994 69.6486499 29.01599487 69.2972998 29.69232178 68.93530273 C31.07222444 68.19524596 32.4504753 67.45210191 33.82714844 66.70605469 C35.94119832 65.56049596 38.05991423 64.4239897 40.1796875 63.2890625 C41.52111148 62.5682257 42.862267 61.84688905 44.203125 61.125 C44.83849182 60.78331787 45.47385864 60.44163574 46.128479 60.08959961 C49.09324605 58.58942793 49.09324605 58.58942793 51.6875 56.5625 C51.72813832 54.89632885 51.730221 53.22861905 51.6875 51.5625 C47.44034696 50.21997832 43.18934488 48.89008026 38.9375 47.5625 C37.7309375 47.1809375 36.524375 46.799375 35.28125 46.40625 C33.54101562 45.86484375 33.54101562 45.86484375 31.765625 45.3125 C30.69731445 44.97734375 29.62900391 44.6421875 28.52832031 44.296875 C23.70232655 43.04931663 21.40548867 43.39271336 17.625 46.4375 Z M-12.3125 50.5625 C-13.158125 51.34753906 -14.00375 52.13257813 -14.875 52.94140625 C-20.31450114 57.98244445 -25.75602629 63.00836238 -31.36328125 67.86328125 C-34.51322499 70.60922419 -37.60875574 73.41519674 -40.7109375 76.21484375 C-44.22798096 79.38863222 -47.7550141 82.55127452 -51.28125 85.71484375 C-52.65538919 86.9647819 -53.9989925 88.2489925 -55.3125 89.5625 C-52.52569879 89.60920617 -49.74427369 89.6202007 -46.95703125 89.59375 C-44.43360051 89.57211287 -41.90952299 89.59600393 -39.38671875 89.65625 C-32.24164857 89.85077142 -32.24164857 89.85077142 -26.203125 86.66796875 C-24.71862446 84.36087125 -23.51295964 82.02660136 -22.3125 79.5625 C-18.47262371 75.13187352 -15.74025962 73.66407693 -10.3125 70.5625 C-10.3125 64.2925 -10.3125 58.0225 -10.3125 51.5625 C-10.9725 51.2325 -11.6325 50.9025 -12.3125 50.5625 Z M53.72265625 78.38671875 C52.59279297 79.00353516 51.46292969 79.62035156 50.29882812 80.25585938 C49.11583625 80.92048542 47.93289393 81.58519967 46.75 82.25 C45.57164878 82.89643295 44.39261767 83.5416282 43.21289062 84.18554688 C33.59324619 88.54949346 33.59324619 88.54949346 26.8828125 95.703125 C26.85960937 96.39921875 26.83640625 97.0953125 26.8125 97.8125 C26.77125 99.05 26.73 100.2875 26.6875 101.5625 C33.56134226 106.45973984 40.55468378 111.11454268 47.6875 115.625 C48.60789063 116.21087891 49.52828125 116.79675781 50.4765625 117.40039062 C56.49113552 121.21667957 62.56178203 124.92743119 68.6875 128.5625 C71.34029592 127.77825456 71.34029592 127.77825456 73.6875 125.5625 C74.43230049 122.26925617 74.26737595 119.00558326 74.17578125 115.64453125 C74.16516914 114.18595955 74.16516914 114.18595955 74.15434265 112.69792175 C74.12633408 109.58950138 74.06358275 106.48287666 74 103.375 C73.97492553 101.26890621 73.95211088 99.1627842 73.93164062 97.05664062 C73.87648599 91.89123429 73.79016795 86.72717165 73.6875 81.5625 C72.29672699 80.74136823 70.89961107 79.93097505 69.5 79.125 C68.33404297 78.44630859 68.33404297 78.44630859 67.14453125 77.75390625 C61.68278793 75.10552515 58.99594265 75.4729596 53.72265625 78.38671875 Z M-5.0625 91.1875 C-7.56187948 93.39588028 -7.56187948 93.39588028 -7.875 96.5625 C-7.49810655 99.60851142 -7.49810655 99.60851142 -5.75 102 C-3.29503455 103.87451155 -3.29503455 103.87451155 0.25 103.625 C3.75486246 102.85083299 3.75486246 102.85083299 5.75 100.375 C6.98056864 96.68329408 6.37563585 95.01550514 4.6875 91.5625 C0.83089177 88.99142785 -1.04821589 88.81542302 -5.0625 91.1875 Z M-95.3125 94.5625 C-97.69871552 98.02636124 -98.32399219 99.90744544 -98.25 104.125 C-97.05743581 108.49773535 -95.36379221 111.30414427 -91.453125 113.703125 C-87.70248864 115.20885493 -84.14158536 114.64092333 -80.3125 113.5625 C-77.60697612 111.36426185 -75.86471667 109.66693333 -74.3125 106.5625 C-73.96805453 101.30970662 -73.73508249 97.73615376 -77.3125 93.5625 C-84.09205555 89.19345309 -89.12631134 89.33860735 -95.3125 94.5625 Z M-34.1953125 109 C-35.36191406 109.09023437 -36.52851563 109.18046875 -37.73046875 109.2734375 C-38.95378906 109.36882812 -40.17710937 109.46421875 -41.4375 109.5625 C-43.28408203 109.70558594 -43.28408203 109.70558594 -45.16796875 109.8515625 C-48.21619944 110.08785945 -51.26437309 110.32486871 -54.3125 110.5625 C-54.57224609 111.16360596 -54.83199219 111.76471191 -55.09960938 112.3840332 C-55.44830078 113.18156006 -55.79699219 113.97908691 -56.15625 114.80078125 C-56.49849609 115.58751221 -56.84074219 116.37424316 -57.19335938 117.18481445 C-61.34508912 126.00542877 -67.1529933 130.25740707 -76.3125 133.5625 C-78.28571644 133.83824435 -80.26572649 134.0703428 -82.25 134.25 C-85.64897583 134.7383586 -86.86069468 134.9700383 -88.96875 137.734375 C-90.31190561 140.63362553 -91.33002481 143.5229674 -92.3125 146.5625 C-92.93125 148.06296875 -92.93125 148.06296875 -93.5625 149.59375 C-95.89885997 154.42967776 -95.89885997 154.42967776 -95.66015625 159.50390625 C-95.21542969 160.18324219 -94.77070312 160.86257812 -94.3125 161.5625 C-93.84972656 162.63628906 -93.38695313 163.71007812 -92.91015625 164.81640625 C-90.65195323 167.75795367 -90.65195323 167.75795367 -87.88232422 167.96435547 C-84.80982429 167.96487526 -81.81027704 167.77240035 -78.75 167.5 C-77.69619141 167.43361328 -76.64238281 167.36722656 -75.55664062 167.29882812 C-69.84348174 166.92316982 -69.84348174 166.92316982 -64.3125 165.5625 C-63.02405365 163.44218014 -63.02405365 163.44218014 -61.9375 160.875 C-57.44170759 151.53758499 -51.82049905 147.27416627 -42.3125 143.3125 C-39.70181267 142.65982817 -37.2923804 142.29589323 -34.625 142.015625 C-33.81675781 141.92958008 -33.00851563 141.84353516 -32.17578125 141.75488281 C-31.56089844 141.69139648 -30.94601563 141.62791016 -30.3125 141.5625 C-28.45232003 137.77983524 -26.68798792 133.95950871 -24.9375 130.125 C-24.41027344 129.05572266 -23.88304687 127.98644531 -23.33984375 126.88476562 C-20.5393962 120.98133268 -20.5393962 120.98133268 -21.29199219 114.76904297 C-22.80965958 112.41504397 -24.24567854 110.45200135 -26.3125 108.5625 C-28.95530377 108.5625 -31.56012851 108.79532552 -34.1953125 109 Z M8.3046875 122.58984375 C5.6875 123.5625 5.6875 123.5625 2.1953125 123.51953125 C-1.36527315 124.17908762 -1.36527315 124.17908762 -2.73095703 126.61889648 C-4.08402266 129.47418252 -5.22041581 132.34773535 -6.3125 135.3125 C-6.92158203 136.81683594 -6.92158203 136.81683594 -7.54296875 138.3515625 C-10.14588376 144.81312488 -10.14588376 144.81312488 -9.3125 151.5625 C-7.36641067 155.18256851 -7.36641067 155.18256851 -4.3125 157.5625 C-0.56908657 157.80362164 2.99306391 157.13049485 6.6875 156.5625 C15.49698866 155.83657845 15.49698866 155.83657845 19.25 158.125 C21.80840088 162.46315802 22.08826142 165.95945431 20.875 170.8125 C17.57879614 174.95629914 13.72009184 175.47065895 8.6875 176.5625 C7.8109375 176.76746094 6.934375 176.97242188 6.03125 177.18359375 C3.92208841 177.66749949 1.80540535 178.11842307 -0.3125 178.5625 C-0.47105469 179.1915625 -0.62960938 179.820625 -0.79296875 180.46875 C-2.27751469 185.91481907 -4.01138568 190.15786292 -7.421875 194.67578125 C-8.67676042 197.33415695 -8.06331426 198.74157995 -7.3125 201.5625 C-6.46509488 203.4308095 -5.55157813 205.26992121 -4.58984375 207.08203125 C-4.05166016 208.10361328 -3.51347656 209.12519531 -2.95898438 210.17773438 C-2.39501953 211.23283203 -1.83105469 212.28792969 -1.25 213.375 C-0.68216797 214.44943359 -0.11433594 215.52386719 0.47070312 216.63085938 C1.87064418 219.27780675 3.27640112 221.92148899 4.6875 224.5625 C12.15402699 225.38273825 12.15402699 225.38273825 18.60546875 222.23828125 C19.39783518 221.14223625 20.15254558 220.01833671 20.875 218.875 C21.78665159 217.58515308 22.69948877 216.29614359 23.61328125 215.0078125 C24.09877441 214.29786133 24.58426758 213.58791016 25.08447266 212.85644531 C28.09719773 208.54521096 31.35513826 204.41713757 34.5625 200.25 C35.92959391 198.45274152 37.29548184 196.65456506 38.66015625 194.85546875 C41.2606923 191.43246083 43.87178896 188.01809934 46.49609375 184.61328125 C47.0885791 183.84346924 47.68106445 183.07365723 48.29150391 182.28051758 C49.39714844 180.84513882 50.50476763 179.41127802 51.61474609 177.97924805 C54.20407373 174.61329086 56.59731229 171.27204815 58.6875 167.5625 C57.73488281 167.65789062 56.78226562 167.75328125 55.80078125 167.8515625 C54.54652344 167.96242187 53.29226562 168.07328125 52 168.1875 C50.75863281 168.30351562 49.51726562 168.41953125 48.23828125 168.5390625 C44.70679052 168.56237267 42.74592125 168.27080737 39.6875 166.5625 C37.67278403 163.54042605 37.35030966 162.64523301 37.25 159.1875 C37.19005859 158.06214844 37.19005859 158.06214844 37.12890625 156.9140625 C37.99123606 153.2838349 39.79971257 151.85347803 42.6875 149.5625 C46.23828125 148.41796875 46.23828125 148.41796875 50 147.75 C51.25425781 147.51667969 52.50851563 147.28335938 53.80078125 147.04296875 C54.75339844 146.88441406 55.70601563 146.72585937 56.6875 146.5625 C52.18169257 142.76330595 47.31966199 139.6236218 42.375 136.4375 C41.0605188 135.587323 41.0605188 135.587323 39.71948242 134.7199707 C34.00062737 131.03013622 28.26335191 127.36994559 22.5 123.75 C21.82348389 123.32380371 21.14696777 122.89760742 20.44995117 122.45849609 C14.8093422 118.93892123 14.10074595 119.79209235 8.3046875 122.58984375 Z M79.3125 146.125 C77.35814676 148.56827813 77.35814676 148.56827813 77.6875 152.125 C78.42455196 155.52524624 78.42455196 155.52524624 80.375 157.5625 C83.58720645 158.95156225 85.3811636 158.61771374 88.6875 157.5625 C90.7660608 155.98554368 90.7660608 155.98554368 91.6875 153.5625 C91.61607348 150.06260028 91.34771066 148.26986857 88.9375 145.6875 C85.13248569 143.78499284 82.88932722 143.7718242 79.3125 146.125 Z M-43.6875 168.3125 C-44.91551473 172.73335304 -45.39205108 176.49071446 -43.25 180.6015625 C-40.71812904 183.94528339 -38.50510621 185.9376685 -34.3125 186.6875 C-30.32206528 186.84772778 -27.64663692 185.81110397 -24.3125 183.5625 C-20.98108847 180.34596473 -20.46962988 177.11926646 -20.3125 172.5625 C-21.60910174 168.67269479 -22.95723677 166.86931824 -26.0625 164.1875 C-32.97147757 160.73301121 -38.87960109 162.19335594 -43.6875 168.3125 Z M-122.3125 176.5625 C-122.92225382 180.22102292 -122.75793026 181.86762879 -120.75 185 C-118.28626884 186.89691535 -118.28626884 186.89691535 -114.6875 186.5 C-111.05733076 185.8874155 -111.05733076 185.8874155 -109.3125 182.5625 C-108.84600302 178.90827364 -108.84253702 177.22392938 -111 174.1875 C-113.19825314 172.41057743 -113.19825314 172.41057743 -115.8125 172.0625 C-119.18263879 172.73652776 -120.32927007 173.7712875 -122.3125 176.5625 Z M72.6875 183.5625 C71.46422538 185.09715361 70.28729509 186.66866113 69.125 188.25 C68.30690144 189.35484245 67.4878106 190.45895053 66.66796875 191.5625 C65.96873291 192.50416016 65.96873291 192.50416016 65.25537109 193.46484375 C62.17824363 197.58173555 59.05486772 201.66355043 55.9375 205.75 C55.25333008 206.64807373 54.56916016 207.54614746 53.86425781 208.47143555 C50.54324841 212.828603 47.21532119 217.18015391 43.87109375 221.51953125 C43.27973633 222.28821533 42.68837891 223.05689941 42.07910156 223.84887695 C40.97526067 225.2827631 39.86927489 226.71500165 38.76074219 228.14526367 C36.1711441 231.51131942 33.77780548 234.85274284 31.6875 238.5625 C32.3475 239.5525 33.0075 240.5425 33.6875 241.5625 C35.81444665 241.97777124 35.81444665 241.97777124 38.2578125 241.85546875 C39.60166016 241.8409668 39.60166016 241.8409668 40.97265625 241.82617188 C42.37837891 241.7884668 42.37837891 241.7884668 43.8125 241.75 C44.75738281 241.73646484 45.70226562 241.72292969 46.67578125 241.70898438 C49.01358779 241.67356306 51.35026237 241.62417271 53.6875 241.5625 C54.08146973 240.75171997 54.08146973 240.75171997 54.48339844 239.92456055 C54.8343457 239.21082275 55.18529297 238.49708496 55.546875 237.76171875 C56.06459473 236.70343872 56.06459473 236.70343872 56.59277344 235.6237793 C60.31249232 228.61985723 66.24850097 224.04216634 73.6875 221.5625 C73.6875 209.0225 73.6875 196.4825 73.6875 183.5625 C73.3575 183.5625 73.0275 183.5625 72.6875 183.5625 Z M-75.1875 187 C-76.22970703 187.05897461 -76.22970703 187.05897461 -77.29296875 187.11914062 C-79.30115639 187.2420523 -81.30699355 187.40166235 -83.3125 187.5625 C-84.41207031 187.64242187 -85.51164062 187.72234375 -86.64453125 187.8046875 C-89.45040382 188.31374996 -89.45040382 188.31374996 -90.89453125 190.63671875 C-91.30058594 191.49910156 -91.70664063 192.36148438 -92.125 193.25 C-95.17008415 198.78651663 -98.56973871 201.92903375 -104.3125 204.5625 C-105.09657227 204.71356201 -105.88064453 204.86462402 -106.68847656 205.02026367 C-112.02288762 206.07202065 -112.02288762 206.07202065 -115.80761719 209.7043457 C-116.94583523 212.44135468 -117.78903731 215.13895766 -118.5625 218 C-119.02076172 219.43182617 -119.02076172 219.43182617 -119.48828125 220.89257812 C-121.20629194 225.81579661 -121.20629194 225.81579661 -120.46386719 230.75610352 C-119.22316758 232.70265492 -117.86483882 234.35492729 -116.3125 236.0625 C-114.15430966 238.43650937 -112.64635117 240.63828781 -111.3125 243.5625 C-107.77774856 244.26660542 -104.81791574 244.49796285 -101.3125 243.5625 C-99.07607021 240.99016376 -97.59605907 238.32214544 -95.9609375 235.3359375 C-93.13276676 230.57764076 -89.52949427 228.54783079 -84.5 226.3125 C-81.3125 225.5625 -81.3125 225.5625 -79.04223633 225.65063477 C-76.17455448 225.6969817 -74.03302019 225.5006467 -71.3125 224.5625 C-68.36410396 221.34778504 -66.65383115 217.67767814 -64.8125 213.75 C-64.04679687 212.2330957 -64.04679687 212.2330957 -63.265625 210.68554688 C-61.91312066 207.99299547 -60.60749446 205.28301528 -59.3125 202.5625 C-58.92682861 201.83683838 -58.54115723 201.11117676 -58.14379883 200.36352539 C-57.13482535 198.58859243 -57.13482535 198.58859243 -57.54296875 196.578125 C-58.3967252 194.34188982 -59.39582146 192.36747341 -60.625 190.3125 C-61.03363281 189.60609375 -61.44226563 188.8996875 -61.86328125 188.171875 C-62.34152344 187.64078125 -62.81976563 187.1096875 -63.3125 186.5625 C-67.28661665 186.5625 -71.22342844 186.75633689 -75.1875 187 Z M-38.3125 206.5625 C-40.34029606 210.18353721 -42.35186952 213.81305932 -44.34887695 217.45117188 C-45.03035279 218.68732981 -45.71620028 219.92108824 -46.40649414 221.15234375 C-47.39850775 222.92354155 -48.37443324 224.70279902 -49.34765625 226.484375 C-49.9394165 227.55268555 -50.53117676 228.62099609 -51.14086914 229.72167969 C-52.47557274 232.37044806 -52.47557274 232.37044806 -52.18530273 234.62988281 C-51.89727783 235.26764648 -51.60925293 235.90541016 -51.3125 236.5625 C-50.74680298 237.90211792 -50.74680298 237.90211792 -50.16967773 239.26879883 C-48.46762557 241.85930113 -48.46762557 241.85930113 -45.28149414 242.2253418 C-44.06582764 242.23734619 -42.85016113 242.24935059 -41.59765625 242.26171875 C-40.94550644 242.26887405 -40.29335663 242.27602936 -39.6214447 242.28340149 C-38.24381884 242.29117608 -36.86606973 242.28617075 -35.48852539 242.26928711 C-33.38385494 242.25008081 -31.28581242 242.28939298 -29.18164062 242.33398438 C-27.84114191 242.33427481 -26.50063716 242.33113287 -25.16015625 242.32421875 C-23.94336182 242.32381592 -22.72656738 242.32341309 -21.47290039 242.32299805 C-18.05245293 241.83001906 -18.05245293 241.83001906 -15.88818359 238.68798828 C-13.93495747 234.81361568 -13.96854696 233.66378842 -15.3125 229.5625 C-16.81862767 226.25341659 -18.50932193 223.06583624 -20.25 219.875 C-20.70568359 219.02099609 -21.16136719 218.16699219 -21.63085938 217.28710938 C-23.42261361 213.9475733 -25.20852562 210.71846157 -27.3125 207.5625 C-29.9681728 206.97901248 -29.9681728 206.97901248 -32.9375 206.875 C-33.94039062 206.80925781 -34.94328125 206.74351562 -35.9765625 206.67578125 C-36.74742187 206.63839844 -37.51828125 206.60101563 -38.3125 206.5625 Z M73.3125 246.375 C71.97419085 251.05908201 72.12965303 254.44680606 74.3125 258.8125 C76.99431824 261.91776323 78.79769479 263.26589826 82.6875 264.5625 C87.96582389 264.46989783 90.99982358 263.3555386 94.6875 259.5625 C96.86491218 255.99946188 97.08789698 252.69560124 96.4140625 248.56640625 C95.00489962 244.67984412 92.27971905 242.45532311 88.6875 240.5625 C82.43201034 238.99862758 77.16836507 241.29226876 73.3125 246.375 Z M-152.3125 250.5625 C-153.55282748 254.75449287 -153.81200912 258.41362902 -152.0625 262.4375 C-148.40945532 266.91361534 -148.40945532 266.91361534 -143 268.5 C-139.43338938 268.78416898 -138.30317951 268.55801236 -134.9375 266.9375 C-131.37737124 263.71643112 -129.58870178 261.41699767 -128.875 256.625 C-129.5767674 251.71262822 -131.83538702 248.72864182 -135.6875 245.6875 C-142.40309433 242.80938815 -147.7754551 245.19596767 -152.3125 250.5625 Z M-79.75 247.125 C-81.62451155 249.57996545 -81.62451155 249.57996545 -81.375 253.125 C-80.60083299 256.62986246 -80.60083299 256.62986246 -78.125 258.625 C-74.43329408 259.85556864 -72.76550514 259.25063585 -69.3125 257.5625 C-66.99712405 254.74541805 -66.99712405 254.74541805 -67.5 251.5625 C-68.4769978 247.85637071 -68.4769978 247.85637071 -71.3125 245.5625 C-74.92831862 245.02397382 -76.65361489 245.14013775 -79.75 247.125 Z M2.25 247.125 C0.37548845 249.57996545 0.37548845 249.57996545 0.625 253.125 C1.39916701 256.62986246 1.39916701 256.62986246 3.875 258.625 C7.56670592 259.85556864 9.23449486 259.25063585 12.6875 257.5625 C15.00287595 254.74541805 15.00287595 254.74541805 14.5 251.5625 C13.5230022 247.85637071 13.5230022 247.85637071 10.6875 245.5625 C7.07168138 245.02397382 5.34638511 245.14013775 2.25 247.125 Z M-50.80297852 265.29760742 C-52.50432229 268.34401817 -52.50432229 268.34401817 -52.24633789 271.07885742 C-51.15907803 273.97054228 -49.8623295 276.59339207 -48.37109375 279.30078125 C-47.78779297 280.36748047 -47.20449219 281.43417969 -46.60351562 282.53320312 C-45.99185547 283.63599609 -45.38019531 284.73878906 -44.75 285.875 C-44.13447266 286.99712891 -43.51894531 288.11925781 -42.88476562 289.27539062 C-41.36657906 292.04107933 -39.84232295 294.80323609 -38.3125 297.5625 C-34.6825 297.5625 -31.0525 297.5625 -27.3125 297.5625 C-25.42451275 294.10328653 -23.55553626 290.63453651 -21.70336914 287.15600586 C-20.76066314 285.39491999 -19.80325564 283.64172955 -18.84570312 281.88867188 C-17.96108398 280.22094727 -17.96108398 280.22094727 -17.05859375 278.51953125 C-16.50872803 277.49835205 -15.9588623 276.47717285 -15.39233398 275.42504883 C-13.77145166 271.12822648 -14.75672073 268.90902696 -16.45532227 264.79370117 C-18.17065468 262.26842423 -18.17065468 262.26842423 -21.34350586 261.8996582 C-22.55917236 261.88765381 -23.77483887 261.87564941 -25.02734375 261.86328125 C-26.00556847 261.85254829 -26.00556847 261.85254829 -27.0035553 261.84159851 C-28.38118116 261.83382392 -29.75893027 261.83882925 -31.13647461 261.85571289 C-33.24114506 261.87491919 -35.33918758 261.83560702 -37.44335938 261.79101562 C-38.78385809 261.79072519 -40.12436284 261.79386713 -41.46484375 261.80078125 C-42.68163818 261.80118408 -43.89843262 261.80158691 -45.15209961 261.80200195 C-48.5471505 262.30615352 -48.5471505 262.30615352 -50.80297852 265.29760742 Z M33.6875 262.5625 C33.0275 263.8825 32.3675 265.2025 31.6875 266.5625 C32.46996094 267.56410156 33.25242188 268.56570313 34.05859375 269.59765625 C35.08144346 270.93956 36.10353928 272.28203864 37.125 273.625 C37.64126953 274.28177734 38.15753906 274.93855469 38.68945312 275.61523438 C41.90474141 279.88127046 43.56681958 283.04472307 43.6875 288.5625 C41.51508621 294.1487069 41.51508621 294.1487069 38.6875 295.5625 C35.19894493 296.24983613 32.165111 296.35170894 28.6875 295.5625 C24.78417859 292.52208902 21.86738685 288.68402732 19.46875 284.37109375 C17.86296785 281.53230031 16.37652837 279.81387191 13.2890625 278.6875 C9.56956786 278.35409992 7.94672829 278.66092088 4.6875 280.5625 C0.79168548 285.58468708 -1.76399399 291.5275826 -4.296875 297.32177734 C-5.3125 299.5625 -5.3125 299.5625 -7.21875 302.86328125 C-8.59775694 305.50055005 -8.59775694 305.50055005 -7.66015625 308.125 C-7.21542969 308.929375 -6.77070313 309.73375 -6.3125 310.5625 C-5.89871094 311.3875 -5.48492187 312.2125 -5.05859375 313.0625 C-4.1856372 314.73023788 -3.31063326 316.39690567 -2.43359375 318.0625 C-1.30374644 320.58202012 -0.80857096 322.85819495 -0.3125 325.5625 C9.88923075 328.00599323 20.14470712 330.1410168 30.4284668 332.20678711 C33.14550836 332.75413138 35.86080122 333.30966793 38.57617188 333.86523438 C40.32021094 334.21665023 42.06434816 334.56757941 43.80859375 334.91796875 C44.6117955 335.08354782 45.41499725 335.24912689 46.24253845 335.41972351 C50.46207181 336.25695141 54.35962529 336.74443063 58.6875 336.5625 C58.32398438 336.0778125 57.96046875 335.593125 57.5859375 335.09375 C56.52890596 333.68437462 55.47299442 332.27415881 54.41796875 330.86328125 C53.28308089 329.35436715 52.14009495 327.85150264 50.98828125 326.35546875 C50.45589844 325.66066406 49.92351562 324.96585937 49.375 324.25 C48.88386719 323.61449219 48.39273438 322.97898437 47.88671875 322.32421875 C45.31763813 318.55009706 45.30535796 314.99534768 45.6875 310.5625 C47.25 307.6875 47.25 307.6875 49.6875 305.5625 C54.4248565 304.27049368 57.36258749 304.29801004 61.6875 306.5625 C64.0390625 309.05859375 64.0390625 309.05859375 66.3125 312 C68.66485249 315.0147043 70.95129277 317.89408828 73.6875 320.5625 C73.96064003 315.42173718 74.1595199 310.2852354 74.29174805 305.13891602 C74.34687758 303.39142283 74.42181329 301.64443291 74.51733398 299.89868164 C75.05924195 291.64491394 75.05924195 291.64491394 73.6875 283.5625 C70.45491707 279.99223413 67.02365942 278.48437043 62.6875 276.5625 C57.9349182 272.30735471 56.28522389 268.62385573 53.6875 262.5625 C47.0875 262.5625 40.4875 262.5625 33.6875 262.5625 Z M-109.3125 264.5625 C-109.66441406 265.34753906 -110.01632813 266.13257813 -110.37890625 266.94140625 C-114.8967693 276.55513572 -114.8967693 276.55513572 -119.375 280.0625 C-121.21863576 281.57573251 -121.21863576 281.57573251 -122.3125 283.5625 C-122.12310353 287.84530399 -120.70763528 291.5406265 -119.3125 295.5625 C-119.07853516 296.97595703 -119.07853516 296.97595703 -118.83984375 298.41796875 C-118.34487028 301.23391028 -117.87588069 303.16012028 -116.3125 305.5625 C-113.36616878 307.0246554 -110.50975046 307.82613334 -107.328125 308.6484375 C-103.02300285 309.95335794 -100.2060612 312.17160797 -97.3125 315.5625 C-96.82394531 316.60664063 -96.33539063 317.65078125 -95.83203125 318.7265625 C-93.66263754 321.72896018 -93.66263754 321.72896018 -90.95068359 322.07763672 C-87.94649903 322.22828904 -85.00542875 322.18264206 -82 322.0625 C-80.97970703 322.0521875 -79.95941406 322.041875 -78.90820312 322.03125 C-73.43426581 321.91802053 -68.37323036 321.74766304 -63.3125 319.5625 C-61.46426078 317.37781491 -61.46426078 317.37781491 -60.4375 314.6875 C-60.04820313 313.82382812 -59.65890625 312.96015625 -59.2578125 312.0703125 C-58.94585937 311.24273437 -58.63390625 310.41515625 -58.3125 309.5625 C-58.07644043 308.96566406 -57.84038086 308.36882812 -57.59716797 307.75390625 C-56.94836542 302.75935078 -61.0078305 297.69342316 -63.3125 293.4375 C-63.87839844 292.32761719 -64.44429687 291.21773438 -65.02734375 290.07421875 C-68.26326774 283.75976788 -68.26326774 283.75976788 -73.94140625 279.8984375 C-75.61009766 279.73214844 -75.61009766 279.73214844 -77.3125 279.5625 C-84.36714979 277.81745842 -90.03459054 275.75327416 -95.3125 270.5625 C-96.240625 268.891875 -96.240625 268.891875 -97.1875 267.1875 C-99.01708634 264.32482248 -99.01708634 264.32482248 -101.7734375 264.1875 C-104.31386405 264.1875 -106.78635667 264.30217225 -109.3125 264.5625 Z M-42.1875 322.0625 C-44.84460496 325.60530661 -44.67166903 329.32430546 -44.3125 333.5625 C-42.28583762 337.26640021 -40.83205484 339.21613011 -37.3125 341.5625 C-33.57773324 342.23831494 -29.89485611 342.37036958 -26.4609375 340.6171875 C-23.21905364 338.07797797 -21.17341254 335.58009186 -20.3125 331.5625 C-20.24736642 327.98015298 -20.42611048 325.62474159 -22.76953125 322.81640625 C-29.36199516 316.82717433 -34.81243347 316.16244678 -42.1875 322.0625 Z M-123.625 328.1875 C-125.81447249 331.2689798 -125.93043165 332.85491009 -125.3125 336.5625 C-123.89583333 339.14583333 -123.89583333 339.14583333 -121.3125 340.5625 C-117.71778996 340.81088381 -117.71778996 340.81088381 -114.3125 339.5625 C-112.06949365 337.49086371 -112.06949365 337.49086371 -111.3125 334.5625 C-111.80012261 331.34933477 -111.80012261 331.34933477 -113.3125 328.5625 C-117.27200004 325.92283331 -119.62339353 325.37556032 -123.625 328.1875 Z M-72.85595703 341.49511719 C-84.57433254 340.63314526 -84.57433254 340.63314526 -94.90625 344.71484375 C-96.32379159 347.28225284 -97.29347404 349.81999101 -98.3125 352.5625 C-99.7665625 353.5525 -99.7665625 353.5525 -101.25 354.5625 C-103.52434833 356.32547391 -103.52434833 356.32547391 -103.46875 358.62890625 C-103.28222648 361.15844962 -103.28222648 361.15844962 -102.79296875 363.765625 C-102.3125 366.5625 -102.3125 366.5625 -102.23828125 369.484375 C-102.04733353 372.62440412 -101.76035089 374.75814527 -100.3125 377.5625 C-97.19612253 379.3163055 -94.12905218 380.28728667 -90.71484375 381.33984375 C-83.59806776 383.89730745 -79.2407566 388.71271788 -75.6875 395.21582031 C-75.24148437 396.02899719 -74.79546875 396.84217407 -74.3359375 397.67999268 C-73.99820313 398.30122009 -73.66046875 398.92244751 -73.3125 399.5625 C-66.95835737 399.49559132 -60.6048345 399.40582165 -54.2512207 399.30004883 C-52.08918625 399.26676678 -49.92706423 399.23874515 -47.76489258 399.21606445 C-44.65928782 399.18257892 -41.55448802 399.130266 -38.44921875 399.07421875 C-37.48038254 399.06782883 -36.51154633 399.0614389 -35.51335144 399.05485535 C-34.16229057 399.02516411 -34.16229057 399.02516411 -32.78393555 398.99487305 C-31.59479805 398.97821846 -31.59479805 398.97821846 -30.38163757 398.96122742 C-26.63291765 398.23884074 -25.31607287 395.56754405 -23.1875 392.5625 C-21.21962146 389.67493192 -21.21962146 389.67493192 -20.3125 386.5625 C-22.21172024 378.36917627 -25.57328244 369.52604377 -30.3125 362.5625 C-34.2229562 360.49382863 -36.53084779 360.41625945 -40.90625 360.53515625 C-47.16266028 360.58537973 -51.73745517 356.99539798 -56.15234375 352.82421875 C-59.26412041 349.39289534 -61.44224344 345.82252884 -63.3125 341.5625 C-64.70275391 341.56636719 -64.70275391 341.56636719 -66.12109375 341.5703125 C-68.36836924 341.57596602 -70.60929147 341.55463722 -72.85595703 341.49511719 Z M-4.3125 346.5625 C-5.80793017 348.00831125 -5.80793017 348.00831125 -6.9375 349.9375 C-8.32230565 352.08086161 -9.49371532 353.74371532 -11.3125 355.5625 C-9.97316082 359.5306294 -8.52880243 363.45219396 -7.0625 367.375 C-6.68609375 368.49455078 -6.3096875 369.61410156 -5.921875 370.76757812 C-3.60781352 377.03414427 -3.60781352 377.03414427 1.51367188 380.92333984 C4.56949164 381.67406613 7.5728406 382.13472987 10.6875 382.5625 C11.7703125 383.0471875 12.853125 383.531875 13.96875 384.03125 C16.91477086 384.89008301 16.91477086 384.89008301 20.21875 382.84375 C21.55549322 381.93671661 22.87762521 381.00792056 24.1875 380.0625 C25.67437195 379.04091455 27.16273508 378.02149705 28.65234375 377.00390625 C29.45140137 376.45105957 30.25045898 375.89821289 31.07373047 375.32861328 C33.90861084 373.41309632 36.78901894 371.5888513 39.69140625 369.77734375 C40.696875 369.14957031 41.70234375 368.52179688 42.73828125 367.875 C44.73239307 366.6335296 46.72846461 365.39520101 48.7265625 364.16015625 C49.63277344 363.59039062 50.53898437 363.020625 51.47265625 362.43359375 C52.69287476 361.67453735 52.69287476 361.67453735 53.93774414 360.90014648 C54.51516357 360.45872314 55.09258301 360.0172998 55.6875 359.5625 C55.6875 358.9025 55.6875 358.2425 55.6875 357.5625 C48.45597223 356.12380636 41.22364361 354.68921402 33.99026871 353.25983429 C30.63145591 352.59596933 27.27293381 351.93070141 23.91503906 351.26220703 C20.05356093 350.49352285 16.19088319 349.7309768 12.328125 348.96875 C11.1238385 348.72813843 9.919552 348.48752686 8.67877197 348.23962402 C7.55791199 348.01939575 6.437052 347.79916748 5.28222656 347.57226562 C3.80329926 347.2791449 3.80329926 347.2791449 2.29449463 346.98010254 C-0.53073642 346.45705399 -0.53073642 346.45705399 -4.3125 346.5625 Z M78.6875 348.5625 C77.43911619 351.96778996 77.43911619 351.96778996 77.6875 355.5625 C79.10416667 358.14583333 79.10416667 358.14583333 81.6875 359.5625 C84.6875 360.3125 84.6875 360.3125 87.6875 359.5625 C90.27871904 357.5526643 90.27871904 357.5526643 91.6875 354.5625 C91.94079784 351.41539698 91.94079784 351.41539698 90.6875 348.5625 C85.95428407 344.92156467 83.39559334 344.82016939 78.6875 348.5625 Z M59.4375 381.125 C57.9232247 382.12246812 56.40889883 383.11985949 54.89453125 384.1171875 C54.07033691 384.66342773 53.24614258 385.20966797 52.39697266 385.77246094 C48.36786329 388.43433063 44.31941686 391.06630096 40.27246094 393.70092773 C35.74147762 396.65070612 31.21454711 399.60668573 26.6875 402.5625 C26.53753443 408.23513258 26.53753443 408.23513258 29.01431274 413.11376953 C30.88142689 414.45523838 32.76654364 415.55336254 34.80078125 416.625 C35.52557175 417.028396 36.25036224 417.43179199 36.99711609 417.84741211 C38.53235072 418.68726748 40.07706019 419.5100031 41.63012695 420.31640625 C43.99066596 421.5575921 46.28848726 422.88160513 48.59570312 424.21875 C54.15945019 427.28567348 58.98876078 429.76193237 65.44384766 429.28491211 C69.59262011 427.62644599 71.24734611 426.32883065 73.6875 422.5625 C75.57927197 415.27088858 74.80898005 407.5668668 74.4375 400.125 C74.37727211 398.03726185 74.32252526 395.94935791 74.2734375 393.86132812 C74.14152055 388.75761665 73.93471933 383.66187418 73.6875 378.5625 C67.657449 375.23557531 64.73874494 377.57425304 59.4375 381.125 Z M-115.3125 404.5625 C-116.55282748 408.75449287 -116.81200912 412.41362902 -115.0625 416.4375 C-111.40945532 420.91361534 -111.40945532 420.91361534 -106 422.5 C-102.43338938 422.78416898 -101.30317951 422.55801236 -97.9375 420.9375 C-94.37737124 417.71643112 -92.58870178 415.41699767 -91.875 410.625 C-92.5767674 405.71262822 -94.83538702 402.72864182 -98.6875 399.6875 C-105.40309433 396.80938815 -110.7754551 399.19596767 -115.3125 404.5625 Z M-5 402.1875 C-7.56557173 404.38396475 -7.56557173 404.38396475 -7.875 407.5625 C-7.49810655 410.60851142 -7.49810655 410.60851142 -5.75 413 C-3.29503455 414.87451155 -3.29503455 414.87451155 0.25 414.625 C3.75486246 413.85083299 3.75486246 413.85083299 5.75 411.375 C6.94396016 408.53731195 6.94396016 408.53731195 6.125 405.375 C4.93659553 402.51458304 4.93659553 402.51458304 2.75 401.1875 C-0.60276821 400.17150963 -1.9829282 400.36322403 -5 402.1875 Z M-46.09277344 418.93481445 C-47.81896856 418.97818048 -49.54520705 419.01985433 -51.27148438 419.05981445 C-53.77225434 419.11784416 -56.27283204 419.18140211 -58.7734375 419.24609375 C-59.5392514 419.26280624 -60.30506531 419.27951874 -61.09408569 419.29673767 C-65.25534655 419.41083834 -69.21225408 419.76412505 -73.3125 420.5625 C-72.80880706 424.42850683 -72.17228751 426.18846948 -69.125 428.625 C-68.0421875 429.51832031 -68.0421875 429.51832031 -66.9375 430.4296875 C-66.07125 431.13351562 -65.205 431.83734375 -64.3125 432.5625 C-62.07252445 434.44572818 -59.84830729 436.34714194 -57.625 438.25 C-57.0271167 438.75942139 -56.4292334 439.26884277 -55.81323242 439.79370117 C-51.59116446 443.4094831 -47.49659909 447.14054733 -43.4375 450.9375 C-41.40231873 452.81979241 -39.35879605 454.69222942 -37.3125 456.5625 C-36.5390625 457.2740625 -35.765625 457.985625 -34.96875 458.71875 C-34.2984375 459.2859375 -33.628125 459.853125 -32.9375 460.4375 C-32.39351562 460.90929687 -31.84953125 461.38109375 -31.2890625 461.8671875 C-28.044419 463.00858383 -25.45297442 461.64929902 -22.3125 460.5625 C-21.3073379 456.12615291 -20.30925269 451.68824342 -19.3125 447.25 C-19.02632812 445.98736328 -18.74015625 444.72472656 -18.4453125 443.42382812 C-18.17460937 442.21533203 -17.90390625 441.00683594 -17.625 439.76171875 C-17.24794922 438.08855591 -17.24794922 438.08855591 -16.86328125 436.3815918 C-16.216625 433.55051018 -16.216625 433.55051018 -16.3125 430.5625 C-17.76705492 429.37240961 -19.22536709 428.1862973 -20.7109375 427.03515625 C-23.35134411 424.60727017 -24.69292894 421.73935093 -26.3125 418.5625 C-32.90776508 418.5625 -39.49996379 418.76629813 -46.09277344 418.93481445 Z M16.6875 429.5625 C14.92388605 430.50962601 13.16341254 431.46798266 11.46484375 432.52734375 C9.6875 433.5625 9.6875 433.5625 6.875 434.4375 C4.44588797 435.38574027 4.44588797 435.38574027 3.6875 438.03515625 C2.45867621 442.36964016 1.44353762 446.72068904 0.5 451.125 C0.30986328 451.96224609 0.11972656 452.79949219 -0.07617188 453.66210938 C-1.49515746 459.6679839 -1.49515746 459.6679839 -0.3125 465.5625 C1.53840422 468.08679649 1.53840422 468.08679649 4.6875 469.5625 C8.2928137 469.18761896 11.55543854 467.93880177 14.94921875 466.70703125 C15.93622269 466.37080246 16.92322662 466.03457367 17.94013977 465.68815613 C21.09383674 464.60740331 24.23386459 463.49167208 27.375 462.375 C29.5024635 461.64028164 31.63071175 460.90783137 33.75976562 460.17773438 C42.88013769 457.25563405 42.88013769 457.25563405 51.6875 453.5625 C51.6875 451.5825 51.6875 449.6025 51.6875 447.5625 C47.18671634 445.15678418 42.6843267 442.7541118 38.18041992 440.35424805 C36.64839849 439.53737545 35.11681963 438.71967227 33.58569336 437.90112305 C31.38511056 436.72486339 29.18295466 435.55159769 26.98046875 434.37890625 C26.29599167 434.01221329 25.61151459 433.64552032 24.90629578 433.26771545 C22.18949095 431.82422265 19.61233676 430.53744559 16.6875 429.5625 Z M73.8125 447.875 C72.2997357 451.48882583 72.08354874 453.67036969 72.6875 457.5625 C74.80766933 460.83028393 77.16903395 463.80326697 80.6875 465.5625 C85.61306974 466.14688963 88.58294452 466.14819025 92.625 463.125 C95.85569864 459.99062953 96.80292941 457.20299662 96.953125 452.7421875 C96.51274201 449.12845647 95.13375806 447.19693175 92.6875 444.5625 C85.12934942 439.73814857 79.53608387 440.81591322 73.8125 447.875 Z M-22.125 482.6875 C-24.61589948 485.37509963 -24.61589948 485.37509963 -24.375 488.6875 C-23.49956667 491.57895649 -23.49956667 491.57895649 -21.625 493.5 C-18.41306066 494.97575591 -16.64775198 494.62694212 -13.3125 493.5625 C-11.2339392 491.98554368 -11.2339392 491.98554368 -10.3125 489.5625 C-10.38472995 486.02323241 -10.64055009 484.2576206 -13.125 481.6875 C-16.91505582 479.73832844 -18.80154611 480.17644595 -22.125 482.6875 Z " fill="#000000" transform="translate(177.3125,-0.5625)"/>
<path d="M0 0 C1.13888672 -0.05607422 1.13888672 -0.05607422 2.30078125 -0.11328125 C5.67735103 0.48908553 7.23950084 1.94411056 9.6875 4.3125 C17.42833943 16.15562761 19.24150607 28.44182955 18.6875 42.3125 C19.57050781 42.5909375 20.45351563 42.869375 21.36328125 43.15625 C38.27899279 49.03997575 49.21790365 61.46520497 57.0625 77.04296875 C61.66673921 87.69027193 62.31057789 98.8507649 61.6875 110.3125 C61.3575 110.9725 61.0275 111.6325 60.6875 112.3125 C61.25855469 112.56257813 61.82960938 112.81265625 62.41796875 113.0703125 C72.36276505 118.5134196 79.13418243 129.9025473 82.625 140.375 C84.93126132 150.18372868 84.81900102 161.63980543 82.3125 171.375 C81.37545668 175.6342878 81.95674298 177.55044542 84.25 181.25 C84.81460938 182.06726563 85.37921875 182.88453125 85.9609375 183.7265625 C95.66066743 198.25421231 98.18431445 217.80320797 94.92578125 234.76953125 C93.33381624 241.9123727 91.16705908 248.85394999 87.6875 255.3125 C87.26855469 256.10785156 86.84960938 256.90320313 86.41796875 257.72265625 C83.1955322 263.46622773 79.34648617 268.20076907 74.8359375 272.98828125 C74.12695312 273.75527344 73.41796875 274.52226562 72.6875 275.3125 C71.91664063 276.13105469 71.14578125 276.94960938 70.3515625 277.79296875 C68.38877878 280.145657 68.38877878 280.145657 69.06860352 282.65356445 C69.37495728 283.96973755 69.37495728 283.96973755 69.6875 285.3125 C70.57253448 297.67612646 70.73802164 309.82049338 65.6875 321.3125 C65.32527344 322.18648438 64.96304688 323.06046875 64.58984375 323.9609375 C59.19471927 335.84849991 49.86575507 345.65877674 38.6875 352.3125 C38.0275 352.3125 37.3675 352.3125 36.6875 352.3125 C36.73390625 353.42625 36.7803125 354.54 36.828125 355.6875 C37.28276069 371.34909458 34.97524592 387.1885112 25.6875 400.3125 C22.14792088 402.53566868 20.32349583 403.3125 16.125 403.3125 C11.82114082 402.06046824 10.20172985 401.04575038 7.6875 397.3125 C6.50181669 391.25927467 7.61302596 386.69393305 10.6015625 381.4375 C14.08051928 374.62975724 15.07054798 366.83931459 15.6875 359.3125 C14.75550781 359.34730469 13.82351563 359.38210938 12.86328125 359.41796875 C-4.29706653 359.78234418 -20.07524321 355.79582882 -32.95703125 343.79296875 C-35.81341904 340.67316768 -35.71388019 337.63820983 -35.6484375 333.57421875 C-35.3125 331.3125 -35.3125 331.3125 -33.3125 328.3125 C-29.52979862 325.79069908 -26.7981484 324.44407847 -22.3125 325.3125 C-18.85971157 327.09224385 -15.77069585 329.04841568 -12.55859375 331.234375 C-2.86485747 337.44023264 7.09496059 338.56323354 18.37109375 336.921875 C28.51639002 334.38960905 36.7381637 327.67595864 42.25 318.91796875 C47.80634669 308.84709037 49.28398181 298.70004689 47.6875 287.3125 C46.64076117 283.83182173 45.40408463 280.74566926 43.78125 277.5 C42.6875 275.3125 42.6875 275.3125 42.6875 273.3125 C41.97464844 273.8178125 41.26179688 274.323125 40.52734375 274.84375 C32.70790474 280.14791859 32.70790474 280.14791859 27.8125 280.9375 C23.68410491 280.11182098 20.93850899 278.98051199 18.375 275.5625 C17.34134775 272.17963808 17.2085187 269.84498709 17.6875 266.3125 C20.05966841 262.59160708 23.29796042 259.6931864 26.4375 256.625 C30.02271005 252.94020079 30.8639012 249.91485976 31.5 244.875 C32.14585691 241.24266188 32.692602 239.30436869 34.6875 236.125 C38.36425995 233.90362419 40.9617446 233.71446493 45.1875 233.6484375 C48.9024071 234.6352097 50.38598594 236.269477 52.6875 239.3125 C53.21875 242.94140625 53.21875 242.94140625 53.1875 246.875 C53.05288739 250.75629256 53.05288739 250.75629256 53.6875 254.3125 C56.06583084 256.80441945 56.06583084 256.80441945 58.6875 258.3125 C69.61075984 245.8171581 74.26526002 233.77215608 74 217.2265625 C72.9000361 203.44951466 66.88042608 190.70483227 56.6875 181.3125 C46.24113297 173.45361772 36.23353355 169.95536268 23.375 168.61425781 C19.21641985 168.09697929 17.07808701 167.6065713 13.65234375 165.02734375 C11.55644212 162.13141606 11.00743082 160.83692736 11.0625 157.3125 C11.04960937 156.4875 11.03671875 155.6625 11.0234375 154.8125 C12.01661339 151.0734849 13.60755371 149.61639683 16.6875 147.3125 C19.67871474 146.79361581 21.96208617 146.59612575 24.9375 146.6875 C26.11807983 146.70852783 26.11807983 146.70852783 27.32250977 146.72998047 C40.1280149 147.2435805 51.8800883 151.51993671 62.6875 158.3125 C61.38930671 145.77621554 58.6420738 138.20934199 48.90625 130.03125 C47.05901019 128.60028958 45.21020151 127.26836568 43.25 126 C40.6875 124.3125 40.6875 124.3125 38.6875 121.3125 C38.50996178 117.64337674 38.45238894 114.46769134 39.18359375 110.875 C41.55144407 98.83383869 38.27970012 87.41921645 31.6875 77.3125 C25.34724854 67.98860079 14.98425391 63.18125767 4.2421875 60.76171875 C-6.51985204 58.86931119 -16.45581379 61.41189637 -26.1875 66.125 C-30.12797805 67.62238166 -32.28243413 67.50659359 -36.3125 66.3125 C-39.33432284 64.25508871 -41.00261377 62.81300175 -41.7578125 59.15625 C-41.94389268 55.43464641 -41.61338885 52.91427771 -39.9375 49.5625 C-30.17158545 41.1917161 -14.9762708 37.40794494 -2.3125 38.3125 C-3.16828879 30.12348657 -5.24747362 23.61845945 -9.0703125 16.3203125 C-10.43627233 13.01279971 -10.68489956 10.85519583 -10.3125 7.3125 C-7.41200762 2.1882968 -5.85471637 0.18695733 0 0 Z " fill="#000000" transform="translate(413.3125,46.6875)"/>
<path d="M0 0 C3.72000908 2.83044169 4.71759618 4.5424319 5.60546875 9.125 C5.91625967 11.5475754 6.21125683 13.97221811 6.4921875 16.3984375 C8.12502469 27.9790213 13.87109057 37.12975979 22.8359375 44.5390625 C26.69363403 47.14335583 30.91028295 49.10162261 35.109375 51.09375 C38.55199921 53.3640211 39.58409584 55.16609049 41 59 C41 63.2362654 40.39595144 65.39968652 38.0625 68.9375 C34.38734268 71.41260595 32.24661031 71.84616753 27.875 71.60546875 C17.53450466 69.42778291 9.24200272 62.3190453 2 55 C1.37609375 54.40960938 0.7521875 53.81921875 0.109375 53.2109375 C-10.71995138 42.13770737 -15.68350046 26.12565407 -16.5 11 C-16.39886977 7.39124758 -15.92718678 5.23043149 -13.6875 2.375 C-9.37838885 -1.43305171 -5.39649832 -1.62316551 0 0 Z " fill="#000000" transform="translate(360,141)"/>
</svg>
