<?xml version="1.0" encoding="UTF-8"?>
<svg version="1.1" xmlns="http://www.w3.org/2000/svg" width="512" height="512">
<path d="M0 0 C1.21203808 -0.01253499 1.21203808 -0.01253499 2.44856179 -0.02532321 C5.14777225 -0.04824589 7.84615005 -0.04269333 10.54544067 -0.0370636 C12.48406892 -0.04739837 14.42268895 -0.05938777 16.36129761 -0.07290649 C21.62170672 -0.10394997 26.88184188 -0.1092308 32.1423316 -0.10797477 C36.53596483 -0.10880538 40.92953866 -0.12104922 45.32315361 -0.13292438 C55.68993042 -0.16029849 66.05656505 -0.16562694 76.42337036 -0.15815735 C87.11292849 -0.1509157 97.80182721 -0.18433529 108.49124229 -0.23721474 C117.67361465 -0.28099729 126.85577397 -0.29771126 136.03824914 -0.29317886 C141.52045009 -0.29085701 147.00211822 -0.29917041 152.4842186 -0.3342495 C157.64079587 -0.36621302 162.79628136 -0.36438966 167.95287323 -0.33680534 C169.84267104 -0.33235148 171.73254094 -0.33979128 173.62223434 -0.36014938 C189.67220179 -0.52131299 189.67220179 -0.52131299 194.81866455 3.81613159 C201.3374347 11.00927295 203.96606814 17.35192192 203.96072388 27.01933289 C203.96408249 27.88634827 203.9674411 28.75336365 203.97090149 29.64665222 C203.98041529 32.51861497 203.98235501 35.39051941 203.98342896 38.26249695 C203.98664193 40.25926233 203.99000603 42.25602747 203.99351501 44.25279236 C203.99950784 48.44255621 204.00135483 52.63229943 204.00076294 56.82206726 C204.00066147 62.18310303 204.01429768 67.54400591 204.03153515 72.90501022 C204.04267214 77.03148502 204.0446816 81.15792791 204.04415321 85.2844162 C204.04533138 87.26030687 204.04974398 89.23619842 204.05748558 91.21207428 C204.06731691 93.98125405 204.06439468 96.75014821 204.05838013 99.51933289 C204.06399963 100.33101929 204.06961914 101.14270569 204.07540894 101.97898865 C204.04852237 106.86698543 203.37132745 110.88817055 201.81546021 115.52812195 C204.71176454 118.56906348 207.63555134 121.58207289 210.56546021 124.59062195 C211.39046021 125.45751648 212.21546021 126.32441101 213.06546021 127.21757507 C214.26428833 128.44057312 214.26428833 128.44057312 215.48733521 129.6882782 C216.2204895 130.44761658 216.9536438 131.20695496 217.70901489 131.98930359 C219.67133341 133.7763101 219.67133341 133.7763101 221.95559692 133.34526062 C224.20352542 132.35762388 226.14251703 131.13409798 228.19046021 129.77812195 C245.64188161 119.0387857 267.95686426 115.96967152 287.81546021 120.52812195 C297.1101094 123.06129478 305.5548097 126.53901619 313.81546021 131.52812195 C315.46546021 132.51812195 317.11546021 133.50812195 318.81546021 134.52812195 C334.65546021 118.68812195 350.49546021 102.84812195 366.81546021 86.52812195 C365.82546021 83.22812195 364.83546021 79.92812195 363.81546021 76.52812195 C360.85531411 61.7273915 362.40932913 46.79650284 370.28421021 33.7117157 C379.05034292 21.21103155 390.57616629 12.26632693 405.81546021 9.52812195 C422.13066812 7.7043477 436.59561326 10.37141027 449.81546021 20.52812195 C460.06405418 29.06861693 467.60550139 40.74983243 469.11526489 54.19877625 C469.25133967 56.94137837 469.28355659 59.65739779 469.25296021 62.40312195 C469.24466187 63.36838806 469.23636353 64.33365417 469.22781372 65.32817078 C468.88787449 79.6939302 463.35679581 90.92967903 453.50296021 101.34062195 C442.21922902 111.99642206 429.17440336 116.15914096 413.84744263 116.00297546 C403.92483487 115.64315011 395.27506047 112.86467367 386.81546021 107.67655945 C384.3940126 106.22394238 384.3940126 106.22394238 379.81546021 104.52812195 C364.96546021 119.37812195 350.11546021 134.22812195 334.81546021 149.52812195 C336.28898128 153.21192465 337.74856039 156.30975103 339.69046021 159.71562195 C344.68090004 168.77144448 348.81546021 178.05122341 348.81546021 188.52812195 C360.69546021 188.52812195 372.57546021 188.52812195 384.81546021 188.52812195 C385.47546021 186.54812195 386.13546021 184.56812195 386.81546021 182.52812195 C389.41638025 177.48142446 392.58423272 173.33622668 396.81546021 169.52812195 C397.55796021 168.84749695 398.30046021 168.16687195 399.06546021 167.46562195 C408.93350901 160.51313302 419.80765077 159.05796771 431.63967896 160.98905945 C442.10739882 163.78264246 450.3672534 170.38318977 456.06546021 179.53593445 C461.47205852 189.67330629 462.26264225 200.08317553 459.25296021 211.15312195 C455.94089656 220.92718389 449.64739706 228.20967011 440.81546021 233.52812195 C430.34299151 238.49263025 419.075065 239.33185722 408.08499146 235.49687195 C395.99844155 230.337725 390.30323487 222.60122622 384.81546021 210.52812195 C366.99546021 210.03312195 366.99546021 210.03312195 348.81546021 209.52812195 C348.48546021 212.49812195 348.15546021 215.46812195 347.81546021 218.52812195 C345.52777637 228.12163478 341.20151027 237.99195209 335.05764771 245.74687195 C334.44276489 246.6285907 334.44276489 246.6285907 333.81546021 247.52812195 C334.42687149 250.09926407 334.42687149 250.09926407 335.81546021 252.52812195 C336.18671021 253.29124695 336.55796021 254.05437195 336.94046021 254.84062195 C337.37358521 255.67593445 337.37358521 255.67593445 337.81546021 256.52812195 C338.55796021 256.36312195 339.30046021 256.19812195 340.06546021 256.02812195 C350.45339034 254.6430646 359.27009672 254.95316201 368.07327271 261.10624695 C372.51512805 264.7449624 375.29702942 268.38632576 377.81546021 273.52812195 C378.86153442 273.29028992 378.86153442 273.29028992 379.92874146 273.0476532 C390.20687141 271.19786797 399.2899388 272.196922 408.03421021 278.0007782 C414.70352192 283.26405965 418.41117641 290.19736203 419.81546021 298.52812195 C419.91274574 300.34141275 419.96330574 302.15758439 419.97659302 303.97343445 C419.98620056 305.03803894 419.99580811 306.10264343 420.00570679 307.19950867 C420.0120816 308.90904724 420.0120816 308.90904724 420.01858521 310.65312195 C420.02428528 311.83277527 420.02998535 313.01242859 420.03585815 314.22782898 C420.04529264 316.71919359 420.05183596 319.21057059 420.05569458 321.70195007 C420.06542421 325.51401894 420.09647281 329.32555398 420.12796021 333.13749695 C420.13448827 335.55936875 420.13973951 337.9812444 420.14358521 340.40312195 C420.15593201 341.54281433 420.16827881 342.68250671 420.18099976 343.85673523 C420.17799866 344.92133972 420.17499756 345.98594421 420.17190552 347.08280945 C420.17555115 348.01592957 420.17919678 348.94904968 420.18295288 349.91044617 C419.73692985 353.0874991 418.68885298 354.94237273 416.81546021 357.52812195 C413.41627078 359.8457511 411.37764439 360.51825907 407.25296021 360.59062195 C403.75760781 359.5102403 402.09672242 358.43379386 399.8477478 355.56697083 C397.64556786 351.21749292 398.15673596 346.29057754 398.21389771 341.5242157 C398.20188828 339.79015221 398.20188828 339.79015221 398.18963623 338.02105713 C398.16658793 334.33555373 398.17602695 330.6511549 398.19046021 326.96562195 C398.19430706 323.27672587 398.19088112 319.58831632 398.16986084 315.8994751 C398.15776752 313.60681062 398.16044726 311.31400948 398.17956543 309.02139282 C398.17590973 307.98003677 398.17225403 306.93868073 398.16848755 305.86576843 C398.17246552 304.95342941 398.17644348 304.04109039 398.18054199 303.10110474 C397.73600335 299.96813474 396.65261978 298.08270939 394.81546021 295.52812195 C391.72372269 293.98225319 389.22116468 294.23452673 385.81546021 294.52812195 C383.45048581 296.395207 382.15515305 297.84873626 380.81546021 300.52812195 C380.7116651 302.19670335 380.66952305 303.86929628 380.65774536 305.5410614 C380.64748322 306.58587173 380.63722107 307.63068207 380.62664795 308.70715332 C380.61934662 309.84045578 380.61204529 310.97375824 380.60452271 312.1414032 C380.57645331 314.52747776 380.54778884 316.91354538 380.51858521 319.29960632 C380.47731139 323.07198386 380.440435 326.84423195 380.41409302 330.616745 C380.38650349 334.25023877 380.34062816 337.88313796 380.29202271 341.5164032 C380.28876984 342.64363297 380.28551697 343.77086273 380.28216553 344.93225098 C380.26559906 345.98651779 380.24903259 347.04078461 380.23196411 348.1269989 C380.21983383 349.51360466 380.21983383 349.51360466 380.2074585 350.92822266 C379.63891426 354.69904969 378.13436206 357.53894556 375.06546021 359.84062195 C370.74744784 361.16001462 367.13216703 361.11332498 363.00296021 359.27812195 C360.59899707 357.35495144 359.89823745 356.376618 358.81546021 353.52812195 C358.55717468 350.42327881 358.55717468 350.42327881 358.54421997 346.72758484 C358.53637985 345.71463097 358.53637985 345.71463097 358.52838135 344.68121338 C358.5181621 343.21893696 358.51236456 341.75662437 358.51049995 340.29431343 C358.50683022 337.97790751 358.49008773 335.6619274 358.46974182 333.34561157 C358.41438534 326.76142803 358.38364635 320.17718229 358.35916138 313.59281921 C358.34326843 309.56155748 358.31303299 305.53059901 358.2743969 301.49949455 C358.26276369 299.96577109 358.25681669 298.43199336 358.25671577 296.89822578 C358.25652326 294.75118038 358.23822532 292.60496912 358.21609497 290.45805359 C358.21102432 289.23767899 358.20595367 288.01730438 358.20072937 286.75994873 C357.7810089 283.2391275 356.93182829 281.34478575 354.81546021 278.52812195 C352.40690805 277.32384587 351.05059616 277.41946792 348.37796021 277.59062195 C347.2042688 277.63896179 347.2042688 277.63896179 346.00686646 277.6882782 C343.53214377 278.37956246 343.53214377 278.37956246 342.20056152 281.19876099 C340.75971294 284.66212137 340.44816072 286.91543969 340.46243286 290.63774109 C340.45877716 291.82239456 340.45512146 293.00704803 340.45135498 294.2276001 C340.465298 296.12626076 340.465298 296.12626076 340.47952271 298.0632782 C340.47021387 300.06690209 340.46087651 302.07052633 340.44985008 304.0741415 C340.42746376 308.99802604 340.4374299 313.92186611 340.45510864 318.8457489 C340.46392002 321.6156085 340.45947808 324.38488086 340.44128418 327.1546936 C340.42537339 329.75894949 340.43004922 332.36343008 340.4574585 334.96759033 C340.37509831 344.73751508 340.37509831 344.73751508 337.40286255 347.80326843 C333.25102801 350.57102754 330.87108447 351.03368437 325.81546021 350.52812195 C322.33547505 348.52519716 320.10861571 346.40758846 318.81546021 342.52812195 C318.72146342 340.07557046 318.68214142 337.65099335 318.68948364 335.1985321 C318.68668144 334.08338478 318.68668144 334.08338478 318.68382263 332.94570923 C318.67982038 331.33170035 318.67774395 329.71768582 318.67736053 328.10367203 C318.67394357 324.67161122 318.65258066 321.23973963 318.63212967 317.80774498 C318.59410989 311.41796228 318.56284644 305.02838226 318.56497192 298.63847351 C318.56575891 294.19325987 318.54240287 289.7487397 318.5030899 285.30370712 C318.49262714 283.61089063 318.49110795 281.91799412 318.49874115 280.22516251 C318.50836346 277.85484523 318.48718409 275.48662845 318.45901489 273.11650085 C318.46921158 272.4191835 318.47940826 271.72186615 318.48991394 271.00341797 C318.40873815 267.18910072 317.87487037 265.60266061 315.46664429 262.58119202 C312.96105222 260.29146971 312.96105222 260.29146971 309.75296021 260.09062195 C306.87106906 260.51983978 305.1388385 260.78558823 302.81546021 262.52812195 C300.82136485 266.48035895 300.56483966 269.77394072 300.56008911 274.16679382 C300.55646866 274.81298172 300.55284821 275.45916962 300.54911804 276.12493896 C300.54225258 277.52063592 300.53971324 278.91635956 300.54106522 280.31207275 C300.5420344 282.52355464 300.52904356 284.73455574 300.51208496 286.94596863 C300.46592377 293.23063996 300.44120204 299.51525942 300.43460083 305.8000946 C300.42958173 309.65103356 300.40531718 313.50146645 300.36927414 317.35223389 C300.35948982 318.81618204 300.35713677 320.28019991 300.36244583 321.74417114 C300.36953011 323.79314694 300.35221151 325.84061658 300.32962036 327.88945007 C300.32677032 329.05351379 300.32392029 330.21757751 300.32098389 331.41691589 C299.71090724 335.17158503 298.4444498 336.83039734 295.81546021 339.52812195 C292.58464275 341.14353068 289.30786923 341.11774945 285.81546021 340.52812195 C282.2875872 338.57154998 280.11261 336.41957132 278.81546021 332.52812195 C278.7152634 330.69785583 278.67346559 328.86417105 278.66397095 327.03118896 C278.65562729 325.88852066 278.64728363 324.74585236 278.63868713 323.56855774 C278.63450272 322.31392731 278.6303183 321.05929687 278.62600708 319.76664734 C278.61806415 318.43280781 278.60967615 317.09897087 278.60087585 315.76513672 C278.58281947 312.89228122 278.56780358 310.01943142 278.55509949 307.14654732 C278.53487876 302.60430372 278.50722595 298.06212415 278.47842407 293.51992798 C278.41832945 283.87685597 278.36649215 274.23374553 278.31546021 264.59062195 C278.26037364 254.18403632 278.20387134 243.77747011 278.13791132 233.37094682 C278.10957114 228.85527316 278.0859717 224.33960693 278.06598663 219.8238889 C278.05259229 217.01466062 278.03518015 214.20546766 278.01667595 211.39626884 C278.00522828 209.47193427 277.99866173 207.54757261 277.99223328 205.62321472 C277.98388962 204.47772659 277.97554596 203.33223846 277.96694946 202.15203857 C277.96179573 201.15671144 277.956642 200.1613843 277.95133209 199.13589573 C277.82623629 196.73494607 277.70153798 194.7641283 276.81546021 192.52812195 C273.11192057 191.29360874 269.66557013 190.9614727 265.81546021 191.52812195 C262.57317429 193.85591697 261.51418675 195.68952162 260.81546021 199.52812195 C260.72060887 201.65118696 260.68218967 203.77699846 260.6774292 205.9021759 C260.66924919 207.87027977 260.66924919 207.87027977 260.66090393 209.87814331 C260.65978419 211.33064265 260.65873366 212.78314204 260.65774536 214.23564148 C260.65307552 215.76678615 260.64793167 217.29792943 260.64234924 218.82907104 C260.63107624 222.12642918 260.62263807 225.42377833 260.61623001 228.72114944 C260.60553526 233.94141742 260.58528511 239.16162093 260.56311035 244.3818512 C260.50124006 259.22647639 260.44722801 274.07109806 260.41409302 288.91581726 C260.39571244 297.11452203 260.36673199 305.31311895 260.32608831 313.51174438 C260.30507306 317.84696443 260.28956886 322.18204888 260.28728104 326.51732254 C260.28512397 330.60006844 260.26914746 334.68253221 260.24289131 338.76519203 C260.23573655 340.25743234 260.23357864 341.74970697 260.23699379 343.24196053 C260.2737688 362.37815164 260.2737688 362.37815164 254.31546021 369.52812195 C249.82154834 373.12325144 247.2895544 374.14349184 241.61965942 373.93241882 C234.6958688 372.93417772 229.81946236 367.88084257 225.68264771 362.55937195 C224.33731154 360.72625308 223.00670368 358.88224095 221.69046021 357.02812195 C213.16195473 345.06359231 213.16195473 345.06359231 200.81546021 337.52812195 C197.22649612 337.13135969 197.22649612 337.13135969 193.56546021 337.27812195 C192.34342896 337.2935907 191.12139771 337.30905945 189.86233521 337.32499695 C186.89881716 337.32530736 186.89881716 337.32530736 184.81546021 338.52812195 C185.17973239 344.58654348 188.01766894 348.26229828 191.44046021 353.02812195 C192.63630387 354.73347877 193.83159505 356.43922311 195.02639771 358.14530945 C195.96370728 359.47320496 195.96370728 359.47320496 196.91995239 360.82792664 C200.01550762 365.23761762 203.03785213 369.69663743 206.06546021 374.15312195 C207.33089913 376.0100196 208.59652779 377.86678797 209.86233521 379.72343445 C214.73356134 386.87423838 219.59862698 394.02923281 224.46096802 401.18608093 C227.93562489 406.29916482 231.41547891 411.40851714 234.90921021 416.5085907 C266.81546021 463.09234563 266.81546021 463.09234563 266.81546021 494.52812195 C305.42546021 494.52812195 344.03546021 494.52812195 383.81546021 494.52812195 C383.81546021 481.32812195 383.81546021 468.12812195 383.81546021 454.52812195 C385.96104742 445.94577309 388.09677178 439.10858766 391.85452271 431.39530945 C397.60591367 419.14616381 398.26589664 407.27496761 398.17581177 393.99345398 C398.16721825 391.89233854 398.18891599 389.79313104 398.21389771 387.69218445 C398.21051392 386.4593573 398.20713013 385.22653015 398.2036438 383.9563446 C399.01554603 379.40697066 400.58443921 377.78136496 403.81546021 374.52812195 C406.49298205 373.34656401 408.91058439 373.26886325 411.81546021 373.52812195 C415.56967445 375.11323463 417.74314777 377.04576374 419.81546021 380.52812195 C420.21951294 383.81767273 420.21951294 383.81767273 420.24905396 387.72343445 C420.25615387 388.42385864 420.26325378 389.12428284 420.27056885 389.84593201 C420.28483477 392.11549956 420.27232387 394.38360463 420.25296021 396.65312195 C420.24690262 397.81209991 420.24690262 397.81209991 420.24072266 398.99449158 C420.09766351 418.39553277 416.2978111 433.0712401 407.69168091 450.52372742 C406.20794951 453.91783016 405.69136461 457.01991894 405.65774536 460.71073914 C405.64748322 461.52548706 405.63722107 462.34023499 405.62664795 463.17967224 C405.61934662 464.05262939 405.61204529 464.92558655 405.60452271 465.82499695 C405.57644686 467.68958895 405.54778235 469.55417217 405.51858521 471.41874695 C405.47741395 474.34582707 405.44050873 477.2727444 405.41409302 480.19999695 C405.38633067 483.03367133 405.34045533 485.86661018 405.29202271 488.69999695 C405.28876984 489.56485718 405.28551697 490.42971741 405.28216553 491.32078552 C405.14120971 498.36035039 404.0284875 504.05163903 399.19046021 509.46562195 C398.40671021 510.14624695 397.62296021 510.82687195 396.81546021 511.52812195 C396.48546021 511.85812195 396.15546021 512.18812195 395.81546021 512.52812195 C394.00467645 512.63328492 392.18976541 512.66778466 390.37594604 512.67529297 C389.19540146 512.68244827 388.01485687 512.68960358 386.79853821 512.69697571 C385.49153458 512.69966461 384.18453094 512.70235352 382.83792114 512.7051239 C381.45673958 512.71138583 380.07555971 512.71803239 378.69438171 512.72503662 C374.9318344 512.74247382 371.16929981 512.75300617 367.40672207 512.76124215 C365.05701665 512.76638747 362.70731522 512.77246347 360.35761261 512.77875328 C353.00904818 512.79781455 345.66049385 512.81204262 338.31190944 512.82036525 C329.82375568 512.83013647 321.3358628 512.85644885 312.84780097 512.89686614 C306.29149138 512.92701543 299.7352566 512.94183306 293.17887902 512.94514626 C289.26119192 512.94749852 285.3437832 512.95648094 281.42617035 512.98160744 C277.73908062 513.00487212 274.05245283 513.00912818 270.36530876 512.99884605 C268.36833115 512.99811383 266.37137709 513.0172174 264.37449646 513.03691101 C262.58676064 513.02649529 262.58676064 513.02649529 260.76290894 513.01586914 C259.21209688 513.01945167 259.21209688 513.01945167 257.62995529 513.02310658 C253.49150038 512.29527743 250.99716535 510.08084775 248.48733521 506.78300476 C245.54276816 501.0279982 245.11986501 495.66905099 244.81546021 489.27812195 C244.23131568 480.82301297 243.42167126 473.30509466 239.81546021 465.52812195 C239.40167114 464.60644226 238.98788208 463.68476257 238.56155396 462.7351532 C233.70768209 452.93869641 227.15420975 444.17101076 220.85061646 435.2742157 C217.41637838 430.4178684 214.09950991 425.49289452 210.81375122 420.53520203 C207.49948524 415.54780874 204.12406721 410.60219394 200.75296021 405.65312195 C200.02053101 404.57667419 199.28810181 403.50022644 198.53347778 402.39115906 C194.32197458 396.20226733 190.1024639 390.01887341 185.87893677 383.83818054 C183.43941565 380.2652536 181.00543919 376.68857802 178.57327271 373.11064148 C177.39589478 371.38087708 176.21618372 369.65269859 175.03421021 367.92607117 C173.35033685 365.46462794 171.67562223 362.99719252 170.00296021 360.52812195 C169.50497925 359.80439392 169.00699829 359.08066589 168.493927 358.33500671 C163.3282472 350.66613406 161.70924038 343.7737908 162.81546021 334.52812195 C164.76438557 328.05587679 167.99039782 323.68888079 173.45999146 319.7820282 C180.11632425 316.23860726 185.9682292 314.97001722 193.50296021 315.02812195 C194.3800061 315.03456726 195.257052 315.04101257 196.16067505 315.0476532 C210.15171022 315.4382202 220.10939242 321.48369578 229.62014771 331.41874695 C236.38466167 338.66652488 236.38466167 338.66652488 237.81546021 341.52812195 C238.14546021 318.75812195 238.47546021 295.98812195 238.81546021 272.52812195 C236.83546021 271.86812195 234.85546021 271.20812195 232.81546021 270.52812195 C216.70908084 262.48811261 204.69746749 249.58252626 196.81546021 233.52812195 C184.66157825 239.79983667 172.89249053 246.68768312 161.09915161 253.60771179 C155.47635452 256.89610747 149.83384706 260.15022593 144.19046021 263.40312195 C143.0990271 264.03234558 142.00759399 264.66156921 140.88308716 265.30986023 C133.20411191 269.7339177 125.51777181 274.14480644 117.81546021 278.52812195 C118.22538208 279.69987976 118.63530396 280.87163757 119.05764771 282.0789032 C127.85462393 307.548839 128.79426052 331.75748057 116.81546021 356.52812195 C104.61831627 377.98891951 86.18714624 392.02956872 62.68264771 398.8367157 C39.87119012 404.33757127 16.93484392 400.04860948 -3.18453979 388.52812195 C-6.82694565 386.13412133 -10.00858988 383.50723745 -13.18453979 380.52812195 C-14.10879761 379.68249695 -15.03305542 378.83687195 -15.98532104 377.96562195 C-22.19780121 372.04737292 -27.01738948 366.0202426 -31.18453979 358.52812195 C-31.64473511 357.71730164 -32.10493042 356.90648132 -32.57907104 356.0710907 C-42.23241319 338.01846597 -44.62458218 314.76919543 -39.43453979 294.96562195 C-38.72754935 292.80523652 -37.98238498 290.65662935 -37.18453979 288.52812195 C-36.88418823 287.62706726 -36.58383667 286.72601257 -36.27438354 285.7976532 C-32.30678822 274.71930261 -25.2314889 265.93559745 -17.18453979 257.52812195 C-16.60961792 256.89003601 -16.03469604 256.25195007 -15.44235229 255.5945282 C-2.75140213 241.96238316 17.19442035 234.10436344 35.57327271 233.14530945 C59.22460421 232.44740749 79.45923942 238.11522622 97.81546021 253.52812195 C98.95861983 254.69815071 100.08651168 255.88352672 101.19046021 257.09062195 C102.05671021 257.89499695 102.92296021 258.69937195 103.81546021 259.52812195 C107.63660304 259.23197055 110.38512531 257.83818228 113.63967896 255.89530945 C114.57215454 255.3443158 115.50463013 254.79332214 116.46536255 254.22563171 C117.46776978 253.62420349 118.470177 253.02277527 119.50296021 252.40312195 C121.67572002 251.11726036 123.84891178 249.83212843 126.02249146 248.5476532 C127.14478149 247.88201355 128.26707153 247.2163739 129.42337036 246.53056335 C134.82240201 243.3433705 140.25600271 240.21690032 145.69046021 237.09062195 C147.84805275 235.84720257 150.00560448 234.60371237 152.16311646 233.3601532 C154.38056034 232.08280246 156.59800838 230.80545891 158.81546021 229.52812195 C163.01177331 227.11028533 167.20766304 224.69171533 171.40316772 222.2724762 C173.08644243 221.30205722 174.77003908 220.33219676 176.4536438 219.36235046 C177.47667603 218.7725238 178.49970825 218.18269714 179.55374146 217.57499695 C180.90012695 216.79914246 180.90012695 216.79914246 182.27371216 216.00761414 C183.11248901 215.51938171 183.95126587 215.03114929 184.81546021 214.52812195 C185.74181274 214.0677655 186.66816528 213.60740906 187.62258911 213.13310242 C190.01471697 211.74895123 190.01471697 211.74895123 190.3196106 209.34599304 C190.26796753 208.50632996 190.21632446 207.66666687 190.16311646 206.80155945 C190.12573364 205.86062439 190.08835083 204.91968933 190.04983521 203.95024109 C189.99311646 202.94469177 189.93639771 201.93914246 189.87796021 200.90312195 C189.41024677 183.02839504 193.29283171 165.77884941 204.81546021 151.52812195 C202.45046515 146.13233348 198.19097124 142.37560222 194.12796021 138.21562195 C193.33712036 137.36677429 192.54628052 136.51792664 191.73147583 135.64335632 C190.56068481 134.44742859 190.56068481 134.44742859 189.36624146 133.2273407 C188.6615271 132.4934613 187.95681274 131.75958191 187.23074341 131.00346375 C183.81836012 128.91905738 181.72789717 129.91635226 177.81546021 130.52812195 C175.1257497 130.62653186 172.46143781 130.68504134 169.77224731 130.68925476 C169.00057724 130.69421967 168.22890717 130.69918457 167.43385315 130.70429993 C164.90349409 130.71880136 162.37319758 130.72570093 159.84280396 130.73124695 C158.97410738 130.73407433 158.1054108 130.7369017 157.21039009 130.73981476 C152.61935247 130.75475345 148.02834588 130.76401831 143.43728638 130.76835632 C138.70395824 130.77385392 133.97091588 130.79792413 129.23767757 130.82632828 C125.58734811 130.8449683 121.93708759 130.85016084 118.28671455 130.8516922 C116.54164621 130.85471276 114.79657891 130.86272114 113.05155754 130.87587738 C110.61057636 130.89297761 108.17029573 130.89104893 105.72927856 130.88456726 C105.01378845 130.89378204 104.29829834 130.90299683 103.56112671 130.91249084 C98.91723005 130.87396269 95.76117694 129.96883585 91.81546021 127.52812195 C89.6174855 124.81728648 88.89148144 123.03855023 88.37796021 119.59062195 C88.93152343 115.71567935 90.40719551 113.57386847 92.81546021 110.52812195 C95.89191686 108.98989362 99.12930887 109.36625402 102.50637817 109.35453796 C103.30003784 109.34785095 104.09369751 109.34116394 104.91140747 109.33427429 C106.63783091 109.32020862 108.36427312 109.30831941 110.09072495 109.29832649 C112.82245434 109.28193938 115.55404482 109.25870234 118.28570557 109.23342896 C126.05352883 109.16259098 133.82140903 109.10252637 141.58938599 109.05131531 C146.33798783 109.01952877 151.08643061 108.97825308 155.83490372 108.93111992 C157.64577499 108.91509674 159.45668292 108.90277663 161.26760483 108.89421272 C163.80048525 108.8820627 166.33299162 108.85791402 168.86575317 108.83110046 C169.61499054 108.83051132 170.36422791 108.82992218 171.13616943 108.82931519 C174.81718902 108.77766208 177.7492743 108.6942586 180.81546021 106.52812195 C182.35573871 103.44756493 181.98041626 100.20298407 181.99246216 96.82133484 C182.00231895 95.6284359 182.00231895 95.6284359 182.01237488 94.41143799 C182.03211852 91.7745505 182.04377108 89.1377199 182.05374146 86.5007782 C182.05781698 85.60168669 182.06189251 84.70259518 182.06609154 83.77625847 C182.08695402 79.0201274 182.10125655 74.26402522 182.11062622 69.50785828 C182.12170807 64.58680532 182.15612768 59.66620239 182.19579792 54.74530888 C182.22189174 50.96813087 182.23031145 47.19106142 182.2339077 43.41380119 C182.23879023 41.5992522 182.25045132 39.78470858 182.26894569 37.97024727 C182.29319043 35.43456504 182.2923998 32.90006525 182.28543091 30.36430359 C182.29824097 29.61147095 182.31105103 28.85863831 182.32424927 28.08299255 C182.32299176 24.08164356 182.32299176 24.08164356 180.22900772 20.83565998 C176.93889286 19.05324207 174.44871407 19.15046637 170.71095276 19.14717102 C169.99503009 19.14249105 169.27910743 19.13781108 168.54149014 19.13298929 C166.14230936 19.12102215 163.74369797 19.13050288 161.34451294 19.13993835 C159.62467109 19.13587344 157.90483184 19.13053201 156.18499756 19.12400818 C151.51362936 19.11032022 146.8424597 19.11563906 142.17108798 19.12514544 C137.28643169 19.13273314 132.40179257 19.12569901 127.51713562 19.12098694 C119.31486961 19.11552731 111.11268462 19.12272698 102.91043091 19.13700867 C93.42071115 19.15334101 83.93118469 19.14804327 74.44146961 19.13152945 C66.29956671 19.11792697 58.15772209 19.11598869 50.0158115 19.12384546 C45.1504007 19.1285281 40.28508083 19.12913052 35.41967583 19.11923599 C30.846979 19.11058641 26.27453209 19.11655132 21.70186234 19.13391876 C20.02122602 19.13789414 18.34056877 19.13673166 16.65994072 19.13013077 C14.37066873 19.12196654 12.08220415 19.13217376 9.79298401 19.14717102 C8.51043448 19.1483021 7.22788496 19.14943317 5.9064703 19.15059853 C2.8610764 19.28216778 2.8610764 19.28216778 0.90401554 20.83370781 C-0.97482139 23.75825171 -0.61743475 27.07318295 -0.60446167 30.44023132 C-0.61716599 31.64797966 -0.61716599 31.64797966 -0.63012695 32.88012695 C-0.6535451 35.54420216 -0.65451809 38.20770156 -0.65328979 40.87187195 C-0.66038782 42.72128024 -0.66808628 44.57068632 -0.67636108 46.42008972 C-0.68981647 50.29714582 -0.69136963 54.17399824 -0.68551636 58.05107117 C-0.67961528 63.02496705 -0.71022343 67.9978885 -0.75063324 72.97159576 C-0.7764521 76.79085068 -0.77939304 80.60986905 -0.77574158 84.42919922 C-0.77743789 86.26327975 -0.78712934 88.09737061 -0.80488586 89.93136597 C-0.82696476 92.49358337 -0.81743231 95.05380339 -0.79977417 97.61601257 C-0.81303741 98.37662491 -0.82630066 99.13723724 -0.83996582 99.92089844 C-0.85830836 102.28034753 -0.85830836 102.28034753 -0.18453979 105.52812195 C3.31740805 108.75312596 6.54676746 108.90102904 11.17874146 108.89701843 C12.44355347 108.90390182 13.70836548 108.91078522 15.01150513 108.9178772 C15.6821701 108.91469923 16.35283508 108.91152126 17.04382324 108.90824699 C19.15461599 108.89910019 21.26452735 108.9093994 23.37527466 108.92486572 C29.37322709 108.96487152 35.37110743 108.96616727 41.36917114 108.96391296 C45.04502304 108.9638618 48.72039726 108.98305727 52.39611816 109.01324654 C54.47086732 109.02404861 56.54469602 109.01195782 58.61941528 108.99942017 C60.5166333 109.0144735 60.5166333 109.0144735 62.45217896 109.02983093 C63.562948 109.02966476 64.67371704 109.0294986 65.81814575 109.02932739 C69.49776825 109.64166744 71.16058658 110.96024581 73.81546021 113.52812195 C75.55311564 117.00343282 75.41131373 120.73692205 74.81546021 124.52812195 C72.28577546 127.80987513 70.73814689 129.22055972 66.81546021 130.52812195 C64.79846491 130.63214472 62.77821245 130.67671979 60.75857544 130.68925476 C59.50975082 130.6988623 58.26092621 130.70846985 56.97425842 130.71836853 C55.60752547 130.72321912 54.24079038 130.7274973 52.87405396 130.73124695 C51.46740214 130.73700381 50.06075032 130.74276147 48.65409851 130.7485199 C45.70096472 130.75902648 42.7478581 130.76487016 39.79470825 130.76835632 C36.03465472 130.77381491 32.27496811 130.79778709 28.51502895 130.82632828 C25.60569768 130.84508438 22.69645209 130.85016728 19.78706551 130.8516922 C18.40255814 130.85469437 17.01805138 130.86263921 15.63360405 130.87587738 C5.08081375 130.96951134 -4.71403446 130.4585354 -13.18453979 123.52812195 C-19.26145176 117.54079591 -22.49077531 111.56052149 -22.60223389 102.98217773 C-22.59773224 102.17056686 -22.59323059 101.35895599 -22.58859253 100.52275085 C-22.59545578 99.64861038 -22.60231903 98.77446991 -22.60939026 97.87384033 C-22.62760561 95.00062043 -22.62382787 92.12794939 -22.61813354 89.25468445 C-22.62269825 87.24600549 -22.62800469 85.2373281 -22.63401794 83.22865295 C-22.64293902 79.02404933 -22.64053776 74.81963575 -22.63058472 70.61503601 C-22.61910342 65.24290888 -22.63929901 59.87143989 -22.66850185 54.49939919 C-22.68690285 50.35222752 -22.68656349 46.20521238 -22.68086433 42.0580101 C-22.68071156 40.07818555 -22.68671944 38.0983501 -22.69915581 36.11856461 C-22.71413574 33.34272489 -22.70333726 30.56808584 -22.68624878 27.7922821 C-22.69591675 26.9847197 -22.70558472 26.17715729 -22.71554565 25.34512329 C-22.61403697 17.41835054 -19.75111525 10.25842021 -14.18453979 4.52812195 C-9.50133699 0.76961064 -5.85507667 -0.0538649 0 0 Z M389.81546021 42.52812195 C384.13977766 51.67152462 382.44802096 60.37366772 384.24124146 71.06718445 C386.81972603 80.0206953 392.81604851 86.38354671 400.50686646 91.3367157 C408.37771966 95.39866194 417.03046628 95.795846 425.63186646 93.91093445 C434.86723271 90.64459208 441.48261887 84.2123573 445.94046021 75.60624695 C449.08687006 68.13352354 449.18288272 58.78666636 446.72171021 51.12187195 C442.30662031 41.82200174 436.51742201 35.24887431 426.81546021 31.52812195 C412.88251812 27.08270788 399.12132849 31.75387208 389.81546021 42.52812195 Z M226.81546021 158.52812195 C226.16963989 159.16491882 225.52381958 159.8017157 224.85842896 160.45780945 C214.22700377 171.621964 210.29155386 186.17537727 210.46609497 201.24076843 C211.05037255 218.9097184 219.23410842 232.50896722 231.87405396 244.4773407 C234.89452448 247.50190132 234.89452448 247.50190132 238.81546021 248.52812195 C238.82354706 247.92392426 238.83163391 247.31972656 238.83996582 246.69721985 C238.92648202 240.36965521 239.0260022 234.04238704 239.13284302 227.71513367 C239.17096405 225.35841376 239.20584536 223.00163901 239.23733521 220.64482117 C239.28335401 217.24374379 239.3412861 213.84303852 239.40139771 210.44218445 C239.41294891 209.40010834 239.42450012 208.35803223 239.43640137 207.28437805 C239.63413346 197.33012537 240.40661752 186.61306997 247.31546021 178.84062195 C255.06801057 171.66233458 262.67632633 169.8434221 273.14749146 170.13749695 C280.22787757 170.89153168 286.78511553 173.35405314 291.81546021 178.52812195 C297.69708406 186.54226439 299.11595549 193.59219129 299.22952271 203.39530945 C299.24888885 204.43003387 299.268255 205.4647583 299.28820801 206.53083801 C299.34777863 209.82151662 299.39429925 213.11223063 299.44046021 216.40312195 C299.47866068 218.640116 299.51771361 220.87709567 299.55764771 223.11405945 C299.65346158 228.58528552 299.73857451 234.0565989 299.81546021 239.52812195 C302.07661658 239.4494322 304.33696649 239.34730748 306.59671021 239.2351532 C307.85547974 239.18077087 309.11424927 239.12638855 310.41116333 239.07035828 C314.00792833 238.49746563 315.10758392 238.01800168 317.31546021 235.21562195 C318.20195917 233.68266067 319.03149358 232.11596546 319.81546021 230.52812195 C320.33495239 229.62320007 320.85444458 228.7182782 321.38967896 227.78593445 C329.72542718 212.5676435 330.82392897 196.80033779 326.06155396 180.31718445 C321.40396354 166.15460543 310.92987873 153.73046046 297.81546021 146.52812195 C272.7514057 134.82530499 246.38445255 138.36187131 226.81546021 158.52812195 Z M407.01467896 189.9070282 C403.77638279 194.28452953 404.28881269 199.2913171 404.81546021 204.52812195 C407.17080457 209.419991 410.532806 212.33891137 414.81546021 215.52812195 C420.24606856 217.33832473 424.91289793 217.22909941 430.06546021 214.84062195 C435.15096674 212.00869282 438.21144924 208.14216033 439.81546021 202.52812195 C440.48978231 196.57161002 439.1010364 192.40863804 435.81546021 187.52812195 C431.82094617 183.73333362 428.02648904 181.2450221 422.44046021 181.21562195 C415.21338293 181.42853094 411.4425896 184.50288529 407.01467896 189.9070282 Z M-7.32125854 277.8523407 C-11.77804553 283.23722215 -14.68986678 289.02186853 -17.18453979 295.52812195 C-17.50551636 296.32218445 -17.82649292 297.11624695 -18.15719604 297.93437195 C-23.24202041 312.88139053 -21.08762848 330.29125608 -14.89938354 344.47343445 C-11.39875722 351.4746871 -6.68558076 357.00814452 -1.18453979 362.52812195 C-0.56965698 363.16620789 0.04522583 363.80429382 0.67874146 364.4617157 C12.571353 375.89593965 28.3604044 380.04225579 44.40847778 379.87553406 C61.17749644 379.3988465 75.43563152 372.76853409 87.44827271 361.0945282 C99.69739345 347.81454086 105.619286 331.45836894 105.15530396 313.41874695 C103.60156307 295.63109269 96.09210391 280.64256687 82.81546021 268.52812195 C53.26419574 245.95780836 17.27747199 251.09503783 -7.32125854 277.8523407 Z " fill="#000000" transform="translate(42.184539794921875,-0.5281219482421875)"/>
<path d="M0 0 C8.91035396 6.16342403 15.76090312 14.44093908 18.421875 25.03125 C20.37662652 37.58185091 18.99942943 49.21540554 11.48828125 59.62109375 C5.09408651 67.7426302 -2.28730278 72.42389259 -12.16015625 75.71484375 C-24.90146053 76.89549886 -36.27603416 76.17395328 -46.91015625 68.52734375 C-55.41516854 61.37643896 -60.65644684 52.98277256 -62.91015625 42.08984375 C-63.88441454 28.93735678 -61.46105536 18.26598659 -53.16015625 7.71484375 C-39.72298895 -7.03258675 -17.09715276 -10.17172379 0 0 Z M-36.390625 20.8203125 C-40.15085317 24.84616385 -41.9146388 29.62030093 -42.34765625 35.078125 C-42.03063779 40.81417768 -39.94895511 45.42087171 -36.16015625 49.71484375 C-31.63576716 53.537336 -27.16889303 55.71484375 -21.16015625 55.71484375 C-14.07546252 54.71748395 -9.99312692 52.31174706 -5.53515625 46.75 C-1.76163051 41.16475309 -1.26267202 36.39508722 -2.16015625 29.71484375 C-4.34446784 24.14625541 -8.17845524 19.9721098 -13.16015625 16.71484375 C-21.88833957 13.32415543 -29.20372644 14.9942468 -36.390625 20.8203125 Z " fill="#000000" transform="translate(106.16015625,281.28515625)"/>
<path d="M0 0 C0.77006378 -0.00525696 1.54012756 -0.01051392 2.33352661 -0.01593018 C4.85928094 -0.02904992 7.38439638 -0.02042094 9.91015625 -0.01025391 C11.67700317 -0.01227695 13.44384928 -0.01519032 15.21069336 -0.01895142 C18.90584294 -0.02336389 22.60077431 -0.0169785 26.29589844 -0.00292969 C31.0202115 0.01416159 35.74401317 0.00431462 40.4683075 -0.01364708 C44.11441871 -0.02451407 47.76040972 -0.02102523 51.40652466 -0.0132637 C53.14796001 -0.01126975 54.88940647 -0.01369255 56.63082886 -0.02070236 C59.06928204 -0.02836507 61.50691968 -0.01664606 63.9453125 0 C64.65720734 -0.00607269 65.36910217 -0.01214539 66.10256958 -0.0184021 C71.16274093 0.04523737 74.56519053 1.06313604 78.97265625 3.38818359 C81.45080234 6.79563446 81.97265625 8.73875266 81.97265625 12.95068359 C80.73717551 17.19764864 79.45016023 18.66785848 75.97265625 21.38818359 C72.92851664 21.88269703 70.44575307 22.07375348 67.40625 22.03515625 C66.55523712 22.04391785 65.70422424 22.05267944 64.8274231 22.06170654 C62.02114512 22.08366985 59.21644956 22.06915911 56.41015625 22.05224609 C54.45629576 22.05561512 52.50243731 22.06046846 50.54858398 22.06674194 C46.45633972 22.07410911 42.36464164 22.06341273 38.27246094 22.04003906 C33.02972439 22.01155146 27.78826761 22.02795626 22.545578 22.05790138 C18.51174292 22.07597853 14.47821072 22.0702144 10.44436646 22.05726242 C8.51148324 22.05392957 6.57857242 22.05801125 4.64572144 22.06966019 C1.94276208 22.08237582 -0.75813182 22.06298297 -3.4609375 22.03515625 C-4.65648758 22.05033798 -4.65648758 22.05033798 -5.87619019 22.06582642 C-9.89201233 21.98932312 -11.79991795 21.56609054 -15.00024414 19.06259155 C-17.55894599 15.68682622 -18.02734375 13.61204011 -18.02734375 9.38818359 C-17.02734375 6.13818359 -17.02734375 6.13818359 -15.02734375 3.38818359 C-9.95649287 0.7131839 -5.73779249 -0.04894522 0 0 Z " fill="#000000" transform="translate(129.02734375,33.61181640625)"/>
<path d="M0 0 C0.78259186 -0.00335861 1.56518372 -0.00671722 2.37149048 -0.01017761 C4.95544019 -0.01966737 7.53932497 -0.02162965 10.12329102 -0.02270508 C11.92163622 -0.02591873 13.71998115 -0.02928289 15.51832581 -0.03279114 C19.28680019 -0.03877724 23.05525166 -0.04063154 26.82373047 -0.04003906 C31.65022203 -0.0399374 36.47656662 -0.05359608 41.30302334 -0.07081127 C45.01679661 -0.081934 48.73053436 -0.0839582 52.44432259 -0.08342934 C54.22369964 -0.08460879 56.00307763 -0.08902862 57.78243828 -0.0967617 C60.27173011 -0.10656827 62.76070294 -0.10368109 65.25 -0.09765625 C66.34972389 -0.10608551 66.34972389 -0.10608551 67.47166443 -0.11468506 C72.8759393 -0.0814784 76.48862619 0.58211728 80.50219727 4.27026367 C82.69755985 8.01051104 83.06377663 10.90340795 82.18969727 15.14526367 C80.39605816 17.95529828 79.17088791 19.65466835 76.18969727 21.14526367 C73.47030451 21.25929437 70.77593271 21.31310491 68.05566406 21.32226562 C67.21484283 21.32883682 66.37402161 21.33540802 65.50772095 21.34217834 C62.71811845 21.36192999 59.92856983 21.37357793 57.13891602 21.38354492 C55.71127898 21.38965821 55.71127898 21.38965821 54.2548008 21.395895 C49.2175582 21.41676348 44.1803429 21.43106196 39.14306641 21.44042969 C33.93748625 21.45149718 28.73233321 21.4858988 23.52690411 21.52560139 C19.52660827 21.55173405 15.52641472 21.56011853 11.52604103 21.56371117 C9.60708544 21.56858562 7.68813467 21.58022396 5.76926231 21.59874916 C3.08313433 21.62307001 0.3981182 21.62218865 -2.28808594 21.61523438 C-3.47667961 21.63444946 -3.47667961 21.63444946 -4.68928528 21.65405273 C-8.44363666 21.61863287 -10.58822304 21.28765521 -13.78044128 19.2408905 C-16.87242254 16.0487323 -17.21056437 13.70670341 -17.16186523 9.25073242 C-16.52690531 5.44802797 -14.59962518 3.74440504 -11.81030273 1.14526367 C-8.04415198 -0.31105865 -3.98095358 -0.002454 0 0 Z " fill="#000000" transform="translate(66.810302734375,69.854736328125)"/>
<path d="M0 0 C1.16724609 -0.01611328 2.33449219 -0.03222656 3.53710938 -0.04882812 C14.26349127 -0.05494002 14.26349127 -0.05494002 19.0625 3.3125 C21.86856686 6.48064001 22.0625 8.03386194 22.0625 12.3125 C21.64746656 16.60117893 19.29371646 18.63257727 16.0625 21.3125 C12.63671875 21.94360352 12.63671875 21.94360352 8.75 21.94140625 C7.7129895 21.94502419 7.7129895 21.94502419 6.6550293 21.94871521 C5.19932292 21.94773956 3.74357814 21.93441289 2.28808594 21.90942383 C0.0683709 21.87509081 -2.1473626 21.88877843 -4.3671875 21.90820312 C-5.78647516 21.90130414 -7.20575262 21.89163126 -8.625 21.87890625 C-9.90761719 21.86802979 -11.19023438 21.85715332 -12.51171875 21.84594727 C-16.46739552 21.22998705 -18.12466827 20.10413112 -20.9375 17.3125 C-22.54180264 14.10389471 -22.41855318 10.7934543 -21.9375 7.3125 C-16.97197376 -1.14728544 -8.73437352 -0.02403515 0 0 Z " fill="#000000" transform="translate(71.9375,33.6875)"/>
<path d="M0 0 C1.17175781 -0.020625 2.34351563 -0.04125 3.55078125 -0.0625 C14.45466501 -0.11200685 14.45466501 -0.11200685 19.125 3.25 C21.52915469 6.66234859 22.125 8.63189691 22.125 12.8125 C20.90079264 17.02071279 19.52846722 18.5168344 16.125 21.25 C12.69921875 21.88110352 12.69921875 21.88110352 8.8125 21.87890625 C7.7754895 21.88252419 7.7754895 21.88252419 6.7175293 21.88621521 C5.26182292 21.88523956 3.80607814 21.87191289 2.35058594 21.84692383 C0.1308709 21.81259081 -2.0848626 21.82627843 -4.3046875 21.84570312 C-5.72397516 21.83880414 -7.14325262 21.82913126 -8.5625 21.81640625 C-9.84511719 21.80552979 -11.12773437 21.79465332 -12.44921875 21.78344727 C-16.40489552 21.16748705 -18.06216827 20.04163112 -20.875 17.25 C-22.4915224 14.01695521 -22.45853762 10.74474199 -21.875 7.25 C-20.28704434 4.28369882 -18.33869143 1.77498102 -15.06982422 0.60253906 C-10.09935764 -0.19583177 -5.02156131 0.02195218 0 0 Z " fill="#000000" transform="translate(188.875,69.75)"/>
</svg>
