<?xml version="1.0" encoding="UTF-8"?>
<svg version="1.1" xmlns="http://www.w3.org/2000/svg" width="512" height="512">
<path d="M0 0 C2.2753149 0.03213928 4.54350691 0.00023769 6.81860352 -0.03808594 C17.28014404 -0.0685529 23.82518851 2.16772752 31.89477539 8.91503906 C40.18007927 18.2842297 43.74634087 28.83488322 43.62133789 41.19628906 C42.89066935 50.64352451 39.80030551 58.82555106 33.34399414 65.78222656 C32.66143555 66.27384277 31.97887695 66.76545898 31.27563477 67.27197266 C28.29574775 71.14446992 28.81731502 74.87477277 28.87524414 79.62988281 C28.86819458 80.59695663 28.86114502 81.56403046 28.85388184 82.56040955 C28.82446379 86.68909515 28.8409207 90.81730749 28.85327148 94.94604492 C28.87326031 120.07000357 28.87326031 120.07000357 22.16040039 128.53613281 C21.0447168 129.43138672 21.0447168 129.43138672 19.90649414 130.34472656 C19.1652832 130.96476563 18.42407227 131.58480469 17.66040039 132.22363281 C10.75008502 136.87323793 3.27167057 136.93038926 -4.77319336 136.87988281 C-5.63034943 136.87846786 -6.48750549 136.87705292 -7.37063599 136.87559509 C-10.09079576 136.87002678 -12.81087124 136.8574802 -15.53100586 136.84472656 C-17.38256717 136.83970746 -19.23412977 136.83514528 -21.08569336 136.83105469 C-25.60916301 136.82006774 -30.13257018 136.80282509 -34.65600586 136.78222656 C-34.62114266 139.01724041 -34.55038761 141.25171266 -34.46459961 143.48535156 C-34.42906982 144.72961914 -34.39354004 145.97388672 -34.35693359 147.25585938 C-33.27761573 152.68590716 -30.07972664 154.57990305 -25.71459961 157.63378906 C-18.47090308 162.72195393 -12.47655337 169.39072038 -7.65600586 176.78222656 C-3.53201988 175.16779794 -0.85838368 172.17045505 2.14086914 169.04003906 C3.27599926 167.87960244 4.41142545 166.71945538 5.54711914 165.55957031 C7.31945598 163.7377843 9.08844053 161.91299152 10.85180664 160.08251953 C12.56410019 158.30927832 14.28906433 156.54913667 16.01586914 154.79003906 C16.78818878 153.97734055 16.78818878 153.97734055 17.57611084 153.14822388 C22.60579921 148.05150097 27.72611643 144.65879891 35.04077148 144.37915039 C36.75410922 144.39845745 38.46731394 144.43597015 40.17993164 144.48925781 C42.06794562 144.4991329 43.95596768 144.50755135 45.84399414 144.51464844 C48.78268363 144.54775283 51.71951316 144.59473963 54.6574707 144.66870117 C67.99950805 145.41085515 67.99950805 145.41085515 79.33618164 139.41894531 C80.00246582 138.62576904 80.66875 137.83259277 81.35522461 137.01538086 C86.57432359 131.15494648 94.84414424 129.57516223 102.34399414 128.78222656 C113.70434837 128.35636984 124.09819196 131.40558132 132.75805664 138.86035156 C138.14075005 144.01511333 142.76877751 148.97461547 143.90917969 156.5234375 C144.04070129 163.86530534 144.04070129 163.86530534 144.03027344 167.23242188 C144.03148475 169.51453538 144.0912311 171.79016139 144.15454102 174.07128906 C144.28234958 184.77611394 142.10061705 191.64900216 134.56762695 199.67480469 C126.71530614 207.25256883 116.15816649 210.767507 105.46899414 211.09472656 C95.52488821 210.88235244 87.36343961 207.63170443 79.34399414 201.78222656 C78.31338867 200.51765625 78.31338867 200.51765625 77.26196289 199.22753906 C71.27506482 194.21040627 63.57647877 194.14892904 56.01977539 194.59082031 C45.44295871 196.54897753 38.47649243 204.18430563 31.15649414 211.59472656 C30.45639221 212.28876587 29.75629028 212.98280518 29.03497314 213.69787598 C21.06927845 221.32115869 21.06927845 221.32115869 16.69677734 231.08374023 C16.93417942 233.867565 17.46967849 236.13960049 18.34399414 238.78222656 C18.56537303 240.3402875 18.75763682 241.9030728 18.90649414 243.46972656 C18.98641602 244.28570312 19.06633789 245.10167969 19.14868164 245.94238281 C19.88003881 256.57631604 19.30572147 266.82445784 17.78149414 277.35644531 C17.63711914 278.48695313 17.49274414 279.61746094 17.34399414 280.78222656 C17.21395996 281.52794922 17.08392578 282.27367187 16.94995117 283.04199219 C17.57602298 287.39579017 20.30924922 289.87271369 23.21118164 293.05175781 C24.13829453 294.07584496 24.13829453 294.07584496 25.08413696 295.12062073 C27.10127552 297.30707336 29.15066479 299.45666681 31.21899414 301.59472656 C31.913396 302.31388245 32.60779785 303.03303833 33.32324219 303.77398682 C44.52401931 315.13460668 44.52401931 315.13460668 59.48120117 319.29272461 C69.81038158 318.91110562 69.81038158 318.91110562 78.14868164 313.34472656 C78.68525391 312.72645996 79.22182617 312.10819336 79.7746582 311.47119141 C82.12905286 308.9373236 84.82426964 307.76568751 87.96899414 306.40722656 C89.59708008 305.6840625 89.59708008 305.6840625 91.25805664 304.94628906 C102.27888137 300.78906657 113.66881064 302.24929689 124.34399414 306.78222656 C132.54501787 311.20344885 139.81059127 317.9909586 143.34399414 326.78222656 C143.58248118 329.32229424 143.71914283 331.75150515 143.75024414 334.29394531 C143.76164429 335.02160599 143.77304443 335.74926666 143.78479004 336.49897766 C143.80364758 338.03791532 143.81674118 339.57693297 143.82446289 341.1159668 C143.84379436 343.44565017 143.90581883 345.77173673 143.96899414 348.10058594 C144.09298123 356.79217461 143.52173743 363.15807519 137.34399414 369.78222656 C136.68915039 370.59175781 136.03430664 371.40128906 135.35961914 372.23535156 C126.88062969 380.86441162 117.22407617 384.59585447 105.17993164 384.84863281 C97.18863531 384.53393976 90.28559389 382.80516668 83.34399414 378.78222656 C81.98243539 377.25803395 80.64599291 375.71112323 79.33227539 374.14550781 C71.66204717 367.06783248 61.508485 368.72328125 51.71899414 368.96972656 C48.8010775 369.01634559 45.88424591 369.04965338 42.9659729 369.06062317 C41.16035274 369.07006731 39.35466769 369.10087319 37.54989624 369.1570282 C29.8019083 369.24433783 24.56127039 367.0352477 18.8972168 361.7578125 C17.75734118 360.60402104 16.62791846 359.43982816 15.50805664 358.26660156 C14.90263031 357.65077209 14.29720398 357.03494263 13.6734314 356.40045166 C11.76205617 354.45376355 9.86476659 352.49410255 7.96899414 350.53222656 C6.04999525 348.5579874 4.12811337 346.58677568 2.20028687 344.62115479 C1.00609135 343.40243241 -0.18271724 342.17840369 -1.36557007 340.94866943 C-2.75808734 339.52212947 -4.20256279 338.14663993 -5.65600586 336.78222656 C-6.31600586 336.78222656 -6.97600586 336.78222656 -7.65600586 336.78222656 C-9.08887765 338.39940967 -10.45225335 340.07846028 -11.78100586 341.78222656 C-21.33655204 353.68849816 -21.33655204 353.68849816 -27.12084961 357.33691406 C-29.76708672 359.01746275 -31.63406351 360.37334398 -33.65600586 362.78222656 C-34.3619087 366.26500228 -34.3619087 366.26500228 -34.40991211 370.02441406 C-34.49414429 371.92102783 -34.49414429 371.92102783 -34.58007812 373.85595703 C-34.60513428 374.82162598 -34.63019043 375.78729492 -34.65600586 376.78222656 C-33.52171143 376.77175293 -32.38741699 376.7612793 -31.21875 376.75048828 C-26.97513028 376.71404821 -22.73152415 376.69123941 -18.48779297 376.67236328 C-16.65769111 376.66236008 -14.82760502 376.64875321 -12.99755859 376.63134766 C-10.35371998 376.60684765 -7.71009429 376.59568643 -5.06616211 376.58691406 C-4.25953629 376.57659149 -3.45291046 376.56626892 -2.62184143 376.55563354 C7.02085697 376.55376636 14.1310046 378.22496334 21.34399414 384.78222656 C26.49823779 389.93647021 28.4708952 396.64014748 28.6652832 403.82373047 C28.65950376 405.63550246 28.640413 407.44726956 28.60961914 409.25878906 C28.61238857 411.2483743 28.61632973 413.2379582 28.62133789 415.22753906 C28.61297358 418.32626937 28.59377627 421.42397357 28.5534668 424.52246094 C28.52054791 427.53954871 28.53097766 430.55411896 28.54711914 433.57128906 C28.52345276 434.49124664 28.49978638 435.41120422 28.47540283 436.35903931 C28.53271066 441.44984514 29.10857327 444.10570815 32.78710938 447.75854492 C33.40980209 448.28604843 34.03249481 448.81355194 34.67405701 449.35704041 C40.70736526 454.50608897 42.94738976 464.15110769 43.59790039 471.74707031 C44.02841922 483.42662953 40.89322488 493.76124213 33.34399414 502.78222656 C27.70205171 508.57085949 22.11345718 513.02906572 13.71122742 513.27601624 C12.68446648 513.28102394 12.68446648 513.28102394 11.63696289 513.28613281 C10.91213211 513.29611801 10.18730133 513.30610321 9.44050598 513.31639099 C7.91351995 513.33150804 6.38643578 513.33861878 4.859375 513.33813477 C2.5472107 513.34468206 0.23938157 513.39917452 -2.07202148 513.45605469 C-10.72327523 513.55469175 -17.05441115 512.89879471 -23.65600586 506.78222656 C-24.30520996 506.23800049 -24.95441406 505.69377441 -25.62329102 505.13305664 C-33.05887062 498.75382322 -37.14267313 489.05199886 -38.47241211 479.49707031 C-39.29204605 467.37695133 -36.06592015 457.01829199 -28.33959961 447.65722656 C-26.65600586 445.78222656 -26.65600586 445.78222656 -25.09375 444.61425781 C-22.879853 441.79322146 -23.13018227 439.11927231 -22.96850586 435.59472656 C-22.86989258 433.68626953 -22.86989258 433.68626953 -22.76928711 431.73925781 C-22.7319043 430.7634375 -22.69452148 429.78761719 -22.65600586 428.78222656 C-23.8404126 428.80317383 -25.02481934 428.82412109 -26.24511719 428.84570312 C-30.68623517 428.91871327 -35.12730135 428.9642458 -39.56884766 429.00195312 C-41.4823502 429.02193076 -43.39579278 429.04912255 -45.30908203 429.08398438 C-69.79005157 429.51851999 -69.79005157 429.51851999 -78.59350586 421.59472656 C-85.24675581 414.06961684 -86.22641832 406.48614494 -85.90600586 396.71972656 C-85.88795898 395.66333984 -85.86991211 394.60695313 -85.85131836 393.51855469 C-85.80462599 390.93880106 -85.73916174 388.36101839 -85.65600586 385.78222656 C-86.24551025 385.91935059 -86.83501465 386.05647461 -87.44238281 386.19775391 C-119.52061862 393.51999553 -154.62155709 386.2994535 -182.47412109 369.18945312 C-187.85859799 365.76738009 -192.8397189 361.96819409 -197.65600586 357.78222656 C-198.48616211 357.07324219 -199.31631836 356.36425781 -200.17163086 355.63378906 C-225.60971639 333.39497196 -241.92042345 301.293243 -244.52709961 267.46191406 C-246.07756256 235.23107813 -238.24765956 203.81063543 -218.65600586 177.78222656 C-215.61443036 174.97318742 -214.34905278 173.88303339 -210.21850586 173.28222656 C-206.05419693 173.86669097 -203.90128937 175.15509229 -200.65600586 177.78222656 C-198.80221701 181.48980425 -198.80323238 184.83195972 -199.65600586 188.78222656 C-201.28600959 191.72418452 -203.05742225 194.44121846 -204.95336914 197.21166992 C-220.65894471 220.26833589 -225.80606572 249.22660756 -221.0925293 276.55761719 C-217.40110224 295.36985619 -209.61877583 313.49516575 -196.65600586 327.78222656 C-195.94831055 328.61882812 -195.24061523 329.45542969 -194.51147461 330.31738281 C-175.81135526 352.03048111 -147.99518012 364.56678623 -119.65600586 366.78222656 C-93.24725955 368.49192575 -64.16915695 360.20332919 -43.91772461 342.80566406 C-43.17135742 342.13792969 -42.42499023 341.47019531 -41.65600586 340.78222656 C-40.39723633 339.71875 -40.39723633 339.71875 -39.11303711 338.63378906 C-16.98760299 319.55436781 -4.81490298 291.57765723 -2.65600586 262.78222656 C-1.10644478 236.57156569 -9.29616648 207.99095931 -26.66772461 187.97363281 C-27.32385742 187.25046875 -27.97999023 186.52730469 -28.65600586 185.78222656 C-29.71754883 184.52732422 -29.71754883 184.52732422 -30.80053711 183.24707031 C-49.50065646 161.53397201 -77.3168316 148.9976669 -105.65600586 146.78222656 C-130.51832612 145.17264282 -157.34043618 152.45572875 -177.35522461 167.52050781 C-180.8544458 170.07479581 -183.26655377 170.51723077 -187.57006836 170.28222656 C-190.97295208 169.46655406 -192.59236223 167.49075882 -194.65600586 164.78222656 C-196.23056325 161.63311177 -196.00399704 159.26213841 -195.65600586 155.78222656 C-192.00782275 150.49914339 -187.69568433 147.52003026 -182.21850586 144.28222656 C-181.41936768 143.80446777 -180.62022949 143.32670898 -179.796875 142.83447266 C-151.89922745 126.46406512 -120.3975153 121.95582613 -88.65600586 126.78222656 C-87.66600586 127.11222656 -86.67600586 127.44222656 -85.65600586 127.78222656 C-85.68218994 127.13785645 -85.70837402 126.49348633 -85.73535156 125.82958984 C-85.84051506 122.85572577 -85.90470318 119.88225433 -85.96850586 116.90722656 C-86.03134766 115.38742188 -86.03134766 115.38742188 -86.09545898 113.83691406 C-86.22918974 105.49211521 -84.38576756 98.93185152 -78.72363281 92.63232422 C-72.45831924 86.47052086 -65.04076414 84.43994573 -56.38523865 84.44233704 C-55.10967857 84.46556282 -55.10967857 84.46556282 -53.80834961 84.48925781 C-52.9110463 84.49350266 -52.01374298 84.4977475 -51.08924866 84.50212097 C-48.25701343 84.51875293 -45.42552162 84.55637459 -42.59350586 84.59472656 C-40.65927143 84.60979347 -38.72502572 84.62347834 -36.79077148 84.63574219 C-32.07890175 84.66860545 -27.36757931 84.72027816 -22.65600586 84.78222656 C-22.72309721 82.54710464 -22.81679332 80.31277127 -22.92163086 78.07910156 C-22.9709375 76.83483398 -23.02024414 75.59056641 -23.07104492 74.30859375 C-23.88317558 69.41276104 -26.12676773 67.27478403 -29.58569336 63.91503906 C-36.35830384 56.93797242 -38.5090544 47.291312 -38.72241211 37.84082031 C-38.2279532 26.34839653 -34.02518856 17.55452793 -26.32788086 9.13378906 C-25.00530273 7.96976562 -25.00530273 7.96976562 -23.65600586 6.78222656 C-23.09260498 6.25564453 -22.5292041 5.7290625 -21.94873047 5.18652344 C-15.27022627 -0.22756868 -8.19965075 -0.13773506 0 0 Z M-14.46459961 27.93066406 C-17.47088653 32.60272964 -18.18063142 37.27703578 -17.24975586 42.73535156 C-15.37364328 49.20300283 -11.6129322 53.63736557 -5.75756836 56.87207031 C0.08895445 59.40411458 5.21688783 59.22992478 11.16430664 56.99707031 C15.97559728 54.31550868 19.07905068 49.98212824 21.78149414 45.28222656 C23.56581218 37.35192418 21.87412919 31.96668068 17.71899414 25.09472656 C13.49315185 20.98009064 8.20349567 18.62096038 2.28149414 18.28222656 C-4.98470306 19.20491827 -9.95443108 22.15469892 -14.46459961 27.93066406 Z M-1.65600586 78.78222656 C-1.70499023 80.02359375 -1.75397461 81.26496094 -1.80444336 82.54394531 C-1.87950385 84.1858935 -1.95505025 85.82781953 -2.03100586 87.46972656 C-2.07741211 88.6946582 -2.07741211 88.6946582 -2.12475586 89.94433594 C-2.60865943 99.90468442 -2.60865943 99.90468442 -6.40893555 103.38977051 C-9.10575042 105.06092257 -10.66585364 105.15981456 -13.82006836 105.16699219 C-14.84793457 105.17710327 -15.87580078 105.18721436 -16.93481445 105.19763184 C-18.03905762 105.1946106 -19.14330078 105.19158936 -20.28100586 105.18847656 C-21.42005371 105.19931274 -22.55910156 105.21014893 -23.73266602 105.22131348 C-28.60746112 105.26722965 -33.48220502 105.2786649 -38.35717773 105.29345703 C-41.91531455 105.30912955 -45.47300313 105.34212797 -49.03100586 105.37597656 C-50.13524902 105.37295532 -51.23949219 105.36993408 -52.37719727 105.36682129 C-53.91899658 105.38198792 -53.91899658 105.38198792 -55.49194336 105.39746094 C-56.84618408 105.4005426 -56.84618408 105.4005426 -58.2277832 105.40368652 C-61.15303931 105.85971001 -62.53470498 106.74171275 -64.65600586 108.78222656 C-65.20764599 111.48567067 -65.20764599 111.48567067 -65.04663086 114.54394531 C-65.03374023 115.66220703 -65.02084961 116.78046875 -65.00756836 117.93261719 C-64.97405273 119.09986328 -64.94053711 120.26710937 -64.90600586 121.46972656 C-64.88795898 122.64857422 -64.86991211 123.82742187 -64.85131836 125.04199219 C-64.80412445 127.95621582 -64.73829663 130.86881687 -64.65600586 133.78222656 C-63.34473325 134.45130416 -62.03195136 135.11742462 -60.71850586 135.78222656 C-59.98760742 136.15347656 -59.25670898 136.52472656 -58.50366211 136.90722656 C-56.84610514 137.8535606 -56.84610514 137.8535606 -55.65600586 137.78222656 C-55.61862305 136.75742188 -55.58124023 135.73261719 -55.54272461 134.67675781 C-55.47703507 133.31604594 -55.41058877 131.95537045 -55.34350586 130.59472656 C-55.32094727 129.92119141 -55.29838867 129.24765625 -55.27514648 128.55371094 C-55.04060514 124.18271311 -54.32124822 121.27665543 -51.65600586 117.78222656 C-49.14959177 116.52901952 -47.43189106 116.65093056 -44.62719727 116.64038086 C-43.57915924 116.63334641 -42.53112122 116.62631195 -41.45132446 116.61906433 C-40.31488495 116.61490005 -39.17844543 116.61073578 -38.00756836 116.60644531 C-35.61693452 116.58325023 -33.22630949 116.55913303 -30.83569336 116.53417969 C-27.05438323 116.49902186 -23.27339726 116.4696996 -19.49194336 116.45629883 C-15.85091644 116.44085867 -12.21084428 116.40067398 -8.57006836 116.35644531 C-6.87148178 116.35930794 -6.87148178 116.35930794 -5.13858032 116.36222839 C-4.08423798 116.34573746 -3.02989563 116.32924652 -1.94360352 116.31225586 C-1.01697906 116.30638962 -0.09035461 116.30052338 0.86434937 116.29447937 C4.12260854 115.62137795 5.32383228 114.3814371 7.34399414 111.78222656 C7.6935882 109.10050181 7.81323188 106.84284698 7.73461914 104.17285156 C7.72612946 103.08263702 7.72612946 103.08263702 7.71746826 101.97039795 C7.69513967 99.65699411 7.64495462 97.34515936 7.59399414 95.03222656 C7.57392437 93.46063441 7.55567443 91.88901788 7.53930664 90.31738281 C7.49528707 86.47172939 7.42628789 82.62724368 7.34399414 78.78222656 C4.37399414 78.78222656 1.40399414 78.78222656 -1.65600586 78.78222656 Z M89.34399414 157.78222656 C85.82830049 163.94265652 84.53987925 168.90403856 86.34399414 175.78222656 C88.86550099 181.98901266 92.85960454 185.85664284 98.71899414 189.09472656 C105.79276412 190.94738061 110.73334526 189.82738365 117.07055664 186.41503906 C121.53021404 183.21205488 123.64230613 178.8872906 125.34399414 173.78222656 C125.88233669 167.42978449 125.05118403 163.04404447 121.34399414 157.78222656 C116.93401987 152.95581404 112.52883076 150.33286296 105.96899414 149.46972656 C99.67296758 150.21925353 93.40332278 152.75296984 89.34399414 157.78222656 Z M29.34399414 171.78222656 C27.86639823 173.19583606 26.388022 174.60870608 24.89767456 176.00886536 C22.71335399 178.0733069 20.57262611 180.18032875 18.43164062 182.28955078 C17.32151875 183.37782827 16.20516444 184.4597807 15.08300781 185.53564453 C13.44579273 187.1062522 11.82887763 188.69541509 10.21508789 190.29003906 C9.71005234 190.76724396 9.20501678 191.24444885 8.68467712 191.7361145 C7.11172752 193.25113927 7.11172752 193.25113927 5.34399414 195.78222656 C5.51974085 199.41211045 6.91767004 202.45413699 8.34399414 205.78222656 C15.0551287 200.28612061 21.07120187 194.13462708 27.15649414 187.96972656 C29.22263274 185.87701383 31.29205979 183.78763366 33.36352539 181.70019531 C34.72634644 180.31997192 34.72634644 180.31997192 36.11669922 178.91186523 C39.48353923 175.69264509 41.44140179 175.62726771 46.00805664 175.46582031 C47.12954102 175.42392578 48.25102539 175.38203125 49.40649414 175.33886719 C50.58211914 175.29955078 51.75774414 175.26023438 52.96899414 175.21972656 C54.15235352 175.17654297 55.33571289 175.13335937 56.55493164 175.08886719 C59.48449742 174.9825523 62.41415003 174.88052015 65.34399414 174.78222656 C65.34399414 171.48222656 65.34399414 168.18222656 65.34399414 164.78222656 C60.84467191 164.57767105 56.34655499 164.45416381 51.84399414 164.34472656 C49.94133789 164.25674805 49.94133789 164.25674805 48.00024414 164.16699219 C39.05619499 164.00394962 35.23365833 165.2039698 29.34399414 171.78222656 Z M8.34399414 307.78222656 C7.82836914 308.85472656 7.31274414 309.92722656 6.78149414 311.03222656 C6.49145508 311.63550781 6.20141602 312.23878906 5.90258789 312.86035156 C5.20110629 315.2738407 5.53787067 316.41585064 6.34399414 318.78222656 C7.53648441 320.41069129 7.53648441 320.41069129 9.08789062 321.88256836 C9.66196152 322.45964035 10.23603241 323.03671234 10.82749939 323.63127136 C11.45040359 324.24182877 12.0733078 324.85238617 12.71508789 325.48144531 C13.3526149 326.11709915 13.99014191 326.75275299 14.64698792 327.40766907 C15.99439943 328.74836408 17.34540105 330.08545927 18.69970703 331.41918945 C20.77711271 333.4654109 22.84363047 335.52213807 24.90844727 337.58105469 C26.21837261 338.88181111 27.52889925 340.18196233 28.84008789 341.48144531 C29.46096786 342.09807541 30.08184784 342.71470551 30.72154236 343.35002136 C35.41328216 347.96366987 37.14168131 348.90926401 43.66430664 348.87988281 C45.54956055 348.87504883 45.54956055 348.87504883 47.47290039 348.87011719 C48.79161133 348.86173828 50.11032227 348.85335937 51.46899414 348.84472656 C52.80883626 348.83971146 54.14868014 348.83514857 55.48852539 348.83105469 C58.7737262 348.81923742 62.05883811 348.80276274 65.34399414 348.78222656 C65.34399414 345.48222656 65.34399414 342.18222656 65.34399414 338.78222656 C64.62856445 338.78859131 63.91313477 338.79495605 63.17602539 338.80151367 C59.8976491 338.81026096 56.62204582 338.76540733 53.34399414 338.71972656 C52.21864258 338.73068359 51.09329102 338.74164063 49.93383789 338.75292969 C43.18873521 338.61487203 39.17648584 337.95043904 34.41772461 333.05737305 C33.73339355 332.30657471 33.0490625 331.55577637 32.34399414 330.78222656 C30.93146507 329.37960602 29.51857623 327.97732841 28.09951782 326.58131409 C25.51183985 324.02560279 22.96137974 321.43315028 20.40649414 318.84472656 C18.33772376 316.74943753 16.26569416 314.65745043 14.19165039 312.56738281 C13.28423096 311.64836182 12.37681152 310.72934082 11.44189453 309.7824707 C9.706477 307.6672164 9.706477 307.6672164 8.34399414 307.78222656 Z M88.53540039 332.93066406 C85.52602266 337.60753306 84.83669509 342.26741465 85.73852539 347.73144531 C87.46869797 353.59170727 91.15850345 358.57216089 96.34399414 361.78222656 C101.85311581 364.00706416 106.638245 364.21127159 112.34399414 362.78222656 C117.90864185 359.89289025 121.63155696 355.88092241 124.65649414 350.40722656 C126.50914818 343.33345658 125.38915123 338.39287545 121.97680664 332.05566406 C118.77382246 327.59600667 114.44905818 325.48391458 109.34399414 323.78222656 C100.37557994 323.02219146 94.11706561 325.78248245 88.53540039 332.93066406 Z M-60.71850586 377.78222656 C-61.8187207 378.33910156 -61.8187207 378.33910156 -62.94116211 378.90722656 C-63.79000977 379.34035156 -63.79000977 379.34035156 -64.65600586 379.78222656 C-64.77192349 383.88615668 -64.84316187 387.98966763 -64.90600586 392.09472656 C-64.93952148 393.26197266 -64.97303711 394.42921875 -65.00756836 395.63183594 C-65.02045898 396.75009766 -65.03334961 397.86835938 -65.04663086 399.02050781 C-65.06757813 400.05216064 -65.08852539 401.08381348 -65.11010742 402.14672852 C-64.91021752 404.8621677 -64.91021752 404.8621677 -62.9493866 406.42388916 C-60.23013849 408.03446186 -58.65095078 408.15448259 -55.5078125 408.15112305 C-53.97085472 408.16144814 -53.97085472 408.16144814 -52.40284729 408.17198181 C-51.30174118 408.16582352 -50.20063507 408.15966522 -49.06616211 408.15332031 C-46.73217625 408.17070085 -44.39819191 408.18828525 -42.06420898 408.20605469 C-38.38620239 408.21613546 -34.70829329 408.21972183 -31.03027344 408.21801758 C-27.47943991 408.22158434 -23.9293615 408.24891542 -20.37866211 408.27832031 C-19.27958023 408.27013779 -18.18049835 408.26195526 -17.04811096 408.25352478 C-9.46507168 408.32756709 -9.46507168 408.32756709 -5.48583984 410.5637207 C-2.6774541 413.96863081 -2.55405755 416.82119278 -2.33959961 421.11035156 C-2.29770508 421.90957031 -2.25581055 422.70878906 -2.21264648 423.53222656 C-2.17333008 424.35722656 -2.13401367 425.18222656 -2.09350586 426.03222656 C-2.05032227 426.87269531 -2.00713867 427.71316406 -1.96264648 428.57910156 C-1.85692043 430.64663327 -1.7559929 432.71440937 -1.65600586 434.78222656 C1.31399414 434.78222656 4.28399414 434.78222656 7.34399414 434.78222656 C7.44301162 430.15582504 7.51553063 425.53004269 7.5637207 420.90283203 C7.58381294 419.32948052 7.61109213 417.75620348 7.64575195 416.18310547 C7.69437908 413.91908384 7.71698549 411.65605084 7.73461914 409.39160156 C7.75526428 408.69041199 7.77590942 407.98922241 7.79718018 407.26678467 C7.79865818 404.03617304 7.65371168 402.18079704 5.644104 399.59466553 C2.87128643 397.40974267 1.57960896 397.28773509 -1.91186523 397.29980469 C-2.9597522 397.29299683 -4.00763916 397.28618896 -5.08728027 397.2791748 C-6.21339722 397.29049438 -7.33951416 397.30181396 -8.49975586 397.31347656 C-10.2416217 397.30290222 -10.2416217 397.30290222 -12.01867676 397.29211426 C-15.73134318 397.27003658 -19.44329268 397.2730997 -23.15600586 397.28222656 C-28.04181397 397.29423722 -32.92654288 397.28063625 -37.81225586 397.25097656 C-38.9383728 397.26229614 -40.06448975 397.27361572 -41.22473145 397.28527832 C-42.79656189 397.27506653 -42.79656189 397.27506653 -44.40014648 397.26464844 C-45.32073853 397.26783081 -46.24133057 397.27101318 -47.18981934 397.27429199 C-50.4139045 396.63100697 -51.58987235 395.27831366 -53.65600586 392.78222656 C-55.1770722 389.74009389 -55.03029923 386.50175084 -55.21850586 383.15722656 C-55.26168945 382.45082031 -55.30487305 381.74441406 -55.34936523 381.01660156 C-55.45545336 379.27204119 -55.55623475 377.5271596 -55.65600586 375.78222656 C-57.50031998 375.78222656 -59.10615985 376.96325716 -60.71850586 377.78222656 Z M-11.31225586 460.10253906 C-14.95583091 464.16823562 -17.55310589 469.36080265 -17.71850586 474.86035156 C-17.13206605 481.26231944 -15.00665226 485.7791448 -10.28100586 490.03222656 C-5.66771968 493.71129821 -1.88697252 495.2924292 4.16430664 495.08691406 C10.39031083 494.2166124 14.97793824 491.7396571 18.84399414 486.78222656 C22.31548377 481.84499687 23.10637991 476.77240048 22.34399414 470.78222656 C20.43380095 464.63738824 16.74747773 460.21875169 11.34399414 456.78222656 C3.23450414 453.75834893 -4.4243269 454.61169003 -11.31225586 460.10253906 Z " fill="#000000" transform="translate(368.656005859375,-0.7822265625)"/>
<path d="M0 0 C7.79616078 -0.07586402 15.59222693 -0.12852114 23.38867188 -0.16479492 C26.04267941 -0.17991145 28.69666186 -0.20040495 31.35058594 -0.22631836 C35.158266 -0.26257521 38.96561675 -0.27969763 42.7734375 -0.29296875 C44.56254044 -0.31619453 44.56254044 -0.31619453 46.38778687 -0.33988953 C47.48877716 -0.34011612 48.58976746 -0.34034271 49.72412109 -0.34057617 C50.69674896 -0.34723801 51.66937683 -0.35389984 52.67147827 -0.36076355 C53.43989044 -0.24171158 54.20830261 -0.12265961 55 0 C57.61094241 3.91641362 57.36040199 7.31579459 57.40625 11.8671875 C57.41765015 12.73892609 57.42905029 13.61066467 57.4407959 14.50881958 C57.45968327 16.35299839 57.4727589 18.1972445 57.48046875 20.04150391 C57.49988487 22.85829761 57.56192705 25.67217269 57.625 28.48828125 C57.63806077 30.28123269 57.64856145 32.07420498 57.65625 33.8671875 C57.6809436 34.70692108 57.70563721 35.54665466 57.7310791 36.41183472 C57.68768422 42.1289644 57.68768422 42.1289644 55.69458008 44.6534729 C52.99633232 46.96964015 50.61822587 48.70037971 47 48.625 C46.38125 48.63789062 45.7625 48.65078125 45.125 48.6640625 C41.54069082 47.54396588 39.02775911 46.14456648 37 43 C36.25293527 38.70932276 36.43542066 34.5259503 36.625 30.1875 C36.66560547 28.43276367 36.66560547 28.43276367 36.70703125 26.64257812 C36.77760227 23.76092804 36.88521601 20.88022779 37 18 C30.07 18 23.14 18 16 18 C15.67 20.64 15.34 23.28 15 26 C14.64599329 27.7525053 14.26005315 29.49907442 13.83251953 31.23510742 C13.48678391 32.6514875 13.48678391 32.6514875 13.13406372 34.09648132 C12.88615082 35.08944717 12.63823792 36.08241302 12.3828125 37.10546875 C11.99607864 38.66881706 11.99607864 38.66881706 11.60153198 40.26374817 C11.05758676 42.45532697 10.51116612 44.6462927 9.96240234 46.83666992 C9.12560876 50.18506408 8.30269817 53.53667568 7.48046875 56.88867188 C6.94875921 59.02364751 6.41623499 61.15842045 5.8828125 63.29296875 C5.51701584 64.79152657 5.51701584 64.79152657 5.14382935 66.32035828 C2.30019798 77.54618962 2.30019798 77.54618962 -1.73901367 80.09912109 C-2.37556885 80.32164551 -3.01212402 80.54416992 -3.66796875 80.7734375 C-4.38863525 81.03729248 -5.10930176 81.30114746 -5.85180664 81.57299805 C-7.00797485 81.96998901 -7.00797485 81.96998901 -8.1875 82.375 C-9.81619029 82.96969005 -11.4437757 83.5674137 -13.0703125 84.16796875 C-13.89305664 84.46880371 -14.71580078 84.76963867 -15.56347656 85.07958984 C-19.28773068 86.48644736 -22.92496491 88.0718358 -26.5625 89.6875 C-27.22451416 89.97874756 -27.88652832 90.26999512 -28.56860352 90.57006836 C-31.32490184 91.78814624 -34.06508678 93.03103718 -36.78515625 94.328125 C-37.55730469 94.69421875 -38.32945312 95.0603125 -39.125 95.4375 C-39.74632812 95.74558594 -40.36765625 96.05367188 -41.0078125 96.37109375 C-45.0354218 97.64255473 -48.17175187 97.37264112 -52.01000977 95.64575195 C-53.05987061 95.01628662 -54.10973145 94.38682129 -55.19140625 93.73828125 C-55.77049744 93.39572296 -56.34958862 93.05316467 -56.94622803 92.70022583 C-58.8261844 91.5835923 -60.69422842 90.44855587 -62.5625 89.3125 C-63.85577691 88.53881283 -65.14964593 87.76611458 -66.4440918 86.99438477 C-77.37410074 80.45836983 -88.21861216 73.77803037 -99 67 C-104.47313966 71.56147547 -109.53954809 76.40741321 -114.55859375 81.4609375 C-115.34774673 82.25150543 -116.13689972 83.04207336 -116.94996643 83.8565979 C-119.44818661 86.36037626 -121.94289044 88.86762475 -124.4375 91.375 C-126.13974208 93.08226248 -127.84221373 94.78929609 -129.54492188 96.49609375 C-133.69927363 100.66141898 -137.85075081 104.82959219 -142 109 C-136.18638997 119.26246121 -130.22258397 129.42895473 -124.1875 139.5625 C-123.33387726 140.99798318 -122.48036121 142.43352982 -121.62695312 143.86914062 C-117.5391337 150.83745358 -117.5391337 150.83745358 -113.23608398 157.67114258 C-111.17290897 161.55828982 -111.98154389 164.8459956 -113 169 C-114.15625231 172.08014668 -115.60765686 174.95870563 -117.125 177.875 C-120.87469766 185.37064787 -123.97473903 192.9018735 -126.61572266 200.85693359 C-128.07438061 205.09755864 -129.1948054 208.34712723 -133 211 C-135.85273966 212.17641587 -138.76821632 212.96750975 -141.75 213.75 C-142.63945312 213.99314941 -143.52890625 214.23629883 -144.4453125 214.48681641 C-147.62509647 215.34516627 -150.81146123 216.17476263 -154 217 C-155.34570691 217.35057142 -156.69140985 217.70115806 -158.03710938 218.05175781 C-162.35454951 219.17346695 -166.67660671 220.27649495 -171 221.375 C-171.70717163 221.556073 -172.41434326 221.737146 -173.14294434 221.92370605 C-175.17706135 222.4426002 -177.21311496 222.95303189 -179.25 223.4609375 C-180.43078125 223.75790527 -181.6115625 224.05487305 -182.828125 224.36083984 C-186 225 -186 225 -191 225 C-191 245.46 -191 265.92 -191 287 C-188.03 287.33 -185.06 287.66 -182 288 C-180.23858692 288.34547073 -178.48354611 288.7281669 -176.74316406 289.16748047 C-175.81900696 289.39797089 -174.89484985 289.6284613 -173.94268799 289.86593628 C-172.9767572 290.11384918 -172.01082642 290.36176208 -171.015625 290.6171875 C-169.99700378 290.87501007 -168.97838257 291.13283264 -167.92889404 291.39846802 C-165.79019563 291.94178609 -163.65228442 292.48821149 -161.51513672 293.03759766 C-158.24834275 293.87542503 -154.97795614 294.69799891 -151.70703125 295.51953125 C-149.62216189 296.05116673 -147.53751822 296.58368825 -145.453125 297.1171875 C-144.47909729 297.36105194 -143.50506958 297.60491638 -142.50152588 297.85617065 C-131.42135265 300.73448907 -131.42135265 300.73448907 -128.86914062 304.80249023 C-128.63388672 305.46450439 -128.39863281 306.12651855 -128.15625 306.80859375 C-127.88224365 307.54956299 -127.6082373 308.29053223 -127.32592773 309.05395508 C-127.05337158 309.8405249 -126.78081543 310.62709473 -126.5 311.4375 C-125.89816259 313.07589851 -125.29529628 314.71391944 -124.69140625 316.3515625 C-124.40281738 317.14981445 -124.11422852 317.94806641 -123.81689453 318.77050781 C-120.77168437 327.08158349 -117.07650645 335.07291651 -113.13671875 342.9921875 C-111.4406587 347.48004398 -111.36875835 350.59697526 -113.35424805 355.01000977 C-113.98371338 356.05987061 -114.61317871 357.10973145 -115.26171875 358.19140625 C-115.60427704 358.77049744 -115.94683533 359.34958862 -116.29977417 359.94622803 C-117.4164077 361.8261844 -118.55144413 363.69422842 -119.6875 365.5625 C-120.46118717 366.85577691 -121.23388542 368.14964593 -122.00561523 369.4440918 C-128.54163017 380.37410074 -135.22196963 391.21861216 -142 402 C-137.43852453 407.47313966 -132.59258679 412.53954809 -127.5390625 417.55859375 C-126.74849457 418.34774673 -125.95792664 419.13689972 -125.1434021 419.94996643 C-122.63962374 422.44818661 -120.13237525 424.94289044 -117.625 427.4375 C-115.91773752 429.13974208 -114.21070391 430.84221373 -112.50390625 432.54492188 C-108.33858102 436.69927363 -104.17040781 440.85075081 -100 445 C-89.73753879 439.18638997 -79.57104527 433.22258397 -69.4375 427.1875 C-68.00201682 426.33387726 -66.56647018 425.48036121 -65.13085938 424.62695312 C-58.16254642 420.5391337 -58.16254642 420.5391337 -51.32885742 416.23608398 C-47.44171018 414.17290897 -44.1540044 414.98154389 -40 416 C-36.91985332 417.15625231 -34.04129437 418.60765686 -31.125 420.125 C-23.62935213 423.87469766 -16.0981265 426.97473903 -8.14306641 429.61572266 C-3.90407056 431.07382021 -0.69936473 432.22747319 2 436 C2.9038318 438.36991349 3.58101292 440.55390262 4.1875 443 C4.38110107 443.73750488 4.57470215 444.47500977 4.77416992 445.23486328 C5.5322647 448.15261054 6.26468436 451.07642546 7 454 C7.3668418 455.4347421 7.7344061 456.86929959 8.10253906 458.30371094 C9.34816812 463.15854506 10.58180435 468.01636178 11.8125 472.875 C12.01926361 473.68743164 12.22602722 474.49986328 12.4390564 475.33691406 C13.03348718 477.67908888 13.62122226 480.02284332 14.20703125 482.3671875 C14.478535 483.43185745 14.478535 483.43185745 14.75552368 484.51803589 C15.57469111 487.82469536 16 490.56346136 16 494 C22.93 494 29.86 494 37 494 C36.80296778 487.64209145 36.80296778 487.64209145 36.54956055 481.28637695 C36.47873877 476.75149882 36.51225407 474.65225685 39.3046875 470.91796875 C42.70152399 468.50079959 44.83726299 468 49 468 C53.01519063 469.51516628 54.60368353 470.4055253 57 474 C57.19565774 476.6506087 57.28011077 479.19350333 57.265625 481.84375 C57.26753845 482.60925171 57.2694519 483.37475342 57.27142334 484.16345215 C57.27278333 485.78068369 57.26909986 487.39792621 57.26074219 489.01513672 C57.25003973 491.4908093 57.26064344 493.96575624 57.2734375 496.44140625 C57.27211587 498.01302244 57.26955341 499.58463817 57.265625 501.15625 C57.26967346 501.89693726 57.27372192 502.63762451 57.27789307 503.40075684 C57.24372814 507.14449068 57.13023445 508.80464833 55 512 C52.67147827 512.36076355 52.67147827 512.36076355 49.72412109 512.34057617 C48.07263565 512.34023628 48.07263565 512.34023628 46.38778687 512.33988953 C45.19505157 512.32440567 44.00231628 512.30892181 42.7734375 512.29296875 C41.55548492 512.28872391 40.33753235 512.28447906 39.08267212 512.28010559 C35.17989296 512.26326831 31.27762396 512.22560595 27.375 512.1875 C24.73438244 512.17245974 22.09375681 512.15877019 19.453125 512.14648438 C12.96857496 512.11334822 6.48432392 512.06309861 0 512 C-2.9992452 504.43314498 -4.96860988 497.0318835 -6.49609375 489.05078125 C-7.22087925 485.63817188 -7.96154286 482.22922257 -8.70239258 478.82006836 C-9.19230288 476.48245918 -9.65203011 474.13831983 -10.08129883 471.78881836 C-12.04812724 458.65690987 -12.04812724 458.65690987 -19.29864502 448.17718506 C-24.5020796 445.35933285 -29.91954279 443.83096872 -35.681427 442.59750366 C-38 442 -38 442 -41.27514648 440.2121582 C-43.97761674 438.69671551 -43.97761674 438.69671551 -46.99731445 439.59204102 C-50.15262908 441.07156776 -53.07906886 442.69294964 -56.04296875 444.52734375 C-56.60487915 444.87254059 -57.16678955 445.21773743 -57.74572754 445.57339478 C-58.94376993 446.30990198 -60.14026022 447.04893905 -61.33529663 447.79031372 C-63.20633317 448.94916457 -65.08315116 450.09802024 -66.9621582 451.24389648 C-71.65668369 454.10721364 -76.3487209 456.97409213 -81.01953125 459.87597656 C-83.56530266 461.45570239 -86.1240558 463.01168344 -88.6875 464.5625 C-89.40897217 465.02068115 -90.13044434 465.4788623 -90.8737793 465.95092773 C-95.86772155 468.935779 -100.21373238 470.36340571 -106 469 C-107.77033997 467.80529785 -107.77033997 467.80529785 -109.53833008 466.17773438 C-110.23284775 465.54052963 -110.92736542 464.90332489 -111.64292908 464.24681091 C-119.96447066 456.31453774 -128.12672381 448.22323658 -136.28320312 440.12182617 C-138.68046615 437.74245256 -141.08598318 435.37191474 -143.49902344 433.00854492 C-146.43291312 430.13493201 -149.35172526 427.24678498 -152.26047134 424.34773064 C-153.36450938 423.25221936 -154.47365167 422.16182587 -155.58806992 421.07687569 C-166.74514134 410.19951846 -166.74514134 410.19951846 -167 403 C-165.96289062 399.65283203 -165.96289062 399.65283203 -164.15625 396.3828125 C-163.67315369 395.49011154 -163.67315369 395.49011154 -163.18029785 394.57937622 C-162.149847 392.70093349 -161.08210724 390.84910739 -160 389 C-159.65759277 388.40908569 -159.31518555 387.81817139 -158.96240234 387.20935059 C-156.54158742 383.05622257 -154.03106912 378.96156313 -151.5 374.875 C-150.77157248 373.69175262 -150.04370709 372.50815899 -149.31640625 371.32421875 C-148.77886719 370.44966034 -148.77886719 370.44966034 -148.23046875 369.55743408 C-147.17151337 367.82959194 -146.11891244 366.09798672 -145.06640625 364.36621094 C-143.68594361 362.11741382 -142.27674272 359.88601377 -140.83984375 357.67285156 C-140.18113281 356.62838867 -139.52242188 355.58392578 -138.84375 354.5078125 C-137.94946289 353.12940186 -137.94946289 353.12940186 -137.03710938 351.72314453 C-135.64829363 348.07652239 -136.45965176 346.51412779 -138 343 C-138.31203369 342.1850708 -138.62406738 341.3701416 -138.94555664 340.53051758 C-139.26387451 339.74314209 -139.58219238 338.9557666 -139.91015625 338.14453125 C-140.26013672 337.27505859 -140.61011719 336.40558594 -140.97070312 335.50976562 C-141.33099609 334.61966797 -141.69128906 333.72957031 -142.0625 332.8125 C-142.78332675 331.02765641 -143.50341157 329.24251296 -144.22265625 327.45703125 C-144.53984619 326.67303955 -144.85703613 325.88904785 -145.18383789 325.08129883 C-145.84049912 323.40674393 -146.43119968 321.70640097 -147 320 C-149.38679521 318.98685898 -149.38679521 318.98685898 -152.37426758 318.31420898 C-154.09659355 317.87376503 -154.09659355 317.87376503 -155.85371399 317.42442322 C-157.10468369 317.11807449 -158.35565338 316.81172577 -159.64453125 316.49609375 C-161.594729 316.00115699 -163.5449257 315.50621603 -165.49505901 315.01102543 C-168.2354766 314.31858183 -170.9787766 313.63794936 -173.72210693 312.95715332 C-178.51114621 311.7666403 -183.29615339 310.56008641 -188.08024597 309.34986877 C-190.62856469 308.70649275 -193.17827038 308.06858108 -195.72944641 307.43663025 C-197.46595711 307.00091454 -197.46595711 307.00091454 -199.23754883 306.55639648 C-200.25601395 306.30341293 -201.27447906 306.05042938 -202.32380676 305.78977966 C-205 305 -205 305 -209 303 C-209 271.98 -209 240.96 -209 209 C-196.65599012 204.51126913 -196.65599012 204.51126913 -192.1965332 203.68579102 C-191.20212723 203.49360489 -190.20772125 203.30141876 -189.18318176 203.10340881 C-188.14948959 202.90557297 -187.11579742 202.70773712 -186.05078125 202.50390625 C-182.63817188 201.77912075 -179.22922257 201.03845714 -175.82006836 200.29760742 C-173.48245918 199.80769712 -171.13831983 199.34796989 -168.78881836 198.91870117 C-155.65690987 196.95187276 -155.65690987 196.95187276 -145.17718506 189.70135498 C-142.35933285 184.4979204 -140.83096872 179.08045721 -139.59750366 173.318573 C-139 171 -139 171 -137.2121582 167.72485352 C-135.69671551 165.02238326 -135.69671551 165.02238326 -136.59204102 162.00268555 C-138.07156776 158.84737092 -139.69294964 155.92093114 -141.52734375 152.95703125 C-141.87249527 152.39493958 -142.21764679 151.8328479 -142.57325745 151.25372314 C-143.30965263 150.05545726 -144.04864546 148.85878444 -144.79003906 147.66360474 C-146.72667091 144.53939521 -148.64088293 141.40147008 -150.55859375 138.265625 C-150.93950165 137.64393936 -151.32040955 137.02225372 -151.71286011 136.38172913 C-155.02572865 130.9715008 -158.29360272 125.53663563 -161.5 120.0625 C-161.94980225 119.30751221 -162.39960449 118.55252441 -162.86303711 117.7746582 C-166.95185078 110.74962047 -166.95185078 110.74962047 -167 107 C-165.10640096 101.63042164 -162.63709865 98.06442496 -158.55053711 94.08056641 C-158.00711166 93.53495056 -157.46368622 92.98933472 -156.90379333 92.42718506 C-155.12110309 90.6421998 -153.32461504 88.87185538 -151.52734375 87.1015625 C-150.28008707 85.85923343 -149.0336441 84.61608692 -147.78797913 83.37216187 C-145.18389178 80.77569323 -142.57350117 78.18580517 -139.95776367 75.60107422 C-136.60095814 72.28398634 -133.25514273 68.95608785 -129.91330624 65.62392616 C-126.72567855 62.44625409 -123.53310733 59.2735695 -120.33984375 56.1015625 C-119.7296382 55.49475269 -119.11943264 54.88794289 -118.49073601 54.2627449 C-116.76987976 52.55343209 -115.04559633 50.84766149 -113.32006836 49.14306641 C-112.55246185 48.37949326 -112.55246185 48.37949326 -111.76934814 47.60049438 C-108.37497116 44.25783687 -106.55868048 42.84572738 -101.80078125 42.72265625 C-97.12365649 42.79068377 -94.23196057 43.9923347 -90.1875 46.4375 C-89.54369385 46.8193042 -88.8998877 47.2011084 -88.23657227 47.59448242 C-85.81125174 49.04210333 -83.40684332 50.52185609 -81 52 C-78.66221506 53.4153334 -76.32368143 54.82937523 -73.984375 56.2421875 C-69.64332745 58.8665013 -65.307502 61.49897236 -60.98127747 64.1476593 C-59.29811655 65.17527007 -57.6098256 66.19446345 -55.92138672 67.21337891 C-54.19953302 68.26640626 -52.49098423 69.34279725 -50.81689453 70.47021484 C-48.00527878 72.31097944 -46.57084992 73.10111289 -43.19921875 72.50390625 C-42.14347656 72.00761719 -41.08773437 71.51132813 -40 71 C-38.38438463 70.35602307 -36.76557667 69.72002709 -35.14453125 69.08984375 C-33.36648317 68.37414315 -31.58915462 67.65665274 -29.8125 66.9375 C-28.02765641 66.21667325 -26.24251296 65.49658843 -24.45703125 64.77734375 C-23.67303955 64.46015381 -22.88904785 64.14296387 -22.08129883 63.81616211 C-20.40674393 63.15950088 -18.70640097 62.56880032 -17 62 C-15.98685898 59.61320479 -15.98685898 59.61320479 -15.31420898 56.62573242 C-15.02057968 55.47751511 -14.72695038 54.32929779 -14.42442322 53.14628601 C-14.11807449 51.89531631 -13.81172577 50.64434662 -13.49609375 49.35546875 C-13.00115699 47.405271 -12.50621603 45.4550743 -12.01102543 43.50494099 C-11.31858183 40.7645234 -10.63794936 38.0212234 -9.95715332 35.27789307 C-8.7666403 30.48885379 -7.56008641 25.70384661 -6.34986877 20.91975403 C-5.70649275 18.37143531 -5.06858108 15.82172962 -4.43663025 13.27055359 C-4.14615311 12.11287979 -3.85567596 10.95520599 -3.55639648 9.76245117 C-3.30341293 8.74398605 -3.05042938 7.72552094 -2.78977966 6.67619324 C-2.07575252 4.25668981 -1.21315167 2.20375242 0 0 Z " fill="#000000" transform="translate(209,0)"/>
<path d="M0 0 C2.87029869 1.79393668 4.49131638 2.98263276 6 6 C6.08372659 7.52148326 6.10730027 9.04655778 6.09765625 10.5703125 C6.09282227 11.91416016 6.09282227 11.91416016 6.08789062 13.28515625 C6.07532227 14.69087891 6.07532227 14.69087891 6.0625 16.125 C6.05798828 17.06988281 6.05347656 18.01476562 6.04882812 18.98828125 C6.03702375 21.3255477 6.01908799 23.66278169 6 26 C9.96 26 13.92 26 18 26 C17.95359375 24.61425781 17.9071875 23.22851562 17.859375 21.80078125 C17.82184873 19.97137576 17.78544949 18.14194691 17.75 16.3125 C17.71648437 15.40048828 17.68296875 14.48847656 17.6484375 13.54882812 C17.58492439 9.18230205 17.56277514 6.71274879 19.890625 2.91796875 C23.12605839 -0.02387902 25.40101604 -0.1992886 29.734375 -0.5234375 C33.38720271 0.32049166 35.91230539 1.93905646 38 5 C38.73042346 8.6327387 38.56811594 12.12596615 38.375 15.8125 C38.33439453 17.28106445 38.33439453 17.28106445 38.29296875 18.77929688 C38.22249508 21.18714713 38.11488203 23.59385963 38 26 C41.96 26 45.92 26 50 26 C49.95359375 24.61425781 49.9071875 23.22851562 49.859375 21.80078125 C49.82184873 19.97137576 49.78544949 18.14194691 49.75 16.3125 C49.71648437 15.40048828 49.68296875 14.48847656 49.6484375 13.54882812 C49.58492439 9.18230205 49.56277514 6.71274879 51.890625 2.91796875 C55.41821108 -0.28952156 58.10785363 -0.38920062 62.73828125 -0.359375 C66.32520929 0.21056866 67.86838894 2.20226049 70 5 C71.20029908 7.40059817 71.11459743 8.89360649 71.09765625 11.5703125 C71.09443359 12.46621094 71.09121094 13.36210937 71.08789062 14.28515625 C71.07951172 15.22230469 71.07113281 16.15945312 71.0625 17.125 C71.05798828 18.06988281 71.05347656 19.01476562 71.04882812 19.98828125 C71.03702357 22.32558387 71.02055759 24.66276061 71 27 C71.90363281 27.26296875 72.80726563 27.5259375 73.73828125 27.796875 C79.62137411 29.96692602 83.78347785 33.9851352 87 39.3125 C88 42 88 42 88 44 C88.57967529 43.98428955 89.15935059 43.9685791 89.7565918 43.95239258 C92.40012739 43.88977209 95.04350655 43.85092482 97.6875 43.8125 C98.59951172 43.78736328 99.51152344 43.76222656 100.45117188 43.73632812 C109.03230051 43.64271581 109.03230051 43.64271581 113 47 C115.6790573 51.01858595 115.69610694 54.27641721 115 59 C113.20606332 61.87029869 112.01736724 63.49131638 109 65 C107.47851674 65.08372659 105.95344222 65.10730027 104.4296875 65.09765625 C103.53378906 65.09443359 102.63789063 65.09121094 101.71484375 65.08789062 C100.30912109 65.07532227 100.30912109 65.07532227 98.875 65.0625 C97.93011719 65.05798828 96.98523438 65.05347656 96.01171875 65.04882812 C93.6744523 65.03702375 91.33721831 65.01908799 89 65 C89 68.96 89 72.92 89 77 C91.07861328 76.93039063 91.07861328 76.93039063 93.19921875 76.859375 C95.02862424 76.82184873 96.85805309 76.78544949 98.6875 76.75 C99.59951172 76.71648437 100.51152344 76.68296875 101.45117188 76.6484375 C105.81769795 76.58492439 108.28725121 76.56277514 112.08203125 78.890625 C115.06764227 82.17418905 115.3333847 84.51518329 115.29296875 88.9609375 C114.83745033 92.13134567 113.24684343 93.8192402 111 96 C108.59940183 97.20029908 107.10639351 97.11459743 104.4296875 97.09765625 C103.53378906 97.09443359 102.63789063 97.09121094 101.71484375 97.08789062 C100.30912109 97.07532227 100.30912109 97.07532227 98.875 97.0625 C97.93011719 97.05798828 96.98523438 97.05347656 96.01171875 97.04882812 C93.6744523 97.03702375 91.33721831 97.01908799 89 97 C89 100.96 89 104.92 89 109 C91.07861328 108.93039062 91.07861328 108.93039062 93.19921875 108.859375 C95.02862424 108.82184873 96.85805309 108.78544949 98.6875 108.75 C99.59951172 108.71648437 100.51152344 108.68296875 101.45117188 108.6484375 C105.81769795 108.58492439 108.28725121 108.56277514 112.08203125 110.890625 C115.28952156 114.41821108 115.38920062 117.10785363 115.359375 121.73828125 C114.78943134 125.32520929 112.79773951 126.86838894 110 129 C107.59940183 130.20029908 106.10639351 130.11459743 103.4296875 130.09765625 C102.53378906 130.09443359 101.63789063 130.09121094 100.71484375 130.08789062 C99.77769531 130.07951172 98.84054687 130.07113281 97.875 130.0625 C96.93011719 130.05798828 95.98523438 130.05347656 95.01171875 130.04882812 C92.67441613 130.03702357 90.33723939 130.02055759 88 130 C87.73703125 130.90363281 87.4740625 131.80726563 87.203125 132.73828125 C85.03307398 138.62137411 81.0148648 142.78347785 75.6875 146 C73 147 73 147 71 147 C71.02356567 147.86951294 71.02356567 147.86951294 71.04760742 148.7565918 C71.11022791 151.40012739 71.14907518 154.04350655 71.1875 156.6875 C71.21263672 157.59951172 71.23777344 158.51152344 71.26367188 159.45117188 C71.35728419 168.03230051 71.35728419 168.03230051 68 172 C63.98141405 174.6790573 60.72358279 174.69610694 56 174 C53.12970131 172.20606332 51.50868362 171.01736724 50 168 C49.91627341 166.47851674 49.89269973 164.95344222 49.90234375 163.4296875 C49.90717773 162.08583984 49.90717773 162.08583984 49.91210938 160.71484375 C49.92467773 159.30912109 49.92467773 159.30912109 49.9375 157.875 C49.94201172 156.93011719 49.94652344 155.98523438 49.95117188 155.01171875 C49.96297625 152.6744523 49.98091201 150.33721831 50 148 C46.04 148 42.08 148 38 148 C38.06960938 149.45792969 38.13921875 150.91585937 38.2109375 152.41796875 C38.26722426 154.34109969 38.32182343 156.26428055 38.375 158.1875 C38.42527344 159.14720703 38.47554688 160.10691406 38.52734375 161.09570312 C38.67120133 168.02484323 38.67120133 168.02484323 36.78051758 170.77172852 C34.11160715 173.12872659 31.52748245 174.68781766 27.9375 174.5625 C23.63883954 173.94840565 21.98703004 173.0775461 19 170 C17.79970092 167.59940183 17.88540257 166.10639351 17.90234375 163.4296875 C17.90717773 162.08583984 17.90717773 162.08583984 17.91210938 160.71484375 C17.92467773 159.30912109 17.92467773 159.30912109 17.9375 157.875 C17.94201172 156.93011719 17.94652344 155.98523438 17.95117188 155.01171875 C17.96297625 152.6744523 17.98091201 150.33721831 18 148 C14.04 148 10.08 148 6 148 C6.04640625 149.38574219 6.0928125 150.77148438 6.140625 152.19921875 C6.17815127 154.02862424 6.21455051 155.85805309 6.25 157.6875 C6.28351563 158.59951172 6.31703125 159.51152344 6.3515625 160.45117188 C6.41507561 164.81769795 6.43722486 167.28725121 4.109375 171.08203125 C0.58178892 174.28952156 -2.10785363 174.38920062 -6.73828125 174.359375 C-10.32520929 173.78943134 -11.86838894 171.79773951 -14 169 C-15.20029908 166.59940183 -15.11459743 165.10639351 -15.09765625 162.4296875 C-15.09443359 161.53378906 -15.09121094 160.63789063 -15.08789062 159.71484375 C-15.07532227 158.30912109 -15.07532227 158.30912109 -15.0625 156.875 C-15.05798828 155.93011719 -15.05347656 154.98523438 -15.04882812 154.01171875 C-15.03702357 151.67441613 -15.02055759 149.33723939 -15 147 C-15.90363281 146.73703125 -16.80726563 146.4740625 -17.73828125 146.203125 C-23.62137411 144.03307398 -27.78347785 140.0148648 -31 134.6875 C-32 132 -32 132 -32 130 C-32.86951294 130.02356567 -32.86951294 130.02356567 -33.7565918 130.04760742 C-36.40012739 130.11022791 -39.04350655 130.14907518 -41.6875 130.1875 C-42.59951172 130.21263672 -43.51152344 130.23777344 -44.45117188 130.26367188 C-53.03230051 130.35728419 -53.03230051 130.35728419 -57 127 C-59.6790573 122.98141405 -59.69610694 119.72358279 -59 115 C-57.20606332 112.12970131 -56.01736724 110.50868362 -53 109 C-51.47851674 108.91627341 -49.95344222 108.89269973 -48.4296875 108.90234375 C-47.53378906 108.90556641 -46.63789063 108.90878906 -45.71484375 108.91210938 C-44.30912109 108.92467773 -44.30912109 108.92467773 -42.875 108.9375 C-41.93011719 108.94201172 -40.98523438 108.94652344 -40.01171875 108.95117188 C-37.6744523 108.96297625 -35.33721831 108.98091201 -33 109 C-33 105.04 -33 101.08 -33 97 C-35.07861328 97.06960938 -35.07861328 97.06960938 -37.19921875 97.140625 C-39.02862424 97.17815127 -40.85805309 97.21455051 -42.6875 97.25 C-43.59951172 97.28351563 -44.51152344 97.31703125 -45.45117188 97.3515625 C-49.81769795 97.41507561 -52.28725121 97.43722486 -56.08203125 95.109375 C-59.06764227 91.82581095 -59.3333847 89.48481671 -59.29296875 85.0390625 C-58.83745033 81.86865433 -57.24684343 80.1807598 -55 78 C-52.59940183 76.79970092 -51.10639351 76.88540257 -48.4296875 76.90234375 C-47.53378906 76.90556641 -46.63789063 76.90878906 -45.71484375 76.91210938 C-44.30912109 76.92467773 -44.30912109 76.92467773 -42.875 76.9375 C-41.93011719 76.94201172 -40.98523438 76.94652344 -40.01171875 76.95117188 C-37.6744523 76.96297625 -35.33721831 76.98091201 -33 77 C-33 73.04 -33 69.08 -33 65 C-35.07861328 65.06960937 -35.07861328 65.06960937 -37.19921875 65.140625 C-39.02862424 65.17815127 -40.85805309 65.21455051 -42.6875 65.25 C-43.59951172 65.28351563 -44.51152344 65.31703125 -45.45117188 65.3515625 C-49.81769795 65.41507561 -52.28725121 65.43722486 -56.08203125 63.109375 C-59.28952156 59.58178892 -59.38920062 56.89214637 -59.359375 52.26171875 C-58.78943134 48.67479071 -56.79773951 47.13161106 -54 45 C-51.59940183 43.79970092 -50.10639351 43.88540257 -47.4296875 43.90234375 C-46.53378906 43.90556641 -45.63789063 43.90878906 -44.71484375 43.91210938 C-43.30912109 43.92467773 -43.30912109 43.92467773 -41.875 43.9375 C-40.45767578 43.94426758 -40.45767578 43.94426758 -39.01171875 43.95117188 C-36.67441613 43.96297643 -34.33723939 43.97944241 -32 44 C-31.73703125 43.09636719 -31.4740625 42.19273437 -31.203125 41.26171875 C-29.03307398 35.37862589 -25.0148648 31.21652215 -19.6875 28 C-17 27 -17 27 -15 27 C-15.01571045 26.42032471 -15.0314209 25.84064941 -15.04760742 25.2434082 C-15.11022791 22.59987261 -15.14907518 19.95649345 -15.1875 17.3125 C-15.21263672 16.40048828 -15.23777344 15.48847656 -15.26367188 14.54882812 C-15.35728419 5.96769949 -15.35728419 5.96769949 -12 2 C-7.98141405 -0.6790573 -4.72358279 -0.69610694 0 0 Z M-12 49 C-12.19815184 51.42830061 -12.27283267 53.74254019 -12.25878906 56.171875 C-12.2622937 56.91022583 -12.26579834 57.64857666 -12.26940918 58.40930176 C-12.27823049 60.85629608 -12.27237604 63.3030026 -12.265625 65.75 C-12.26697154 67.44628963 -12.26891197 69.14257888 -12.27142334 70.83886719 C-12.27437514 74.3965217 -12.27007519 77.95407588 -12.26074219 81.51171875 C-12.24934759 86.07851141 -12.25590677 90.645069 -12.26788712 95.21185303 C-12.27510422 98.71535014 -12.27281848 102.21879126 -12.26763153 105.72229004 C-12.26629462 107.40645373 -12.2679442 109.09062246 -12.27259064 110.77478027 C-12.27765347 113.12603274 -12.26994933 115.47690123 -12.25878906 117.828125 C-12.26283752 118.52844849 -12.26688599 119.22877197 -12.27105713 119.95031738 C-12.33760936 123.91901624 -12.33760936 123.91901624 -10 127 C-7.57169939 127.19815184 -5.25745981 127.27283267 -2.828125 127.25878906 C-2.08977417 127.2622937 -1.35142334 127.26579834 -0.59069824 127.26940918 C1.85629608 127.27823049 4.3030026 127.27237604 6.75 127.265625 C8.44628963 127.26697154 10.14257888 127.26891197 11.83886719 127.27142334 C15.3965217 127.27437514 18.95407588 127.27007519 22.51171875 127.26074219 C27.07851141 127.24934759 31.645069 127.25590677 36.21185303 127.26788712 C39.71535014 127.27510422 43.21879126 127.27281848 46.72229004 127.26763153 C48.40645373 127.26629462 50.09062246 127.2679442 51.77478027 127.27259064 C54.12603274 127.27765347 56.47690123 127.26994933 58.828125 127.25878906 C59.52844849 127.26283752 60.22877197 127.26688599 60.95031738 127.27105713 C64.91901624 127.33760936 64.91901624 127.33760936 68 125 C68.19815184 122.57169939 68.27283267 120.25745981 68.25878906 117.828125 C68.2622937 117.08977417 68.26579834 116.35142334 68.26940918 115.59069824 C68.27823049 113.14370392 68.27237604 110.6969974 68.265625 108.25 C68.26697154 106.55371037 68.26891197 104.85742112 68.27142334 103.16113281 C68.27437514 99.6034783 68.27007519 96.04592412 68.26074219 92.48828125 C68.24934759 87.92148859 68.25590677 83.354931 68.26788712 78.78814697 C68.27510422 75.28464986 68.27281848 71.78120874 68.26763153 68.27770996 C68.26629462 66.59354627 68.2679442 64.90937754 68.27259064 63.22521973 C68.27765347 60.87396726 68.26994933 58.52309877 68.25878906 56.171875 C68.26283752 55.47155151 68.26688599 54.77122803 68.27105713 54.04968262 C68.33760936 50.08098376 68.33760936 50.08098376 66 47 C63.57169939 46.80184816 61.25745981 46.72716733 58.828125 46.74121094 C58.08977417 46.7377063 57.35142334 46.73420166 56.59069824 46.73059082 C54.14370392 46.72176951 51.6969974 46.72762396 49.25 46.734375 C47.55371037 46.73302846 45.85742112 46.73108803 44.16113281 46.72857666 C40.6034783 46.72562486 37.04592412 46.72992481 33.48828125 46.73925781 C28.92148859 46.75065241 24.354931 46.74409323 19.78814697 46.73211288 C16.28464986 46.72489578 12.78120874 46.72718152 9.27770996 46.73236847 C7.59354627 46.73370538 5.90937754 46.7320558 4.22521973 46.72740936 C1.87396726 46.72234653 -0.47690123 46.73005067 -2.828125 46.74121094 C-3.52844849 46.73716248 -4.22877197 46.73311401 -4.95031738 46.72894287 C-8.91901624 46.66239064 -8.91901624 46.66239064 -12 49 Z " fill="#000000" transform="translate(228,169)"/>
<path d="M0 0 C2.73405617 2.00899849 4.67641147 3.59329858 5.4602356 7.00073242 C5.64549191 9.44152328 5.66684498 11.83369022 5.62890625 14.28125 C5.63131821 15.17235474 5.63373016 16.06345947 5.63621521 16.98156738 C5.63523803 18.86096661 5.62187511 20.74039507 5.59692383 22.61962891 C5.56260867 25.4909068 5.57627211 28.35910638 5.59570312 31.23046875 C5.58880438 33.05990889 5.57913173 34.88934111 5.56640625 36.71875 C5.57136612 37.57408325 5.57632599 38.4294165 5.58143616 39.31066895 C5.50194155 43.34823686 5.30397928 45.50360895 3.15209961 49.01757812 C0.01006841 51.91188253 -2.69726277 52.13517903 -6.8046875 52.359375 C-40.43049187 54.48062901 -69.83495227 64.50527262 -96 86 C-96.55558594 86.45632812 -97.11117187 86.91265625 -97.68359375 87.3828125 C-124.77004544 110.03211929 -141.25223717 144.5862998 -144.7890625 179.40527344 C-147.95780981 218.38379932 -136.24495776 255.1735499 -111 285 C-110.26265625 285.88429688 -109.5253125 286.76859375 -108.765625 287.6796875 C-85.42394077 314.60653238 -50.0336689 330.51863201 -14.79638672 333.16552734 C-11.56307062 333.35771489 -8.34001381 333.50758278 -5.1015625 333.59375 C-1.64553614 334.04642852 0.22506791 334.92125228 3 337 C5.08504783 340.12757175 5.2609605 340.91295372 5.32226562 344.48388672 C5.34148071 345.38847626 5.3606958 346.2930658 5.38049316 347.22506714 C5.38899292 348.20009186 5.39749268 349.17511658 5.40625 350.1796875 C5.41765015 351.18460236 5.42905029 352.18951721 5.4407959 353.22488403 C5.45969126 355.35154002 5.47276206 357.4782545 5.48046875 359.60498047 C5.49988761 362.85618312 5.56192921 366.10485956 5.625 369.35546875 C5.63806004 371.42185998 5.648561 373.4882693 5.65625 375.5546875 C5.6809436 376.52566376 5.70563721 377.49664001 5.7310791 378.49703979 C5.68765848 385.0865569 5.68765848 385.0865569 3.69458008 387.73403931 C1.02248927 390.03019564 -1.42418129 391.69949622 -5 391.625 C-5.61875 391.63789063 -6.2375 391.65078125 -6.875 391.6640625 C-10.23529945 390.61396892 -12.75485641 388.65646359 -15 386 C-15.68115234 382.58666992 -15.68115234 382.58666992 -15.5859375 378.73046875 C-15.57744781 378.04946609 -15.56895813 377.36846344 -15.56021118 376.66682434 C-15.52679302 374.50539515 -15.45155986 372.3477881 -15.375 370.1875 C-15.34488432 368.71685102 -15.31751129 367.24614316 -15.29296875 365.77539062 C-15.22704737 362.18236532 -15.12361723 358.59155606 -15 355 C-16.70929688 354.87044922 -16.70929688 354.87044922 -18.453125 354.73828125 C-61.16334668 351.10725098 -100.55356517 331.06395504 -128.79296875 298.703125 C-157.72391522 263.26911622 -170.85231449 220.01010943 -166.53125 174.41796875 C-161.73701973 132.83214754 -140.69263971 93.36503202 -108 67 C-80.28881829 45.77441401 -49.89011107 33.64438625 -15 31 C-15.02618408 30.23856689 -15.05236816 29.47713379 -15.0793457 28.69262695 C-15.18347015 25.23279565 -15.24837729 21.77329415 -15.3125 18.3125 C-15.3753418 16.51522461 -15.3753418 16.51522461 -15.43945312 14.68164062 C-15.57760557 4.76229504 -15.57760557 4.76229504 -12.66796875 1.73046875 C-8.10305755 -1.23037409 -5.24335192 -1.26563667 0 0 Z " fill="#000000" transform="translate(261,63)"/>
<path d="M0 0 C0.73003235 -0.00570007 1.4600647 -0.01140015 2.21221924 -0.01727295 C3.75539715 -0.0267009 5.29859499 -0.03324815 6.84179688 -0.03710938 C9.18135542 -0.04678497 11.52002349 -0.07781545 13.859375 -0.109375 C15.36457816 -0.11590908 16.86978756 -0.12115796 18.375 -0.125 C19.06487 -0.1373468 19.75473999 -0.1496936 20.46551514 -0.16241455 C26.6539545 -0.13457825 32.29732646 1.104058 36.828125 5.515625 C40.04560685 10.83684498 40.76202694 15.81836125 40.75390625 21.9453125 C40.75819138 22.67251495 40.7624765 23.39971741 40.76689148 24.1489563 C40.7726074 25.68018559 40.77315534 27.21144202 40.76879883 28.74267578 C40.76564337 31.06460735 40.78911484 33.38525721 40.81445312 35.70703125 C40.81672713 37.20312341 40.81742915 38.69921896 40.81640625 40.1953125 C40.825616 40.87890839 40.83482574 41.56250427 40.84431458 42.26681519 C40.78626309 48.42477814 39.52870797 54.07144519 35.140625 58.578125 C29.81940502 61.79560685 24.83788875 62.51202694 18.7109375 62.50390625 C17.62013382 62.51033394 17.62013382 62.51033394 16.5072937 62.51689148 C14.97606441 62.5226074 13.44480798 62.52315534 11.91357422 62.51879883 C9.59164265 62.51564337 7.27099279 62.53911484 4.94921875 62.56445312 C3.45312659 62.56672713 1.95703104 62.56742915 0.4609375 62.56640625 C-0.22265839 62.575616 -0.90625427 62.58482574 -1.61056519 62.59431458 C-7.76852814 62.53626309 -13.41519519 61.27870797 -17.921875 56.890625 C-21.17758083 51.50618844 -21.86337271 46.43943334 -21.8828125 40.2421875 C-21.8894693 39.492789 -21.8961261 38.7433905 -21.90298462 37.97128296 C-21.91306412 36.39298947 -21.9178031 34.81465377 -21.91748047 33.23632812 C-21.92185019 30.84172233 -21.95820646 28.44896753 -21.99609375 26.0546875 C-22.10351326 11.62683345 -22.10351326 11.62683345 -17.546875 5.203125 C-11.80158826 0.53507952 -7.19206577 0.04379205 0 0 Z M-0.546875 21.203125 C-0.546875 27.803125 -0.546875 34.403125 -0.546875 41.203125 C6.053125 41.203125 12.653125 41.203125 19.453125 41.203125 C19.453125 34.603125 19.453125 28.003125 19.453125 21.203125 C12.853125 21.203125 6.253125 21.203125 -0.546875 21.203125 Z " fill="#000000" transform="translate(246.546875,224.796875)"/>
<path d="M0 0 C3.2167418 1.32865422 4.56529379 2.28866257 6.375 5.25 C7.20813901 8.91581166 6.97369633 11.36486705 6 15 C3.40536649 18.51038651 1.76271886 19.77811815 -2.4375 21 C-6.55333147 21 -8.60229091 20.29147823 -12 18 C-14.40467242 15.04881112 -14.41186021 11.70892271 -14.328125 7.96875 C-13.80947233 4.85683396 -12.21445226 3.14932131 -10 1 C-6.80367049 -0.59816475 -3.47700733 -0.36705452 0 0 Z " fill="#000000" transform="translate(375,464)"/>
<path d="M0 0 C3.51038651 2.59463351 4.77811815 4.23728114 6 8.4375 C6 12.55333147 5.29147823 14.60229091 3 18 C0.04881112 20.40467242 -3.29107729 20.41186021 -7.03125 20.328125 C-10.14316604 19.80947233 -11.85067869 18.21445226 -14 16 C-15.87174644 12.25650712 -15.44771687 7.6565524 -14.375 3.6875 C-10.43646377 -1.14615811 -5.71917207 -1.66375915 0 0 Z " fill="#000000" transform="translate(376,28)"/>
<path d="M0 0 C2.65834778 3.49382851 3.1875 5.49933957 3.1875 9.875 C1.67233372 13.89019063 0.7819747 15.47868353 -2.8125 17.875 C-7.40521203 18.61465025 -10.83712089 18.48461194 -14.8125 16 C-17.85023627 12.77240521 -18.21269503 10.43034544 -18.1640625 5.98046875 C-17.52910257 2.1777643 -15.60182244 0.47414137 -12.8125 -2.125 C-8.27174319 -4.32214039 -3.84966368 -2.90863478 0 0 Z " fill="#000000" transform="translate(481.8125,335.125)"/>
<path d="M0 0 C3.67080764 2.52368025 4.75864984 4.17035883 6 8.4375 C6 12.61810309 5.40415469 14.58765141 3 18 C-0.39331233 20.39074278 -2.40827516 20.98961886 -6.5625 21.0625 C-10.09034923 19.97207388 -11.93218183 18.82230913 -14.1171875 15.8125 C-15.82039676 12.31564558 -15.55097735 9.85684144 -15 6 C-11.07622572 -0.14724638 -6.99162602 -1.05055521 0 0 Z " fill="#000000" transform="translate(479,159)"/>
</svg>
