<?xml version="1.0" encoding="UTF-8"?>
<svg version="1.1" xmlns="http://www.w3.org/2000/svg" width="512" height="512">
<path d="M0 0 C1.10064285 0.54684952 2.20128571 1.09369904 3.33528137 1.65711975 C4.53985632 2.26568692 5.74435199 2.87441102 6.94877625 3.48327637 C8.22847024 4.1228688 9.50851403 4.76176177 10.78887939 5.40000916 C14.25494625 7.13033832 17.71597159 8.8705358 21.17611337 10.61267662 C24.79771007 12.43413345 28.42369292 14.24681736 32.04916382 16.06054688 C38.13197655 19.10517421 44.21179921 22.15570109 50.28959656 25.21032715 C58.09913292 29.13527682 65.91325376 33.05100518 73.72895527 36.96366119 C80.44345862 40.32505766 87.15616814 43.69003063 93.86842322 47.05591393 C96.02952125 48.13949899 98.19080597 49.22271112 100.35209084 50.30592346 C103.74054913 52.00453381 107.1278917 53.70534946 110.51436424 55.40791512 C111.76011039 56.03385662 113.00619703 56.65912101 114.25263977 57.28367424 C115.94759999 58.13313615 117.64119948 58.9853116 119.3347168 59.83764648 C120.2846668 60.31475822 121.23461679 60.79186996 122.21335316 61.28343964 C124.34989929 62.41882324 124.34989929 62.41882324 125.34989929 63.41882324 C125.44688427 65.60841362 125.47176657 67.80119854 125.47015381 69.99293518 C125.47143545 71.03552267 125.47143545 71.03552267 125.47274297 72.09917253 C125.47439978 74.4454131 125.46887316 76.79158332 125.46342468 79.13781738 C125.46314283 80.81282042 125.46330051 82.48782358 125.46386719 84.16282654 C125.46415523 88.72461603 125.45825743 93.28637947 125.45129323 97.84816289 C125.4450608 102.61011325 125.44445598 107.37206414 125.44326782 112.13401794 C125.44015418 121.1579789 125.43194035 130.1819278 125.42191833 139.20588344 C125.41075822 149.47656811 125.405247 159.74725333 125.4002229 170.01794255 C125.38975776 191.15157618 125.37215768 212.28519896 125.34989929 233.41882324 C103.91307299 244.82068188 82.20542963 255.69093367 60.50901318 266.58758068 C53.15127957 270.28317526 45.79909239 273.98938178 38.45351619 277.70908469 C33.24506589 280.34543837 28.03056731 282.96956333 22.81145078 285.58473665 C19.70879623 287.13983495 16.60908014 288.70021682 13.51587486 290.27403831 C10.08408894 292.01980132 6.63996889 293.74024115 3.19438171 295.45861816 C2.17981903 295.97949509 1.16525635 296.50037201 0.11994934 297.03703308 C-0.82005417 297.5008136 -1.76005768 297.96459412 -2.72854614 298.44242859 C-3.94424648 299.0548354 -3.94424648 299.0548354 -5.18450642 299.67961407 C-10.36217916 301.23193077 -14.67315841 299.1569731 -19.30020142 296.83764648 C-20.40084427 296.29079697 -21.50148712 295.74394745 -22.63548279 295.18052673 C-23.84005774 294.57195957 -25.0445534 293.96323546 -26.24897766 293.35437012 C-27.52867166 292.71477769 -28.80871544 292.07588471 -30.08908081 291.43763733 C-33.55514767 289.70730816 -37.01617301 287.96711069 -40.47631478 286.22496986 C-44.09791148 284.40351304 -47.72389434 282.59082913 -51.34936523 280.77709961 C-57.43217797 277.73247228 -63.51200063 274.68194539 -69.58979797 271.62731934 C-77.39933434 267.70236966 -85.21345517 263.7866413 -93.02915668 259.87398529 C-99.74366003 256.51258882 -106.45636956 253.14761586 -113.16862464 249.78173256 C-115.32972267 248.69814749 -117.49100738 247.61493537 -119.65229225 246.53172302 C-123.04075054 244.83311267 -126.42809311 243.13229702 -129.81456566 241.42973137 C-131.06031181 240.80378986 -132.30639844 240.17852547 -133.55284119 239.55397224 C-135.24780141 238.70451034 -136.94140089 237.85233489 -138.63491821 237 C-139.58486821 236.52288826 -140.53481821 236.04577652 -141.51355457 235.55420685 C-143.65010071 234.41882324 -143.65010071 234.41882324 -144.65010071 233.41882324 C-144.74708568 231.22923287 -144.77196798 229.03644794 -144.77035522 226.8447113 C-144.77120965 226.14965298 -144.77206407 225.45459465 -144.77294439 224.73847395 C-144.7746012 222.39223339 -144.76907458 220.04606316 -144.7636261 217.6998291 C-144.76334424 216.02482607 -144.76350193 214.34982291 -144.7640686 212.67481995 C-144.76435665 208.11303045 -144.75845885 203.55126701 -144.75149465 198.98948359 C-144.74526221 194.22753324 -144.7446574 189.46558235 -144.74346924 184.70362854 C-144.74035559 175.67966758 -144.73214176 166.65571868 -144.72211975 157.63176304 C-144.71095963 147.36107838 -144.70544842 137.09039315 -144.70042431 126.81970394 C-144.68995918 105.6860703 -144.6723591 84.55244753 -144.65010071 63.41882324 C-123.21327441 52.01696461 -101.50563105 41.14671281 -79.80921459 30.2500658 C-72.45148099 26.55447123 -65.0992938 22.8482647 -57.7537176 19.12856179 C-52.5452673 16.49220811 -47.33076872 13.86808316 -42.1116522 11.25290984 C-39.00899764 9.69781153 -35.90928156 8.13742967 -32.81607628 6.56360817 C-29.38429035 4.81784516 -25.9401703 3.09740533 -22.49458313 1.37902832 C-21.48002045 0.8581514 -20.46545776 0.33727448 -19.42015076 -0.1993866 C-18.48014725 -0.66316711 -17.54014374 -1.12694763 -16.57165527 -1.6047821 C-15.76118838 -2.01305331 -14.95072149 -2.42132452 -14.115695 -2.84196758 C-8.93802226 -4.39428428 -4.62704301 -2.31932661 0 0 Z M-19.63154602 35.18249512 C-20.83211136 35.78233971 -20.83211136 35.78233971 -22.05693054 36.39430237 C-24.70122536 37.717843 -27.33967272 39.0526277 -29.97822571 40.38757324 C-31.81061936 41.30750022 -33.64336757 42.22672129 -35.47645569 43.14526367 C-40.30015413 45.56474914 -45.11897064 47.99380591 -49.93684387 50.42486572 C-54.85398351 52.90389409 -59.77566492 55.37387003 -64.69697571 57.84460449 C-74.35249214 62.69381248 -84.00287694 67.55314082 -93.65010071 72.41882324 C-93.65010071 73.07882324 -93.65010071 73.73882324 -93.65010071 74.41882324 C-83.07173428 79.80067288 -72.48479556 85.16522406 -61.88655663 90.50784397 C-56.96566699 92.98916648 -52.04793198 95.47635558 -47.13691711 97.97717285 C-42.39770324 100.3902301 -37.65085064 102.78758401 -32.89828873 105.1742382 C-31.08618305 106.0876838 -29.27690411 107.00675949 -27.47054672 107.93152046 C-24.9404763 109.22557804 -22.40110702 110.49927647 -19.8585968 111.76867676 C-19.1134079 112.15565231 -18.36821899 112.54262787 -17.60044861 112.94132996 C-13.19686175 115.10844347 -10.5157899 115.98950953 -5.65010071 114.41882324 C-2.90679689 113.28223938 -0.26987959 111.98193971 2.37480164 110.63342285 C3.15596344 110.243134 3.93712524 109.85284515 4.74195862 109.45072937 C7.31045284 108.16509436 9.87309983 106.86823499 12.43583679 105.57116699 C14.22053069 104.675088 16.00558029 103.77971713 17.79096985 102.88502502 C22.47983866 100.53296927 27.16382198 98.17134193 31.84684753 95.80767822 C36.6301035 93.39555955 41.4179247 90.99253899 46.20536804 88.58874512 C55.59136487 83.87432323 64.97222483 79.14977535 74.34989929 74.41882324 C74.34989929 73.75882324 74.34989929 73.09882324 74.34989929 72.41882324 C63.73222627 67.06368416 53.11026996 61.71714992 42.48273087 56.38161469 C37.54828726 53.90394744 32.61537882 51.42332006 27.68583679 48.93591309 C22.93016143 46.53637427 18.17064119 44.1446313 13.40833282 41.75828552 C11.59042966 40.84563329 9.77393911 39.93016174 7.95888519 39.01185608 C5.4200329 37.72795142 2.87638181 36.45408505 0.3313446 35.18249512 C-0.42103485 34.79911484 -1.17341431 34.41573456 -1.94859314 34.02073669 C-9.14051813 30.45320572 -12.81252157 31.70781292 -19.63154602 35.18249512 Z M-114.65010071 98.41882324 C-114.65010071 136.36882324 -114.65010071 174.31882324 -114.65010071 213.41882324 C-102.64841522 219.73549981 -90.64804727 225.99589867 -78.51728821 232.05163574 C-76.97736408 232.82193607 -75.43749925 233.59235494 -73.89768982 234.36288452 C-70.72059009 235.95216061 -67.5427935 237.54003151 -64.36445618 239.12683105 C-60.28437204 241.16397989 -56.20614326 243.20481365 -52.1284008 245.24664497 C-48.97228973 246.82649879 -45.81523708 248.40446323 -42.65788651 249.98183823 C-41.15122738 250.7348342 -39.64486528 251.48842479 -38.13880539 252.24261856 C-36.05612616 253.28521873 -33.97219552 254.32527238 -31.88789368 255.36462402 C-30.95623383 255.83197212 -30.95623383 255.83197212 -30.00575256 256.3087616 C-27.4482866 257.79310607 -27.4482866 257.79310607 -24.65010071 258.41882324 C-24.65010071 220.46882324 -24.65010071 182.51882324 -24.65010071 143.41882324 C-36.65178619 137.10214667 -48.65215414 130.84174782 -60.78291321 124.78601074 C-62.32283734 124.01571042 -63.86270217 123.24529155 -65.4025116 122.47476196 C-68.57961132 120.88548588 -71.75740792 119.29761498 -74.93574524 117.71081543 C-79.01582938 115.6736666 -83.09405815 113.63283283 -87.17180061 111.59100151 C-90.32791169 110.01114769 -93.48496434 108.43318326 -96.64231491 106.85580826 C-98.14897404 106.10281229 -99.65533613 105.3492217 -101.16139603 104.59502792 C-103.24407526 103.55242775 -105.32800589 102.51237411 -107.41230774 101.47302246 C-108.03341431 101.16145706 -108.65452087 100.84989166 -109.29444885 100.52888489 C-111.85191482 99.04454042 -111.85191482 99.04454042 -114.65010071 98.41882324 Z M86.17411804 102.4420166 C85.3172641 102.86956741 84.46041016 103.29711823 83.57759094 103.73762512 C80.72984678 105.15928664 77.88358502 106.58388834 75.03739929 108.00866699 C73.06830105 108.99287962 71.09914343 109.97697344 69.12992859 110.96095276 C64.99654468 113.02690604 60.86389089 115.09431095 56.73173523 117.16271973 C51.42304608 119.8199122 46.11257058 122.47351177 40.80154419 125.12602901 C36.73291734 127.1585395 32.66524141 129.19294697 28.59785461 131.2279377 C26.63963732 132.20738098 24.68112032 133.18622527 22.7223053 134.16447258 C19.98912688 135.52979839 17.25723537 136.89766484 14.52568054 138.26623535 C13.70798187 138.67407257 12.8902832 139.08190979 12.04780579 139.50210571 C8.46505805 141.11473576 8.46505805 141.11473576 5.34989929 143.41882324 C5.25417958 144.91166123 5.22801702 146.4090198 5.22964478 147.90492249 C5.22827011 148.87392487 5.22689545 149.84292725 5.22547913 150.84129333 C5.2290744 151.91303299 5.23266968 152.98477264 5.2363739 154.08898926 C5.23622787 155.2107959 5.23608185 156.33260254 5.2359314 157.48840332 C5.23663109 161.21653135 5.24442614 164.94461013 5.25224304 168.67272949 C5.25410702 171.24962843 5.25553102 173.82652771 5.25653076 176.40342712 C5.25996587 182.5055744 5.26785669 188.60770118 5.27788025 194.70984071 C5.28904241 201.65531574 5.2945521 208.6007916 5.29957569 215.54627335 C5.31003933 229.83713291 5.32763814 244.12797744 5.34989929 258.41882324 C17.46656306 252.7254323 29.51240525 246.91349143 41.48271179 240.91882324 C43.02251996 240.14925739 44.56238739 239.37981011 46.10231018 238.61047363 C49.28070308 237.0220037 52.45838937 235.43213198 55.63554382 233.84118652 C59.71283784 231.79964826 63.79196444 229.76180098 67.8715992 227.72494507 C71.02916627 226.14796064 74.18578594 224.56908766 77.34211349 222.98962402 C78.84817519 222.23625971 80.35453408 221.48348922 81.86119461 220.73132324 C83.94580284 219.69028085 86.0291231 218.64670611 88.11210632 217.60241699 C89.04376617 217.13810524 89.04376617 217.13810524 89.99424744 216.66441345 C92.86401738 215.32507875 92.86401738 215.32507875 95.34989929 213.41882324 C95.445619 211.92598526 95.47178156 210.42862669 95.47015381 208.932724 C95.47152847 207.96372162 95.47290314 206.99471924 95.47431946 205.99635315 C95.47072418 204.92461349 95.46712891 203.85287384 95.46342468 202.74865723 C95.46357071 201.62685059 95.46371674 200.50504395 95.46386719 199.34924316 C95.46316749 195.62111514 95.45537244 191.89303635 95.44755554 188.16491699 C95.44569156 185.58801806 95.44426757 183.01111877 95.44326782 180.43421936 C95.43983272 174.33207209 95.43194189 168.2299453 95.42191833 162.12780577 C95.41075618 155.18233075 95.40524649 148.23685489 95.4002229 141.29137313 C95.38975925 127.00051358 95.37216044 112.70966904 95.34989929 98.41882324 C92.46223694 98.41882324 88.79267148 101.12949874 86.17411804 102.4420166 Z " fill="#000000" transform="translate(265.6501007080078,107.5811767578125)"/>
<path d="M0 0 C0 56.76 0 113.52 0 172 C-56.76 172 -113.52 172 -172 172 C-168.3983839 167.79811455 -164.9800788 163.85582444 -161.09619141 159.98266602 C-160.17569 159.06224014 -159.2551886 158.14181427 -158.30679321 157.1934967 C-157.32177076 156.21357848 -156.33669259 155.23371626 -155.3515625 154.25390625 C-154.32858694 153.23279952 -153.30583472 152.211469 -152.28329468 151.18992615 C-149.61246639 148.52288647 -146.93864718 145.85886564 -144.26416016 143.19549561 C-141.52713264 140.4687615 -138.79299099 137.73913695 -136.05859375 135.00976562 C-130.70852452 129.67036911 -125.35528727 124.33416348 -120 119 C-121.47122616 115.59646978 -123.36942513 113.38744251 -125.99072266 110.78222656 C-126.81142242 109.96167786 -127.63212219 109.14112915 -128.47769165 108.29571533 C-129.36419403 107.41953552 -130.25069641 106.54335571 -131.1640625 105.640625 C-132.07127045 104.73624695 -132.97847839 103.8318689 -133.91317749 102.90008545 C-136.31884419 100.50203542 -138.73045736 98.11005382 -141.14337158 95.71929932 C-143.60702344 93.27614829 -146.06498577 90.82728794 -148.5234375 88.37890625 C-153.34373573 83.58066212 -158.16969843 78.78817268 -163 74 C-161.36256066 69.82384201 -158.30218208 67.0351847 -155.17333984 63.94628906 C-154.57807999 63.35073715 -153.98282013 62.75518524 -153.36952209 62.1415863 C-151.40469823 60.17815357 -149.43288961 58.22189627 -147.4609375 56.265625 C-146.09572521 54.9041436 -144.73095439 53.54221939 -143.36660767 52.17987061 C-139.77726841 48.59816176 -136.1819632 45.0225001 -132.58538818 41.44805908 C-128.91528681 37.79842879 -125.25085171 34.14311908 -121.5859375 30.48828125 C-114.39616348 23.31994671 -107.20007484 16.157987 -100 9 C-96.59646978 10.47122616 -94.38744251 12.36942513 -91.78222656 14.99072266 C-90.96167786 15.81142242 -90.14112915 16.63212219 -89.29571533 17.47769165 C-88.41953552 18.36419403 -87.54335571 19.25069641 -86.640625 20.1640625 C-85.73624695 21.07127045 -84.8318689 21.97847839 -83.90008545 22.91317749 C-81.50203542 25.31884419 -79.11005382 27.73045736 -76.71929932 30.14337158 C-74.27614829 32.60702344 -71.82728794 35.06498577 -69.37890625 37.5234375 C-64.58066212 42.34373573 -59.78817268 47.16969843 -55 52 C-51.21774198 50.43179928 -48.83741117 48.0729772 -45.97192383 45.18310547 C-45.48526749 44.69513489 -44.99861115 44.20716431 -44.49720764 43.70440674 C-42.89582747 42.09655487 -41.30154093 40.48185049 -39.70703125 38.8671875 C-38.59464149 37.74852622 -37.48173427 36.63037928 -36.36833191 35.51272583 C-33.44312299 32.57423 -30.52353975 29.63021314 -27.60552979 26.68457031 C-22.92535762 21.96122401 -18.23838037 17.24465301 -13.5482235 12.5312233 C-11.90775658 10.88049555 -10.27072158 9.22641886 -8.63398743 7.57199097 C-7.6360695 6.56724954 -6.63804386 5.56261507 -5.63989258 4.55810547 C-4.76593338 3.67589325 -3.89197418 2.79368103 -2.99153137 1.88473511 C-1 0 -1 0 0 0 Z M-100.94946289 54.8359375 C-102.1984436 56.09277344 -102.1984436 56.09277344 -103.47265625 57.375 C-104.37177734 58.27734375 -105.27089844 59.1796875 -106.19726562 60.109375 C-107.15239736 61.07286352 -108.10747477 62.0364059 -109.0625 63 C-110.02125601 63.9637689 -110.98023744 64.9273136 -111.93945312 65.890625 C-114.29520314 68.25821295 -116.64859739 70.62809556 -119 73 C-114.39357378 78.55363607 -109.45318837 83.60654433 -104.28515625 88.63671875 C-102.61334635 90.28130562 -100.94213951 91.9265057 -99.27148438 93.57226562 C-96.65447939 96.14580615 -94.03394126 98.7152827 -91.40307617 101.2746582 C-88.85240776 103.75906934 -86.31765729 106.25880938 -83.78515625 108.76171875 C-82.98948746 109.52844406 -82.19381866 110.29516937 -81.3740387 111.08512878 C-80.65256149 111.80300064 -79.93108429 112.5208725 -79.18774414 113.26049805 C-78.54631973 113.88780319 -77.90489532 114.51510834 -77.24403381 115.16142273 C-76 117 -76 117 -76.17892456 119.09158325 C-77.39127747 121.90944199 -79.28172178 123.59762001 -81.47265625 125.73046875 C-82.37177734 126.61541016 -83.27089844 127.50035156 -84.19726562 128.41210938 C-85.61555664 129.78592773 -85.61555664 129.78592773 -87.0625 131.1875 C-88.93185948 133.01082701 -90.79634908 134.83894907 -92.66015625 136.66796875 C-93.49168213 137.47516357 -94.32320801 138.2823584 -95.17993164 139.11401367 C-97.11573666 140.68309651 -97.11573666 140.68309651 -97 142 C-74.89 142 -52.78 142 -30 142 C-30 119.89 -30 97.78 -30 75 C-35.64157759 79.79110273 -35.64157759 79.79110273 -40.82421875 84.90234375 C-41.46037109 85.56427734 -42.09652344 86.22621094 -42.75195312 86.90820312 C-44.06157638 88.2812592 -45.36347834 89.66171465 -46.65820312 91.04882812 C-47.29048828 91.70173828 -47.92277344 92.35464844 -48.57421875 93.02734375 C-49.13713623 93.62281006 -49.70005371 94.21827637 -50.2800293 94.83178711 C-52 96 -52 96 -53.83914185 95.82107544 C-56.67490678 94.74355125 -58.16332863 93.18945941 -60.29370117 91.03100586 C-61.13104294 90.19020981 -61.9683847 89.34941376 -62.83110046 88.48313904 C-63.726017 87.56960159 -64.62093353 86.65606415 -65.54296875 85.71484375 C-66.95463992 84.2930662 -68.36631326 82.87129079 -69.77811909 81.44964695 C-71.75201795 79.4582089 -73.7189308 77.45993727 -75.68597412 75.46173096 C-79.13803452 71.95747079 -82.60004017 68.46304451 -86.06355286 64.97010803 C-87.907431 63.10915872 -89.74822517 61.24514804 -91.58573914 59.37791443 C-92.41362442 58.54027054 -93.2415097 57.70262665 -94.09448242 56.83959961 C-94.82632248 56.09649033 -95.55816254 55.35338104 -96.31217957 54.5877533 C-98.6031567 52.42288079 -98.6031567 52.42288079 -100.94946289 54.8359375 Z " fill="#000000" transform="translate(512,340)"/>
<path d="M0 0 C4.20188545 3.6016161 8.14417556 7.0199212 12.01733398 10.90380859 C12.93775986 11.82431 13.85818573 12.7448114 14.8065033 13.69320679 C15.78642152 14.67822924 16.76628374 15.66330741 17.74609375 16.6484375 C18.76720048 17.67141306 19.788531 18.69416528 20.81007385 19.71670532 C23.47711353 22.38753361 26.14113436 25.06135282 28.80450439 27.73583984 C31.5312385 30.47286736 34.26086305 33.20700901 36.99023438 35.94140625 C42.32963089 41.29147548 47.66583652 46.64471273 53 52 C56.40353022 50.52877384 58.61255749 48.63057487 61.21777344 46.00927734 C62.4485965 44.77822769 62.4485965 44.77822769 63.70428467 43.52230835 C64.58046448 42.63580597 65.45664429 41.74930359 66.359375 40.8359375 C67.26375305 39.92872955 68.1681311 39.02152161 69.09991455 38.08682251 C71.49796458 35.68115581 73.88994618 33.26954264 76.28070068 30.85662842 C78.72385171 28.39297656 81.17271206 25.93501423 83.62109375 23.4765625 C88.41933788 18.65626427 93.21182732 13.83030157 98 9 C102.17615799 10.63743934 104.9648153 13.69781792 108.05371094 16.82666016 C108.9470388 17.71954994 108.9470388 17.71954994 109.8584137 18.63047791 C111.82184643 20.59530177 113.77810373 22.56711039 115.734375 24.5390625 C117.0958564 25.90427479 118.45778061 27.26904561 119.82012939 28.63339233 C123.40183824 32.22273159 126.9774999 35.8180368 130.55194092 39.41461182 C134.20157121 43.08471319 137.85688092 46.74914829 141.51171875 50.4140625 C148.68005329 57.60383652 155.842013 64.79992516 163 72 C161.52877384 75.40353022 159.63057487 77.61255749 157.00927734 80.21777344 C156.18857758 81.03832214 155.36787781 81.85887085 154.52230835 82.70428467 C153.19255478 84.01855438 153.19255478 84.01855438 151.8359375 85.359375 C150.92872955 86.26375305 150.02152161 87.1681311 149.08682251 88.09991455 C146.68115581 90.49796458 144.26954264 92.88994618 141.85662842 95.28070068 C139.39297656 97.72385171 136.93501423 100.17271206 134.4765625 102.62109375 C129.65626427 107.41933788 124.83030157 112.21182732 120 117 C121.56820072 120.78225802 123.9270228 123.16258883 126.81689453 126.02807617 C127.30486511 126.51473251 127.79283569 127.00138885 128.29559326 127.50279236 C129.90344513 129.10417253 131.51814951 130.69845907 133.1328125 132.29296875 C134.25147378 133.40535851 135.36962072 134.51826573 136.48727417 135.63166809 C139.42577 138.55687701 142.36978686 141.47646025 145.31542969 144.39447021 C150.03877599 149.07464238 154.75534699 153.76161963 159.4687767 158.4517765 C161.11950445 160.09224342 162.77358114 161.72927842 164.42800903 163.36601257 C165.43275046 164.3639305 166.43738493 165.36195614 167.44189453 166.36010742 C168.32410675 167.23406662 169.20631897 168.10802582 170.11526489 169.00846863 C172 171 172 171 172 172 C115.24 172 58.48 172 0 172 C0 115.24 0 58.48 0 0 Z M96.2742157 54.63917542 C95.52461075 55.406082 94.7750058 56.17298859 94.00268555 56.96313477 C92.73082649 58.2593148 92.73082649 58.2593148 91.43327332 59.5816803 C90.51041031 60.52538986 89.5875473 61.46909943 88.63671875 62.44140625 C87.19625629 63.90387679 85.75404223 65.36460603 84.31180286 66.82532406 C80.73930976 70.44368179 77.17046672 74.06542581 73.6184082 77.70385742 C71.15117955 80.23037531 68.67200242 82.74460025 66.18439674 85.25105095 C64.77522875 86.67772839 63.37931268 88.1174555 61.98356628 89.55726624 C61.12620377 90.4182341 60.26884125 91.27920197 59.38549805 92.16625977 C58.63350632 92.93237076 57.88151459 93.69848175 57.10673523 94.48780823 C55 96 55 96 52.86804199 95.8614502 C50.10737687 94.58836558 48.38458124 92.69999475 46.26953125 90.52734375 C45.38458984 89.62822266 44.49964844 88.72910156 43.58789062 87.80273438 C42.67201172 86.85720703 41.75613281 85.91167969 40.8125 84.9375 C38.98917299 83.06814052 37.16105093 81.20365092 35.33203125 79.33984375 C34.52483643 78.50831787 33.7176416 77.67679199 32.88598633 76.82006836 C31.31690349 74.88426334 31.31690349 74.88426334 30 75 C30 97.11 30 119.22 30 142 C52.11 142 74.22 142 97 142 C92.20889727 136.35842241 92.20889727 136.35842241 87.09765625 131.17578125 C86.43572266 130.53962891 85.77378906 129.90347656 85.09179688 129.24804688 C83.7187408 127.93842362 82.33828535 126.63652166 80.95117188 125.34179688 C80.29826172 124.70951172 79.64535156 124.07722656 78.97265625 123.42578125 C78.37718994 122.86286377 77.78172363 122.29994629 77.16821289 121.7199707 C76 120 76 120 76.17892456 118.16184998 C77.25670639 115.32410509 78.81349046 113.82663035 80.96899414 111.69042969 C81.80979019 110.84986023 82.65058624 110.00929077 83.51686096 109.14324951 C84.43039841 108.24519592 85.34393585 107.34714233 86.28515625 106.421875 C87.21597519 105.4953009 88.14679413 104.56872681 89.1058197 103.61407471 C91.57673121 101.15460013 94.05651969 98.70426899 96.53826904 96.2557373 C99.07065253 93.75407949 101.5945313 91.24387378 104.11914062 88.734375 C109.07113953 83.81451987 114.03256949 78.90427247 119 74 C114.33910081 68.49509301 114.33910081 68.49509301 109.38671875 63.25390625 C108.77892578 62.64482422 108.17113281 62.03574219 107.54492188 61.40820312 C106.93197266 60.79912109 106.31902344 60.19003906 105.6875 59.5625 C105.05521484 58.92634766 104.42292969 58.29019531 103.77148438 57.63476562 C102.86946289 56.73467773 102.86946289 56.73467773 101.94921875 55.81640625 C101.40612061 55.27443604 100.86302246 54.73246582 100.3034668 54.17407227 C98.29065214 52.36106877 98.30029733 52.71477317 96.2742157 54.63917542 Z " fill="#000000" transform="translate(0,340)"/>
<path d="M0 0 C56.76 0 113.52 0 172 0 C172 56.76 172 113.52 172 172 C167.79811455 168.3983839 163.85582444 164.9800788 159.98266602 161.09619141 C159.06224014 160.17569 158.14181427 159.2551886 157.1934967 158.30679321 C156.21357848 157.32177076 155.23371626 156.33669259 154.25390625 155.3515625 C153.23279952 154.32858694 152.211469 153.30583472 151.18992615 152.28329468 C148.52288647 149.61246639 145.85886564 146.93864718 143.19549561 144.26416016 C140.4687615 141.52713264 137.73913695 138.79299099 135.00976562 136.05859375 C129.67036911 130.70852452 124.33416348 125.35528727 119 120 C115.59646978 121.47122616 113.38744251 123.36942513 110.78222656 125.99072266 C109.96167786 126.81142242 109.14112915 127.63212219 108.29571533 128.47769165 C106.98144562 129.80744522 106.98144562 129.80744522 105.640625 131.1640625 C104.73624695 132.07127045 103.8318689 132.97847839 102.90008545 133.91317749 C100.50203542 136.31884419 98.11005382 138.73045736 95.71929932 141.14337158 C93.27614829 143.60702344 90.82728794 146.06498577 88.37890625 148.5234375 C83.58066212 153.34373573 78.78817268 158.16969843 74 163 C69.82384201 161.36256066 67.0351847 158.30218208 63.94628906 155.17333984 C63.35073715 154.57807999 62.75518524 153.98282013 62.1415863 153.36952209 C60.17815357 151.40469823 58.22189627 149.43288961 56.265625 147.4609375 C54.9041436 146.09572521 53.54221939 144.73095439 52.17987061 143.36660767 C48.59816176 139.77726841 45.0225001 136.1819632 41.44805908 132.58538818 C37.79842879 128.91528681 34.14311908 125.25085171 30.48828125 121.5859375 C23.31994671 114.39616348 16.157987 107.20007484 9 100 C10.47122616 96.59646978 12.36942513 94.38744251 14.99072266 91.78222656 C15.81142242 90.96167786 16.63212219 90.14112915 17.47769165 89.29571533 C18.36419403 88.41953552 19.25069641 87.54335571 20.1640625 86.640625 C21.07127045 85.73624695 21.97847839 84.8318689 22.91317749 83.90008545 C25.31884419 81.50203542 27.73045736 79.11005382 30.14337158 76.71929932 C32.60702344 74.27614829 35.06498577 71.82728794 37.5234375 69.37890625 C42.34373573 64.58066212 47.16969843 59.78817268 52 55 C50.43179928 51.21774198 48.0729772 48.83741117 45.18310547 45.97192383 C44.69513489 45.48526749 44.20716431 44.99861115 43.70440674 44.49720764 C42.09655487 42.89582747 40.48185049 41.30154093 38.8671875 39.70703125 C37.74852622 38.59464149 36.63037928 37.48173427 35.51272583 36.36833191 C32.57423 33.44312299 29.63021314 30.52353975 26.68457031 27.60552979 C21.96122401 22.92535762 17.24465301 18.23838037 12.5312233 13.5482235 C10.88049555 11.90775658 9.22641886 10.27072158 7.57199097 8.63398743 C6.56724954 7.6360695 5.56261507 6.63804386 4.55810547 5.63989258 C3.67589325 4.76593338 2.79368103 3.89197418 1.88473511 2.99153137 C0 1 0 1 0 0 Z M75 30 C79.79110273 35.64157759 79.79110273 35.64157759 84.90234375 40.82421875 C85.89524414 41.77844727 85.89524414 41.77844727 86.90820312 42.75195312 C88.2812592 44.06157638 89.66171465 45.36347834 91.04882812 46.65820312 C91.70173828 47.29048828 92.35464844 47.92277344 93.02734375 48.57421875 C93.62281006 49.13713623 94.21827637 49.70005371 94.83178711 50.2800293 C96 52 96 52 95.82107544 53.83815002 C94.74329361 56.67589491 93.18650954 58.17336965 91.03100586 60.30957031 C90.19020981 61.15013977 89.34941376 61.99070923 88.48313904 62.85675049 C87.11283287 64.20383087 87.11283287 64.20383087 85.71484375 65.578125 C84.78402481 66.5046991 83.85320587 67.43127319 82.8941803 68.38592529 C80.42326879 70.84539987 77.94348031 73.29573101 75.46173096 75.7442627 C72.92934747 78.24592051 70.4054687 80.75612622 67.88085938 83.265625 C62.92886047 88.18548013 57.96743051 93.09572753 53 98 C56.11772677 101.68458983 59.21672032 105.34675126 62.6484375 108.74609375 C63.26074219 109.35517578 63.87304688 109.96425781 64.50390625 110.59179688 C65.12136719 111.20087891 65.73882812 111.80996094 66.375 112.4375 C67.01566406 113.07365234 67.65632813 113.70980469 68.31640625 114.36523438 C69.87531022 115.91250473 71.43696852 117.45690292 73 119 C78.55363607 114.39357378 83.60654433 109.45318837 88.63671875 104.28515625 C90.28130562 102.61334635 91.9265057 100.94213951 93.57226562 99.27148438 C96.14580615 96.65447939 98.7152827 94.03394126 101.2746582 91.40307617 C103.75906934 88.85240776 106.25880938 86.31765729 108.76171875 83.78515625 C109.52844406 82.98948746 110.29516937 82.19381866 111.08512878 81.3740387 C111.80300064 80.65256149 112.5208725 79.93108429 113.26049805 79.18774414 C113.88780319 78.54631973 114.51510834 77.90489532 115.16142273 77.24403381 C117 76 117 76 119.09158325 76.17892456 C121.90944199 77.39127747 123.59762001 79.28172178 125.73046875 81.47265625 C126.61541016 82.37177734 127.50035156 83.27089844 128.41210938 84.19726562 C129.78592773 85.61555664 129.78592773 85.61555664 131.1875 87.0625 C133.01082701 88.93185948 134.83894907 90.79634908 136.66796875 92.66015625 C137.47516357 93.49168213 138.2823584 94.32320801 139.11401367 95.17993164 C140.68309651 97.11573666 140.68309651 97.11573666 142 97 C142 74.89 142 52.78 142 30 C119.89 30 97.78 30 75 30 Z " fill="#000000" transform="translate(340,0)"/>
<path d="M0 0 C56.76 0 113.52 0 172 0 C168.3983839 4.20188545 164.9800788 8.14417556 161.09619141 12.01733398 C159.7154393 13.39797279 159.7154393 13.39797279 158.30679321 14.8065033 C157.32177076 15.78642152 156.33669259 16.76628374 155.3515625 17.74609375 C154.32858694 18.76720048 153.30583472 19.788531 152.28329468 20.81007385 C149.61246639 23.47711353 146.93864718 26.14113436 144.26416016 28.80450439 C141.52713264 31.5312385 138.79299099 34.26086305 136.05859375 36.99023438 C130.70852452 42.32963089 125.35528727 47.66583652 120 53 C121.47122616 56.40353022 123.36942513 58.61255749 125.99072266 61.21777344 C127.22177231 62.4485965 127.22177231 62.4485965 128.47769165 63.70428467 C129.80744522 65.01855438 129.80744522 65.01855438 131.1640625 66.359375 C132.07127045 67.26375305 132.97847839 68.1681311 133.91317749 69.09991455 C136.31884419 71.49796458 138.73045736 73.88994618 141.14337158 76.28070068 C143.60702344 78.72385171 146.06498577 81.17271206 148.5234375 83.62109375 C153.34373573 88.41933788 158.16969843 93.21182732 163 98 C161.36256066 102.17615799 158.30218208 104.9648153 155.17333984 108.05371094 C154.57807999 108.64926285 153.98282013 109.24481476 153.36952209 109.8584137 C151.40469823 111.82184643 149.43288961 113.77810373 147.4609375 115.734375 C146.09572521 117.0958564 144.73095439 118.45778061 143.36660767 119.82012939 C139.77726841 123.40183824 136.1819632 126.9774999 132.58538818 130.55194092 C128.91528681 134.20157121 125.25085171 137.85688092 121.5859375 141.51171875 C114.39616348 148.68005329 107.20007484 155.842013 100 163 C96.59646978 161.52877384 94.38744251 159.63057487 91.78222656 157.00927734 C90.96167786 156.18857758 90.14112915 155.36787781 89.29571533 154.52230835 C88.41953552 153.63580597 87.54335571 152.74930359 86.640625 151.8359375 C85.73624695 150.92872955 84.8318689 150.02152161 83.90008545 149.08682251 C81.50203542 146.68115581 79.11005382 144.26954264 76.71929932 141.85662842 C74.27614829 139.39297656 71.82728794 136.93501423 69.37890625 134.4765625 C64.58066212 129.65626427 59.78817268 124.83030157 55 120 C51.21774198 121.56820072 48.83741117 123.9270228 45.97192383 126.81689453 C45.48526749 127.30486511 44.99861115 127.79283569 44.49720764 128.29559326 C42.89582747 129.90344513 41.30154093 131.51814951 39.70703125 133.1328125 C38.59464149 134.25147378 37.48173427 135.36962072 36.36833191 136.48727417 C33.44312299 139.42577 30.52353975 142.36978686 27.60552979 145.31542969 C22.92535762 150.03877599 18.23838037 154.75534699 13.5482235 159.4687767 C11.90775658 161.11950445 10.27072158 162.77358114 8.63398743 164.42800903 C7.6360695 165.43275046 6.63804386 166.43738493 5.63989258 167.44189453 C4.76593338 168.32410675 3.89197418 169.20631897 2.99153137 170.11526489 C1 172 1 172 0 172 C0 115.24 0 58.48 0 0 Z M30 30 C30 52.11 30 74.22 30 97 C35.64157759 92.20889727 35.64157759 92.20889727 40.82421875 87.09765625 C41.77844727 86.10475586 41.77844727 86.10475586 42.75195312 85.09179688 C44.06157638 83.7187408 45.36347834 82.33828535 46.65820312 80.95117188 C47.29048828 80.29826172 47.92277344 79.64535156 48.57421875 78.97265625 C49.13713623 78.37718994 49.70005371 77.78172363 50.2800293 77.16821289 C52 76 52 76 53.83815002 76.17892456 C56.67589491 77.25670639 58.17336965 78.81349046 60.30957031 80.96899414 C61.15013977 81.80979019 61.99070923 82.65058624 62.85675049 83.51686096 C63.75480408 84.43039841 64.65285767 85.34393585 65.578125 86.28515625 C66.5046991 87.21597519 67.43127319 88.14679413 68.38592529 89.1058197 C70.84539987 91.57673121 73.29573101 94.05651969 75.7442627 96.53826904 C78.24592051 99.07065253 80.75612622 101.5945313 83.265625 104.11914062 C88.18548013 109.07113953 93.09572753 114.03256949 98 119 C101.68458983 115.88227323 105.34675126 112.78327968 108.74609375 109.3515625 C109.35517578 108.73925781 109.96425781 108.12695312 110.59179688 107.49609375 C111.20087891 106.87863281 111.80996094 106.26117188 112.4375 105.625 C113.07365234 104.98433594 113.70980469 104.34367187 114.36523438 103.68359375 C115.91250473 102.12468978 117.45690292 100.56303148 119 99 C114.39357378 93.44636393 109.45318837 88.39345567 104.28515625 83.36328125 C102.61334635 81.71869438 100.94213951 80.0734943 99.27148438 78.42773438 C96.65447939 75.85419385 94.03394126 73.2847173 91.40307617 70.7253418 C88.85240776 68.24093066 86.31765729 65.74119062 83.78515625 63.23828125 C82.98948746 62.47155594 82.19381866 61.70483063 81.3740387 60.91487122 C80.65256149 60.19699936 79.93108429 59.4791275 79.18774414 58.73950195 C78.54631973 58.11219681 77.90489532 57.48489166 77.24403381 56.83857727 C76 55 76 55 76.17892456 52.90841675 C77.39127747 50.09055801 79.28172178 48.40237999 81.47265625 46.26953125 C82.37177734 45.38458984 83.27089844 44.49964844 84.19726562 43.58789062 C85.61555664 42.21407227 85.61555664 42.21407227 87.0625 40.8125 C88.93185948 38.98917299 90.79634908 37.16105093 92.66015625 35.33203125 C93.49168213 34.52483643 94.32320801 33.7176416 95.17993164 32.88598633 C97.11573666 31.31690349 97.11573666 31.31690349 97 30 C74.89 30 52.78 30 30 30 Z " fill="#000000" transform="translate(0,0)"/>
</svg>
