<?xml version="1.0" standalone="no"?>
<!DOCTYPE svg PUBLIC "-//W3C//DTD SVG 20010904//EN"
 "http://www.w3.org/TR/2001/REC-SVG-20010904/DTD/svg10.dtd">
<svg version="1.0" xmlns="http://www.w3.org/2000/svg"
 width="512.000000pt" height="512.000000pt" viewBox="0 0 512.000000 512.000000"
 preserveAspectRatio="xMidYMid meet">



<g transform="translate(0.000000,512.000000) scale(0.100000,-0.100000)"
fill="#000000" stroke="none">
<path d="M1185 3900 c-440 -57 -820 -321 -1033 -720 -50 -93 -106 -252 -129
-368 -24 -123 -24 -386 0 -502 62 -290 173 -497 377 -700 205 -206 418 -319
705 -376 133 -27 377 -25 512 4 302 65 479 169 760 446 l183 179 183 -179
c192 -189 278 -255 423 -328 207 -102 366 -139 599 -140 382 -1 686 124 955
394 204 203 315 410 377 700 25 118 25 382 0 500 -62 290 -173 496 -377 701
-124 125 -220 194 -365 264 -193 93 -362 129 -590 129 -232 -1 -392 -38 -597
-139 -144 -72 -233 -140 -425 -329 l-183 -179 -183 179 c-235 233 -360 317
-585 398 -166 59 -432 88 -607 66z m420 -324 c115 -30 260 -96 354 -164 36
-25 139 -118 229 -206 l163 -160 -138 -138 -137 -138 -171 168 c-138 137 -184
175 -242 205 -199 103 -421 103 -626 1 -102 -52 -229 -181 -280 -286 -55 -113
-70 -190 -64 -328 4 -122 16 -167 70 -280 46 -94 178 -225 276 -275 202 -101
428 -100 624 2 81 42 226 181 967 927 223 225 441 437 485 473 102 82 268 165
400 200 86 22 121 26 250 26 105 0 172 -5 223 -16 509 -117 860 -575 829
-1081 -8 -125 -25 -206 -69 -323 -100 -267 -334 -500 -598 -600 -145 -54 -217
-67 -385 -66 -130 0 -163 4 -250 27 -216 57 -349 141 -578 365 l-168 165 138
138 137 137 171 -168 c150 -147 180 -172 252 -208 204 -102 437 -97 639 14 76
41 213 186 251 263 59 122 68 163 68 310 0 147 -9 188 -68 310 -38 77 -175
222 -251 263 -195 107 -430 116 -622 23 -38 -19 -85 -46 -104 -60 -19 -15
-332 -323 -695 -685 -388 -387 -687 -677 -726 -704 -94 -66 -239 -133 -354
-164 -86 -22 -120 -26 -250 -26 -105 0 -172 5 -223 16 -399 92 -699 384 -803
783 -34 129 -34 359 0 489 111 426 442 726 877 795 100 15 286 4 399 -24z
m-101 -689 c46 -21 92 -60 210 -177 l151 -150 -151 -150 c-190 -188 -220 -205
-369 -205 -95 0 -103 2 -163 34 -71 39 -128 98 -163 169 -20 40 -24 62 -24
152 0 89 4 112 23 151 46 92 121 159 220 196 63 23 196 13 266 -20z m2434 -7
c71 -37 128 -97 163 -168 20 -40 24 -62 24 -152 0 -90 -4 -112 -24 -152 -35
-71 -92 -130 -163 -169 -60 -32 -68 -34 -163 -34 -148 0 -179 17 -369 205
l-151 149 125 126 c152 154 185 181 258 212 49 20 70 23 147 20 80 -3 97 -7
153 -37z"/>
</g>
</svg>
